<?xml version="1.0" encoding="UTF-8" standalone="no"?>
<svg
   xmlns:svg="http://www.w3.org/2000/svg"
   xmlns="http://www.w3.org/2000/svg"
   version="1.1"
   id="svg3964"
   viewBox="0 0 386.54068 161.70522"
   height="161.70522"
   width="386.54068">
  <defs
     id="defs3966" />
  <g
     transform="translate(-195.30109,-394.36674)"
     id="layer1">
    <path
       d="m 240.64309,482.53928 64.82136,0 -32.42262,-46.34601 -32.39874,46.34601 z m 79.49466,20.91135 -119.83666,0 72.73596,-104.08389 80.26368,114.86914 58.68361,-81.0088 -49.67999,13.24991 -5.70786,-18.84315 91.59821,-26.76251 -0.01,93.11712 -20.14233,0 -0.0286,-46.5514 -74.70864,103.6349 -33.16775,-47.62132 z"
       style="fill:#76ad19;fill-opacity:1;fill-rule:nonzero;stroke:none"
       id="path120" />
    <path
       d="m 448.41012,524.76888 12.30416,-12.31373 c 3.15247,-3.14291 7.57547,-7.58024 12.2994,-7.50859 l 0,-1.28965 -18.03593,0 0,1.28965 c 2.36913,0 4.42778,0.0669 4.42778,2.14463 0,0.26749 -0.33913,1.49981 -0.9935,2.12552 -5.48815,5.28278 -16.69374,16.58388 -16.69374,16.58388 l 0,-13.81353 c 0,-6.00878 -0.38689,-7.0405 6.34314,-7.0405 l 0,-1.28965 -20.14712,0 0,1.28965 c 6.72527,0 6.31449,1.78639 6.31449,7.79518 l 0,29.19852 c 0,6.01834 0,7.80474 -6.72526,7.80474 l 0,1.28486 20.55789,0 0,-1.28486 c -6.02312,0 -6.35747,-1.04605 -6.35747,-7.05484 l -0.01,-14.3867 15.00764,14.63985 c 1.21323,1.218 3.14291,2.64617 3.14291,4.58063 0,1.71475 -2.42643,2.2927 -3.79251,2.22106 l 0,1.28486 22.89836,0 0,-1.28486 c -5.72697,-0.21495 -10.2694,-4.77169 -14.12877,-8.55942 l -16.41193,-16.4167 z"
       style="fill:#1a171b;fill-opacity:1;fill-rule:nonzero;stroke:none"
       id="path132" />
    <path
       d="m 535.33743,541.31406 c 0,5.90372 0,8.44957 -6.6154,8.44957 l 0,1.26576 21.66125,0 c 16.87047,0 26.91537,-9.37143 26.4425,-24.33607 -0.32958,-10.50344 -4.01223,-15.24169 -10.41269,-19.53096 -5.48815,-3.65877 -13.2929,-3.46293 -19.6838,-3.46293 l -18.00726,0 0,1.27053 c 6.6154,0 6.6154,1.75297 6.6154,7.65667 l 0,28.68743 z m 7.37964,-33.65495 c 2.24971,-0.63049 4.62838,-0.98394 7.01662,-0.98394 12.18953,0 18.6473,9.18036 18.6473,20.6773 0,11.21513 -6.38135,20.68208 -18.37028,20.68208 -2.45032,0 -4.90542,-0.35346 -7.29365,-0.91231 l 0,-39.46313 z"
       style="fill:#1a171b;fill-opacity:1;fill-rule:nonzero;stroke:none"
       id="path136" />
    <path
       d="m 400.49599,514.68434 7.45606,17.54395 -15.1605,0 7.70444,-17.54395 z m -9.1517,20.81582 17.9786,0 2.52197,5.58368 c 0.58273,1.43295 1.75774,3.86416 1.75774,5.4404 0,2.50286 -1.82939,3.08081 -4.9914,3.21934 l 0,1.28486 19.16316,0 0,-1.28486 c -2.59839,-0.10513 -4.14118,-1.08904 -5.24455,-2.56019 -0.94096,-1.09859 -20.29997,-44.28736 -20.29997,-44.28736 l -1.10814,-0.01 -17.31945,39.63031 c -2.20195,5.00572 -3.74475,6.86855 -7.56114,7.22679 l 0,1.28486 15.27035,0 -0.0144,-1.28486 c -2.55064,-0.21495 -4.59019,-0.58752 -4.59019,-3.11904 0,-1.35651 1.03171,-3.57279 1.61923,-4.79079 l 2.81811,-6.33359 z"
       style="fill:#1a171b;fill-opacity:1;fill-rule:nonzero;stroke:none"
       id="path140" />
    <path
       d="m 502.48063,514.68434 7.4465,17.54395 -15.16049,0 7.71399,-17.54395 z m -9.16125,20.81582 17.97382,0 2.52198,5.58368 c 0.5875,1.43295 1.76251,3.86416 1.76251,5.4404 0,2.50286 -1.82939,3.08081 -4.99141,3.21934 l 0,1.28486 19.16317,0 0,-1.28486 c -2.59362,-0.10513 -4.1412,-1.08904 -5.24933,-2.56019 -0.93619,-1.09859 -20.29519,-44.28736 -20.29519,-44.28736 l -1.10814,-0.01 -17.31945,39.63031 c -2.20195,5.00572 -3.74475,6.86855 -7.56114,7.22679 l 0,1.28486 15.27035,0 -0.0191,-1.28486 c -2.54585,-0.21495 -4.5854,-0.59229 -4.5854,-3.11904 0,-1.35651 1.02693,-3.57279 1.60966,-4.79079 l 2.82767,-6.33359 z"
       style="fill:#1a171b;fill-opacity:1;fill-rule:nonzero;stroke:none"
       id="path144" />
  </g>
</svg>
