<?xml version="1.0" encoding="UTF-8"?>
<svg version="1.1" xmlns="http://www.w3.org/2000/svg" width="512" height="512">
<path d="M0 0 C5.53987181 -0.46824978 9.18408597 1.07860269 14.0703125 3.375 C14.85100601 3.73069061 15.63169952 4.08638123 16.43605042 4.45285034 C19.00377119 5.62518091 21.56414464 6.81275756 24.125 8 C25.93405751 8.82828467 27.74371863 9.65525215 29.55395508 10.48095703 C33.25890378 12.1713564 36.96183443 13.86606285 40.66357422 15.56347656 C47.59690403 18.73632735 54.56229339 21.83551486 61.53448486 24.92181396 C63.71417603 25.88681005 65.89308734 26.85354665 68.07177734 27.82080078 C71.89210883 29.51677995 75.71292351 31.21166711 79.53387451 32.90625 C87.77343817 36.56057449 96.01219796 40.21670604 104.25 43.875 C105.20035126 44.29696655 106.15070251 44.71893311 107.12985229 45.15368652 C121.34418606 51.46661559 135.53252283 57.83528214 149.70809937 64.23468018 C163.31234293 70.37305451 176.9649276 76.39597044 190.63900757 82.37695312 C206.81863569 89.45521357 222.92766392 96.68155445 239 104 C239 105.32 239 106.64 239 108 C237.39460754 109.52204895 237.39460754 109.52204895 235.12036133 110.97192383 C234.27777267 111.51999191 233.43518402 112.06806 232.56706238 112.63273621 C231.64387711 113.21412857 230.72069183 113.79552094 229.76953125 114.39453125 C227.82457244 115.65374924 225.8800851 116.91369571 223.93603516 118.17431641 C222.94186584 118.81290588 221.94769653 119.45149536 220.92340088 120.10943604 C216.5573942 122.93293347 212.2530402 125.84467146 207.94921875 128.76171875 C206.26620542 129.89755532 204.58301617 131.03313127 202.8996582 132.16845703 C201.16226313 133.34145802 199.4248773 134.5144727 197.6875 135.6875 C195.81798588 136.94910549 193.94843757 138.21066032 192.07885742 139.47216797 C187.30835276 142.69129582 182.53831686 145.91111749 177.76843262 149.13116455 C173.42137577 152.06565314 169.07394818 154.99959235 164.7265625 157.93359375 C154.81715565 164.62157719 144.9085224 171.31070631 135 178 C129.22349146 181.89975019 123.44694321 185.79944154 117.67028809 189.69897461 C116.01898708 190.81369819 114.3677012 191.92844417 112.71643066 193.04321289 C103.08140047 199.54772614 93.44449921 206.04944984 83.8046875 212.546875 C81.92154779 213.81632236 80.03840976 215.08577222 78.15527344 216.35522461 C74.47148122 218.83848168 70.78715531 221.32094435 67.10253906 223.80297852 C59.32048586 229.04715969 51.54397524 234.29831693 43.8046875 239.60546875 C43.20029343 240.01933838 42.59589935 240.43320801 41.97319031 240.85961914 C39.26972511 242.71121284 36.56953319 244.56719886 33.87524414 246.43212891 C32.97668701 247.04878418 32.07812988 247.66543945 31.15234375 248.30078125 C30.38913818 248.82841064 29.62593262 249.35604004 28.83959961 249.8996582 C27 251 27 251 25 251 C25.29948547 251.9350235 25.59897095 252.870047 25.90753174 253.83340454 C29.29001051 264.47654135 32.33978321 275.19294362 35.296875 285.9609375 C35.80381176 287.79872561 36.3110114 289.63644122 36.81845093 291.47409058 C37.90050818 295.39446514 38.98096875 299.31527462 40.06011963 303.2364502 C41.77804331 309.47838256 43.49967427 315.71928834 45.22216797 321.95996094 C45.51397383 323.0171936 45.80577969 324.07442627 46.10642815 325.16369629 C46.70098793 327.31776873 47.29556389 329.4718367 47.89015579 331.62590027 C48.79398294 334.9006402 49.6974761 338.17547215 50.60092163 341.45031738 C56.22431427 361.83085599 61.88178959 382.20186406 67.54605103 402.57107544 C70.6203814 413.62727413 73.69063548 424.68460588 76.76158142 435.741745 C77.24355675 437.47708242 77.72553607 439.21241874 78.20751953 440.94775391 C78.44219846 441.79270448 78.67687738 442.63765505 78.91866779 443.50821018 C80.49141221 449.17032444 82.06549716 454.83206487 83.64013672 460.49365234 C85.42037073 466.89469742 87.19795994 473.29646916 88.97174454 479.69930458 C89.84420482 482.84838794 90.71832232 485.99699398 91.59503174 489.14489746 C92.52653145 492.49015995 93.4533679 495.83667792 94.37890625 499.18359375 C94.64940292 500.15064743 94.9198996 501.11770111 95.19859314 502.11405945 C95.43929031 502.98835098 95.67998749 503.86264252 95.92797852 504.76342773 C96.13681168 505.51567123 96.34564484 506.26791473 96.56080627 507.04295349 C97 509 97 509 97 512 C92.37848292 511.46885003 89.24710231 510.26578707 85.28125 507.859375 C84.19545654 507.20751221 83.10966309 506.55564941 81.9909668 505.8840332 C80.82725285 505.17278426 79.66359868 504.4614375 78.5 503.75 C77.28811842 503.01877651 76.07562642 502.28856379 74.86254883 501.55932617 C72.40543483 500.08114741 69.9509906 498.59868702 67.49853516 497.11279297 C62.58489945 494.13978758 57.63659598 491.22596417 52.6875 488.3125 C50.89958482 487.25677247 49.11182371 486.20078396 47.32421875 485.14453125 C46.44813965 484.62713379 45.57206055 484.10973633 44.66943359 483.57666016 C40.11251506 480.88518587 35.55629881 478.19252321 31 475.5 C29.16666991 474.41666119 27.33333658 473.33332785 25.5 472.25 C-227.50000001 322.75 -227.50000001 322.75 -230.25366211 321.12280273 C-232.07474948 320.04672773 -233.89587536 318.9707179 -235.71704102 317.89477539 C-240.48806635 315.07594127 -245.2582848 312.25575362 -250.02734375 309.43359375 C-251.01669922 308.84835937 -252.00605469 308.263125 -253.02539062 307.66015625 C-254.91105647 306.54469195 -256.79648842 305.42883213 -258.68164062 304.3125 C-263.43295122 301.50246981 -268.19879319 298.72394999 -273 296 C-273.46950897 290.60669318 -271.85348374 286.79619792 -269.51171875 282.0703125 C-269.1418988 281.30023865 -268.77207886 280.53016479 -268.39105225 279.73675537 C-267.16715501 277.19422105 -265.92725177 274.65983613 -264.6875 272.125 C-263.82111248 270.33148776 -262.95597988 268.53736882 -262.09204102 266.74267578 C-260.29474892 263.01161822 -258.49206874 259.28323751 -256.68554688 255.55664062 C-252.95066591 247.84200146 -249.28060033 240.09677672 -245.61096191 232.35095215 C-244.03382736 229.0232688 -242.45349621 225.69710766 -240.87322998 222.37091064 C-236.2605377 212.66139165 -231.65584636 202.94808701 -227.05450439 193.23318481 C-225.94721055 190.89550061 -224.83959403 188.55796951 -223.73193359 186.22045898 C-220.23008954 178.82911411 -216.73245764 171.43582698 -213.24491882 164.03771973 C-211.58543435 160.51811053 -209.92404466 156.99940228 -208.26248169 153.48077393 C-207.47007956 151.80133524 -206.67861788 150.12145247 -205.88815308 148.44110107 C-204.79366115 146.11456982 -203.69599407 143.7895613 -202.59765625 141.46484375 C-202.27660919 140.78019547 -201.95556213 140.09554718 -201.62478638 139.39015198 C-200.76939834 137.58404986 -199.88575851 135.7914032 -199 134 C-198.60081863 133.11244019 -198.20163727 132.22488037 -197.7903595 131.3104248 C-196 129 -196 129 -193.23892212 128.45143127 C-192.0535788 128.4939653 -190.86823547 128.53649933 -189.64697266 128.58032227 C-188.95907969 128.60007142 -188.27118671 128.61982058 -187.5624485 128.64016819 C-185.03916931 128.72690324 -182.52093758 128.86100435 -180 129 C-178.48680805 129.07645815 -178.48680805 129.07645815 -176.94304657 129.15446091 C-168.86755169 129.56878842 -160.79790596 130.06695301 -152.72836256 130.58250117 C-149.20270756 130.80683342 -145.67672492 131.02590518 -142.15078735 131.2457428 C-136.24532376 131.61473128 -130.34011697 131.98762266 -124.43505859 132.36303711 C-117.62097028 132.79620552 -110.806539 133.22360734 -103.99189126 133.64787763 C-97.40292186 134.05818686 -90.81417964 134.47203495 -84.22554398 134.8876667 C-81.43389951 135.06374111 -78.64218729 135.23867861 -75.85041428 135.41270256 C-71.95912231 135.65549787 -68.06817296 135.90351875 -64.17724609 136.15209961 C-63.02705994 136.22331024 -61.87687378 136.29452087 -60.6918335 136.3678894 C-59.62969635 136.4365773 -58.5675592 136.5052652 -57.47323608 136.57603455 C-56.55563192 136.6341075 -55.63802776 136.69218046 -54.69261742 136.75201321 C-51.76205261 137.02191467 -48.89650096 137.48399574 -46 138 C-45.83095406 137.1699218 -45.83095406 137.1699218 -45.65849304 136.32307434 C-44.52542993 130.97112225 -43.07264809 125.86030742 -41.26953125 120.69921875 C-41.00262985 119.92222122 -40.73572845 119.14522369 -40.46073914 118.34468079 C-39.58241236 115.79074045 -38.69740077 113.23916915 -37.8125 110.6875 C-37.18566155 108.86802324 -36.55937079 107.04835771 -35.93359375 105.22851562 C-34.62112783 101.41261711 -33.30656234 97.5974512 -31.99072266 93.78271484 C-29.11585965 85.44058326 -26.27390963 77.08725283 -23.43081665 68.73425293 C-21.87968887 64.17785003 -20.32656481 59.62212789 -18.7734375 55.06640625 C-18.31228294 53.71360062 -18.31228294 53.71360062 -17.84181213 52.33346558 C-13.66715502 40.08843047 -9.48519387 27.84588754 -5.30273438 15.60351562 C-4.87859756 14.36185387 -4.87859756 14.36185387 -4.44589233 13.09510803 C-3.918992 11.55262476 -3.39199989 10.01017282 -2.86489868 8.46775818 C-1.90166498 5.64782546 -0.94233332 2.82699995 0 0 Z " fill="#781F81" transform="translate(273,0)"/>
<path d="M0 0 C5.53987181 -0.46824978 9.18408597 1.07860269 14.0703125 3.375 C14.85100601 3.73069061 15.63169952 4.08638123 16.43605042 4.45285034 C19.00377119 5.62518091 21.56414464 6.81275756 24.125 8 C25.93405751 8.82828467 27.74371863 9.65525215 29.55395508 10.48095703 C33.25890378 12.1713564 36.96183443 13.86606285 40.66357422 15.56347656 C47.59690403 18.73632735 54.56229339 21.83551486 61.53448486 24.92181396 C63.71417603 25.88681005 65.89308734 26.85354665 68.07177734 27.82080078 C71.89210883 29.51677995 75.71292351 31.21166711 79.53387451 32.90625 C87.77343817 36.56057449 96.01219796 40.21670604 104.25 43.875 C105.20035126 44.29696655 106.15070251 44.71893311 107.12985229 45.15368652 C121.34418606 51.46661559 135.53252283 57.83528214 149.70809937 64.23468018 C163.31234293 70.37305451 176.9649276 76.39597044 190.63900757 82.37695312 C206.81863569 89.45521357 222.92766392 96.68155445 239 104 C239 105.32 239 106.64 239 108 C237.39460754 109.52204895 237.39460754 109.52204895 235.12036133 110.97192383 C234.27777267 111.51999191 233.43518402 112.06806 232.56706238 112.63273621 C231.64387711 113.21412857 230.72069183 113.79552094 229.76953125 114.39453125 C227.82457244 115.65374924 225.8800851 116.91369571 223.93603516 118.17431641 C222.94186584 118.81290588 221.94769653 119.45149536 220.92340088 120.10943604 C216.5573942 122.93293347 212.2530402 125.84467146 207.94921875 128.76171875 C206.26620542 129.89755532 204.58301617 131.03313127 202.8996582 132.16845703 C201.16226313 133.34145802 199.4248773 134.5144727 197.6875 135.6875 C195.81798588 136.94910549 193.94843757 138.21066032 192.07885742 139.47216797 C187.30835276 142.69129582 182.53831686 145.91111749 177.76843262 149.13116455 C173.42137577 152.06565314 169.07394818 154.99959235 164.7265625 157.93359375 C154.81715565 164.62157719 144.9085224 171.31070631 135 178 C129.22349146 181.89975019 123.44694321 185.79944154 117.67028809 189.69897461 C116.01898708 190.81369819 114.3677012 191.92844417 112.71643066 193.04321289 C103.08140047 199.54772614 93.44449815 206.04944827 83.8046875 212.546875 C81.92203628 213.81599715 80.03938653 215.08512149 78.15673828 216.35424805 C74.46808087 218.84078654 70.77887006 221.3265012 67.08935547 223.81176758 C59.38169075 229.00569967 51.67881693 234.20544841 44.015625 239.46484375 C43.42543076 239.86924683 42.83523651 240.2736499 42.22715759 240.69030762 C39.61453382 242.48076827 37.00522064 244.27560271 34.40258789 246.08056641 C30.71153968 248.61522372 27.1233721 251.03097305 23.06640625 252.9375 C16.41854906 256.09433177 10.61524579 260.78554871 4.6640625 265.06835938 C-0.66496281 268.84899103 -5.89521701 272.17368787 -11.83666992 274.90893555 C-14.0764375 276.03855086 -15.94678136 277.35433013 -17.9375 278.875 C-18.948125 279.57625 -19.95875 280.2775 -21 281 C-24 280 -24 280 -25.32763672 277.85229492 C-25.99690186 276.43074097 -25.99690186 276.43074097 -26.6796875 274.98046875 C-27.44430298 273.37498169 -27.44430298 273.37498169 -28.22436523 271.73706055 C-28.76907471 270.56570557 -29.31378418 269.39435059 -29.875 268.1875 C-30.45370365 266.96161519 -31.03322602 265.73611657 -31.61352539 264.51098633 C-33.12613568 261.30962016 -34.62530178 258.10216749 -36.11932373 254.89208984 C-36.96230083 253.08099482 -37.80751433 251.27094124 -38.65283203 249.4609375 C-40.78526309 244.89302174 -42.91471587 240.32395922 -45.02148438 235.74414062 C-47.61742373 230.10120561 -50.23916111 224.47720818 -52.95503235 218.89115906 C-54.28310535 216.15737039 -55.59847609 213.4175501 -56.9133606 210.67739868 C-57.54803723 209.36407667 -58.18893495 208.05374063 -58.83639526 206.74667358 C-59.73758111 204.9261505 -60.61536577 203.09410077 -61.4921875 201.26171875 C-62.25571533 199.69877075 -62.25571533 199.69877075 -63.03466797 198.10424805 C-64.97267212 191.8721482 -62.56773133 186.17693034 -60.41796875 180.265625 C-60.0347924 179.18761627 -60.0347924 179.18761627 -59.64387512 178.08782959 C-58.83124 175.80629832 -58.00952494 173.52816268 -57.1875 171.25 C-56.64718849 169.7371926 -56.10747004 168.22417325 -55.56835938 166.7109375 C-51.42126768 155.09546616 -51.42126768 155.09546616 -49.79150391 150.85742188 C-48.12437019 146.5075709 -46.81227306 142.40595421 -46.08935547 137.79589844 C-45.14122323 132.3759432 -43.64618673 127.34194233 -41.83203125 122.15625 C-41.52064713 121.24594528 -41.209263 120.33564056 -40.88844299 119.39775085 C-39.87073299 116.42915696 -38.84173992 113.46461391 -37.8125 110.5 C-37.09068444 108.40166317 -36.36950332 106.303108 -35.64892578 104.2043457 C-30.64015953 89.63994986 -25.55324662 75.1025564 -20.45666504 60.56869507 C-13.40632859 40.45636392 -6.67862823 20.23831454 0 0 Z " fill="#6EB52A" transform="translate(273,0)"/>
<path d="M0 0 C0.66 0.33 1.32 0.66 2 1 C1.5 3.3125 1.5 3.3125 0 6 C-4.3017576 8.5109378 -7.12246986 9.21938254 -12 8 C-8.04 5.36 -4.08 2.72 0 0 Z " fill="#444056" transform="translate(262,273)"/>
</svg>
