<?xml version="1.0" encoding="UTF-8"?>
<svg version="1.1" xmlns="http://www.w3.org/2000/svg" width="256" height="256">
<path d="M0 0 C6.03377386 1.62640826 11.07984639 4.76010608 16.4375 7.875 C24.39690123 12.44109926 32.40797427 16.85459146 40.5625 21.0625 C50.85018775 26.37635228 61.01998013 31.88377304 71.17138672 37.45263672 C76.10527439 40.15166831 81.05323102 42.82467412 86 45.5 C105.35564309 55.97733418 124.66173348 66.54217903 143.92070007 77.19607544 C147.5220321 79.18708181 151.12967486 81.16608219 154.7421875 83.13671875 C155.58040039 83.5961084 156.41861328 84.05549805 157.28222656 84.52880859 C158.78975758 85.35484007 160.29936856 86.17709274 161.81152344 86.99462891 C168.19674001 90.50570972 168.19674001 90.50570972 170 93 C170.70533643 98.46635731 170.70533643 98.46635731 170 101 C166.45821251 105.29024069 162.53697989 107.62970843 157.625 110 C156.92818115 110.3410376 156.2313623 110.6820752 155.51342773 111.03344727 C145.81244993 115.66030298 135.82297963 119.43036949 125 120 C124.74726318 120.83217041 124.49452637 121.66434082 124.23413086 122.52172852 C122.85295583 126.41442893 121.12699694 129.97869041 119.25390625 133.65234375 C118.88673996 134.38115753 118.51957367 135.10997131 118.14128113 135.86087036 C117.35712439 137.41688675 116.57125516 138.97204112 115.78381348 140.52639771 C113.72871431 144.58354962 111.68607276 148.64695022 109.64453125 152.7109375 C109.24128632 153.51328323 108.83804138 154.31562897 108.4225769 155.14228821 C104.68079611 162.60398903 101.06093702 170.11944488 97.52563477 177.68139648 C86.44295079 201.23644994 86.44295079 201.23644994 74.11328125 206.2734375 C65.73270397 209.15474503 57.39722647 208.53501176 49 206 C50.38705052 202.84580209 51.98356524 200.81719553 54.484375 198.4609375 C55.51280518 197.47359619 55.51280518 197.47359619 56.56201172 196.46630859 C57.64506592 195.43111084 57.64506592 195.43111084 58.75 194.375 C68.13463764 185.20209274 75.76228532 175.76368026 76 162 C75.16568335 151.69464434 71.56755005 142.54587044 63.88671875 135.46484375 C56.06723159 129.39381335 46.78179001 127.0760828 37 128 C28.10619092 129.64597711 19.33002789 133.61671106 13.625 140.8125 C7.91267388 149.35671584 5.09639175 157.656994 6.37109375 168.015625 C7.9403105 175.61804153 11.16981418 181.00798774 16 187 C16.42410156 187.56332031 16.84820312 188.12664062 17.28515625 188.70703125 C20.03163579 192.2355592 23.24607238 195.05841976 26.62109375 197.953125 C47.53062132 215.94424561 47.53062132 215.94424561 48.23828125 225.07421875 C48.39081863 232.50038069 48.35327323 237.83286293 44 244 C42.08496094 244.89648438 42.08496094 244.89648438 40 245 C38.20410156 243.75585938 38.20410156 243.75585938 36.390625 241.84375 C35.71773438 241.15023437 35.04484375 240.45671875 34.3515625 239.7421875 C33.65804687 239.00226563 32.96453125 238.26234375 32.25 237.5 C30.88280765 236.07042625 29.51302131 234.64332868 28.140625 233.21875 C27.45935547 232.51105469 26.77808594 231.80335938 26.07617188 231.07421875 C23.43243465 228.43296858 20.63942714 226.00367344 17.80371094 223.57226562 C15.41770812 221.4924256 13.20745966 219.26712073 11 217 C8.02267165 213.98619596 5.02333755 211.07618029 1.8125 208.3125 C-5.66001279 201.87119398 -11.89071567 194.74387546 -18 187 C-18.79148437 186.00226563 -19.58296875 185.00453125 -20.3984375 183.9765625 C-31.31747933 169.86524266 -35.80382101 156.76837624 -34 139 C-32.24915566 128.99233291 -28.17254631 120.06312338 -22 112 C-21.03126953 110.72382813 -21.03126953 110.72382813 -20.04296875 109.421875 C-8.931676 95.98112755 6.81609222 88.74607241 24 87 C39.6573476 85.77994694 52.5821077 89.70803302 66.26635742 96.91381836 C72.38842309 100.0558309 78.09380562 101.88636601 84.9609375 100.328125 C85.75757813 99.97234375 86.55421875 99.6165625 87.375 99.25 C88.18710938 98.90453125 88.99921875 98.5590625 89.8359375 98.203125 C91.96894087 97.01726753 93.30526367 95.72446854 95 94 C95.66 94 96.32 94 97 94 C97.68774405 92.67741528 98.34711373 91.34013497 99 90 C99.53625 88.9275 100.0725 87.855 100.625 86.75 C102.25337856 82.30896756 102.46841766 79.68417656 102 75 C97.22038784 68.53297987 84.8535807 68.32080455 77.42578125 67.1328125 C75.43809908 66.80109248 73.45047053 66.46905102 71.46289062 66.13671875 C68.3946536 65.63018977 65.32593099 65.12717359 62.25610352 64.63037109 C28.25258105 59.10032023 28.25258105 59.10032023 17 50 C16.39027344 49.55011719 15.78054687 49.10023437 15.15234375 48.63671875 C6.25283519 41.69314614 0.15351474 31.05470899 -2 20 C-2.39096708 13.04442288 -2.44527789 6.57168433 0 0 Z " fill="#F16E24" transform="translate(72,11)"/>
<path d="M0 0 C4.28968399 4.07359916 7.8928574 8.50568533 11.5 13.1875 C12.41966553 14.37508911 12.41966553 14.37508911 13.35791016 15.58666992 C18.01858756 21.64099887 22.51183124 27.80344314 26.9519043 34.02050781 C31.95237993 40.99833772 37.15398747 47.81490444 42.37451172 54.62890625 C47.01220982 60.68649375 51.5749474 66.78454783 56 73 C53 74 53 74 51.0559082 73.18994141 C50.31171631 72.74827637 49.56752441 72.30661133 48.80078125 71.8515625 C47.50382324 71.09709839 47.50382324 71.09709839 46.18066406 70.32739258 C45.23416992 69.76560303 44.28767578 69.20381348 43.3125 68.625 C32.5411274 62.37102354 21.61151331 56.47843322 10.5921936 50.67633057 C9.20695708 49.94693461 7.82197333 49.21705835 6.43727112 48.48664856 C5.16946031 47.81822593 3.90081947 47.15137441 2.63121033 46.4863739 C-4.73642601 42.60524397 -4.73642601 42.60524397 -5.94921875 39.8203125 C-9.49845911 26.86276833 -8.80543959 15.69879055 -2.3125 3.875 C-1.55151388 2.57750744 -0.78435976 1.28349779 0 0 Z " fill="#F5841F" transform="translate(144,0)"/>
<path d="M0 0 C6.03377386 1.62640826 11.07984639 4.76010608 16.4375 7.875 C24.39690123 12.44109926 32.40797427 16.85459146 40.5625 21.0625 C50.84729367 26.37485741 61.01412346 31.88081323 71.16259766 37.44824219 C75.12494953 39.61522795 79.09727014 41.76358105 83.0703125 43.91088867 C86.08379661 45.54022211 89.09478089 47.1741004 92.10546875 48.80859375 C96.03712325 50.94195386 99.97803181 53.05674498 103.92578125 55.16015625 C105.76312913 56.14823616 107.6003737 57.13650817 109.4375 58.125 C110.29037598 58.57431885 111.14325195 59.0236377 112.02197266 59.48657227 C112.79718262 59.90608154 113.57239258 60.32559082 114.37109375 60.7578125 C115.05099365 61.1202002 115.73089355 61.48258789 116.43139648 61.85595703 C118 63 118 63 119 66 C111.0949562 64.36240416 103.37253145 62.19589455 95.625 59.9375 C94.95169647 59.74158264 94.27839294 59.54566528 93.58468628 59.34381104 C54.18474616 47.84541974 54.18474616 47.84541974 36 39 C35.16210938 38.59523437 34.32421875 38.19046875 33.4609375 37.7734375 C19.76717745 30.66042433 6.51208592 19.82755317 1.25390625 4.87890625 C0.78361874 3.26695526 0.38265299 1.63497187 0 0 Z " fill="#F8A718" transform="translate(72,11)"/>
<path d="M0 0 C0 0.99 0 1.98 0 3 C1.134375 3.04125 2.26875 3.0825 3.4375 3.125 C11.67783933 4.17324105 18.93900791 10.68596485 24 17 C24 17.66 24 18.32 24 19 C26.475 19.99 26.475 19.99 29 21 C29 21.99 29 22.98 29 24 C29.66 24 30.32 24 31 24 C37.6680927 41.18621513 41.02107453 62.24081149 34 80 C33.36184656 81.34721283 32.70674629 82.68747118 32 84 C30.62760874 81.25521748 31.32175979 79.12416531 31.7421875 76.17578125 C32.10714579 73.09575448 32.06455598 70.09868688 32 67 C32.33 67 32.66 67 33 67 C32.74911754 52.19793471 29.58741197 39.62422266 20 28 C19.41992188 27.28199219 18.83984375 26.56398438 18.2421875 25.82421875 C7.77718927 13.36477018 -5.51965556 4.4609927 -21.9375 2.5390625 C-25.29361958 2.28870681 -28.6363869 2.10085796 -32 2 C-32 1.67 -32 1.34 -32 1 C-21.33188677 -1.18833092 -10.76358025 -2.03239808 0 0 Z " fill="#FBA11A" transform="translate(116,99)"/>
<path d="M0 0 C5.07638516 2.35689311 6.97416685 4.86244042 9 10 C9.34333466 13.13795186 9.28551864 16.22332386 9.1875 19.375 C9.16719727 20.62216797 9.16719727 20.62216797 9.14648438 21.89453125 C9.11139059 23.92997066 9.05759228 25.96507291 9 28 C5.95736733 28.10845027 2.91863796 28.18752063 -0.125 28.25 C-0.9809375 28.28351563 -1.836875 28.31703125 -2.71875 28.3515625 C-9.34959654 28.45357552 -12.95393765 26.94102572 -17.8125 22.25 C-20.3594617 17.42417784 -20.40317719 13.399262 -18.9375 8.3125 C-14.15432602 0.13481546 -9.20537913 -1.46573745 0 0 Z " fill="#F68A29" transform="translate(34,89)"/>
<path d="M0 0 C3.83378636 1.81233537 5.53351018 3.30026527 7.875 6.8125 C9.60173809 11.70492458 9.60173809 15.29507542 7.875 20.1875 C5.51165031 23.73252453 3.88924158 25.1942807 0 27 C-4.44733007 27.70813142 -8.85416203 28.07504358 -12.97265625 26.01171875 C-15.74795865 23.80920604 -17.99809497 21.40647709 -19 18 C-19.48578712 12.75349908 -18.8850004 9.42366728 -16 5 C-11.24238328 -0.33781388 -7.03555206 -1.22407166 0 0 Z " fill="#F17F21" transform="translate(118,160)"/>
<path d="M0 0 C1.32 0.66 2.64 1.32 4 2 C4 2.99 4 3.98 4 5 C4.66 5 5.32 5 6 5 C12.6680927 22.18621513 16.02107453 43.24081149 9 61 C8.36184656 62.34721283 7.70674629 63.68747118 7 65 C5.62760874 62.25521748 6.32175979 60.12416531 6.7421875 57.17578125 C7.10714579 54.09575448 7.06455598 51.09868688 7 48 C7.33 48 7.66 48 8 48 C7.76994992 34.42704524 5.02211059 22.23095483 -3 11 C-2.01 11 -1.02 11 0 11 C0 11.66 0 12.32 0 13 C0.66 13.33 1.32 13.66 2 14 C3.125 16.0625 3.125 16.0625 4 18 C4.66 17.34 5.32 16.68 6 16 C5.88045759 10.97921898 3.80520801 7.7492559 1.05859375 3.734375 C0 2 0 2 0 0 Z " fill="#F89525" transform="translate(141,118)"/>
<path d="M0 0 C4.6723978 0.60765728 8.77330758 1.94372837 13.12109375 3.68359375 C22.60858763 7.35586031 32.30428227 10.20780502 42.0625 13.0625 C74.92340992 22.7238363 74.92340992 22.7238363 81 26 C80.67 26.66 80.34 27.32 80 28 C76.37 27.01 72.74 26.02 69 25 C69 24.34 69 23.68 69 23 C68.07380859 22.96132812 68.07380859 22.96132812 67.12890625 22.921875 C61.48045437 22.54359207 57.21741262 21.44395229 52.140625 18.9765625 C49.53423943 17.78751799 46.98136259 17.12992155 44.1953125 16.50390625 C41.44084091 15.87165209 38.72487819 15.12416728 36 14.375 C34.576875 13.98441406 34.576875 13.98441406 33.125 13.5859375 C32.42375 13.39257812 31.7225 13.19921875 31 13 C31 12.34 31 11.68 31 11 C30.09636719 10.96261719 29.19273437 10.92523438 28.26171875 10.88671875 C27.08222656 10.82097656 25.90273437 10.75523438 24.6875 10.6875 C22.92986328 10.60048828 22.92986328 10.60048828 21.13671875 10.51171875 C17.75037157 9.95927606 17.15940768 9.46236935 15 7 C12.67085177 6.63858045 10.33746522 6.30300475 8 6 C7.67 5.34 7.34 4.68 7 4 C4.6859378 3.26924352 2.35171131 2.59861742 0 2 C0 1.34 0 0.68 0 0 Z " fill="#E56210" transform="translate(116,54)"/>
<path d="M0 0 C3.96 0 7.92 0 12 0 C9.72703983 1.13648008 7.44986938 2.26484968 5.16015625 3.3671875 C4.13792969 3.86476562 3.11570313 4.36234375 2.0625 4.875 C1.04285156 5.36742187 0.02320312 5.85984375 -1.02734375 6.3671875 C-5.67536458 8.92023968 -9.33485158 12.19910534 -13 16 C-13.66 15.01 -14.32 14.02 -15 13 C-19.29718953 14.38914475 -21.70687757 16.38031985 -24.8125 19.625 C-25.60269531 20.44226563 -26.39289063 21.25953125 -27.20703125 22.1015625 C-27.79871094 22.72804687 -28.39039062 23.35453125 -29 24 C-29.33 23.34 -29.66 22.68 -30 22 C-29.0625 19.875 -29.0625 19.875 -28 18 C-27.34 18 -26.68 18 -26 18 C-26 17.34 -26 16.68 -26 16 C-24.625 14.375 -24.625 14.375 -23 13 C-22.34 13 -21.68 13 -21 13 C-21 12.34 -21 11.68 -21 11 C-14.42794173 6.2850208 -7.98375028 3.19756254 0 2 C0 1.34 0 0.68 0 0 Z " fill="#E75621" transform="translate(96,138)"/>
<path d="M0 0 C0 2 0 2 -1.5 3.625 C-1.995 4.07875 -2.49 4.5325 -3 5 C-2.34 5.33 -1.68 5.66 -1 6 C-1 6.66 -1 7.32 -1 8 C0.1446875 8.1546875 0.1446875 8.1546875 1.3125 8.3125 C4.29903817 9.07649814 4.96692248 9.79749935 7 12 C7.86625 12.515625 8.7325 13.03125 9.625 13.5625 C12 15 12 15 13 17 C13.99 17.33 14.98 17.66 16 18 C17.39712274 19.95597184 18.73779907 21.95436401 20 24 C19.67 24.66 19.34 25.32 19 26 C18.35675781 25.29875 17.71351563 24.5975 17.05078125 23.875 C3.1257058 9.254664 -11.74361114 2.60738797 -32 2 C-32 1.67 -32 1.34 -32 1 C-21.33188677 -1.18833092 -10.76358025 -2.03239808 0 0 Z " fill="#F89B1E" transform="translate(116,99)"/>
<path d="M0 0 C15.33206484 7.58137685 15.33206484 7.58137685 21.4375 10.8125 C22.11683594 11.16957031 22.79617187 11.52664062 23.49609375 11.89453125 C25 13 25 13 26 16 C19.36237179 14.60900162 12.91941658 12.86285116 6.4375 10.875 C5.52419922 10.59785156 4.61089844 10.32070312 3.66992188 10.03515625 C1.44569283 9.35973591 -0.77756953 8.68131033 -3 8 C-3 7.34 -3 6.68 -3 6 C-0.03 6.495 -0.03 6.495 3 7 C2.65213292 5.02463255 2.65213292 5.02463255 2 3 C1.34 2.67 0.68 2.34 0 2 C0 1.34 0 0.68 0 0 Z " fill="#EC8F17" transform="translate(165,61)"/>
<path d="M0 0 C0.66 0 1.32 0 2 0 C2.05416188 1.60379341 2.09286638 3.20811406 2.125 4.8125 C2.14820313 5.70582031 2.17140625 6.59914062 2.1953125 7.51953125 C2 10 2 10 0 13 C0.66 13 1.32 13 2 13 C2 21 2 21 1.9296875 23.8125 C1.91164062 24.864375 1.89359375 25.91625 1.875 27 C1.84019531 28.5778125 1.84019531 28.5778125 1.8046875 30.1875 C1.78098873 33.20851855 1.78098873 33.20851855 4 36 C4.125 38.6875 4.125 38.6875 4 41 C-1.98804466 35.01195534 -2.37333479 24.72046874 -2.375 16.6875 C-2.3764502 15.94757813 -2.37790039 15.20765625 -2.37939453 14.4453125 C-2.27831351 9.36627488 -1.38049815 4.88696343 0 0 Z " fill="#ED9736" transform="translate(40,142)"/>
<path d="M0 0 C3.81695526 3.52613962 6.72774752 7.55374918 9.75 11.75 C10.25660156 12.44738281 10.76320312 13.14476563 11.28515625 13.86328125 C12.52661661 15.57321722 13.76374599 17.28629616 15 19 C12 20 12 20 8.64453125 18.34765625 C7.36110983 17.59622298 6.08393866 16.83403499 4.8125 16.0625 C3.83120117 15.48338867 3.83120117 15.48338867 2.83007812 14.89257812 C1.21464684 13.93746912 -0.39340525 12.96989934 -2 12 C-1.67 10.68 -1.34 9.36 -1 8 C-0.34 8 0.32 8 1 8 C0.67 5.36 0.34 2.72 0 0 Z " fill="#F06A25" transform="translate(185,54)"/>
<path d="M0 0 C6.19436438 9.29154656 6.72881883 19.19343019 7 30 C2.90569262 26.24975206 1.18577564 21.72083899 0.8125 16.25390625 C0.8125 13.82826904 0.86601464 11.4216614 1 9 C0.34 8.67 -0.32 8.34 -1 8 C-0.67 5.36 -0.34 2.72 0 0 Z " fill="#E8661F" transform="translate(143,138)"/>
<path d="M0 0 C0.66 0 1.32 0 2 0 C2.92188461 2.76565382 3.11785222 4.38283702 3.09765625 7.23046875 C3.09443359 8.03291016 3.09121094 8.83535156 3.08789062 9.66210938 C3.07532227 10.91217773 3.07532227 10.91217773 3.0625 12.1875 C3.05798828 13.03248047 3.05347656 13.87746094 3.04882812 14.74804688 C3.03705403 16.83206155 3.0191189 18.91603977 3 21 C1.35 20.67 -0.3 20.34 -2 20 C-3.125 12.25 -3.125 12.25 -2 10 C-1.34 10 -0.68 10 0 10 C0 6.7 0 3.4 0 0 Z " fill="#EF5723" transform="translate(40,96)"/>
<path d="M0 0 C5.19495222 0.54473924 9.29848096 1.74284543 14.125 3.875 C15.89230469 4.64457031 15.89230469 4.64457031 17.6953125 5.4296875 C20.60513059 6.81236702 23.34895466 8.16927813 26 10 C26 10.66 26 11.32 26 12 C25.34 12 24.68 12 24 12 C23.67 13.32 23.34 14.64 23 16 C22.50371094 15.46890625 22.00742188 14.9378125 21.49609375 14.390625 C14.90910785 7.54115958 9.35872205 3.97025727 0 2 C0 1.34 0 0.68 0 0 Z " fill="#EA8624" transform="translate(116,100)"/>
<path d="M0 0 C13.79498794 -0.74455707 24.94771338 1.43233595 36 10 C32.37673261 11.2077558 31.35853631 10.54311128 28 9 C28 8.34 28 7.68 28 7 C26.68 7 25.36 7 24 7 C24 6.34 24 5.68 24 5 C17.24112575 2.92034638 11.04440079 2.78866798 4 3 C4 2.34 4 1.68 4 1 C2.68 0.67 1.36 0.34 0 0 Z " fill="#E55D17" transform="translate(84,101)"/>
<path d="M0 0 C1.98 0.99 1.98 0.99 4 2 C4 2.99 4 3.98 4 5 C4.66 5 5.32 5 6 5 C7.01699578 8.01537445 8.01041642 11.03802945 9 14.0625 C9.28617188 14.91005859 9.57234375 15.75761719 9.8671875 16.63085938 C11.48866669 21.6304202 12.34228996 25.74442287 12 31 C11.01 31 10.02 31 9 31 C8.91363281 30.05640625 8.82726562 29.1128125 8.73828125 28.140625 C7.60031994 17.74237304 4.73624872 9.36286205 0 0 Z " fill="#F5891E" transform="translate(141,118)"/>
<path d="M0 0 C3.62528568 -0.20140476 5.86501708 0.14223235 9 2 C9 2.66 9 3.32 9 4 C9.763125 4.103125 10.52625 4.20625 11.3125 4.3125 C14.29903817 5.07649814 14.96692248 5.79749935 17 8 C17.86625 8.515625 18.7325 9.03125 19.625 9.5625 C22 11 22 11 23 13 C23.99 13.33 24.98 13.66 26 14 C27.39712274 15.95597184 28.73779907 17.95436401 30 20 C29.67 20.66 29.34 21.32 29 22 C28.35675781 21.29875 27.71351563 20.5975 27.05078125 19.875 C19.16432622 11.59478474 10.875147 5.03303422 0 1 C0 0.67 0 0.34 0 0 Z " fill="#FD952B" transform="translate(106,103)"/>
<path d="M0 0 C1.29331151 0.34649154 2.5823076 0.70938114 3.8671875 1.0859375 C4.53500244 1.2725293 5.20281738 1.45912109 5.89086914 1.65136719 C11.07628505 3.14849851 15.89283305 5.07879847 20.7421875 7.4609375 C20.4121875 8.1209375 20.0821875 8.7809375 19.7421875 9.4609375 C16.1121875 8.4709375 12.4821875 7.4809375 8.7421875 6.4609375 C8.7421875 5.8009375 8.7421875 5.1409375 8.7421875 4.4609375 C7.74638672 4.38746094 7.74638672 4.38746094 6.73046875 4.3125 C-2.03988631 3.56990059 -2.03988631 3.56990059 -6.2578125 1.4609375 C-3.2578125 -0.5390625 -3.2578125 -0.5390625 0 0 Z " fill="#E75B1A" transform="translate(176.2578125,72.5390625)"/>
<path d="M0 0 C3 1.125 3 1.125 5 2.125 C5 4.105 5 6.085 5 8.125 C3.02 8.785 1.04 9.445 -1 10.125 C-0.67 8.145 -0.34 6.165 0 4.125 C-1.65 3.795 -3.3 3.465 -5 3.125 C-5 2.135 -5 1.145 -5 0.125 C-3 -0.875 -3 -0.875 0 0 Z " fill="#F5AE0F" transform="translate(82,15.875)"/>
<path d="M0 0 C3.3 1.65 6.6 3.3 10 5 C10 6.32 10 7.64 10 9 C8.39592672 9.02708567 6.7917215 9.04643483 5.1875 9.0625 C3.84751953 9.07990234 3.84751953 9.07990234 2.48046875 9.09765625 C0 9 0 9 -3 8 C-3 7.34 -3 6.68 -3 6 C-0.03 6.495 -0.03 6.495 3 7 C2.65213292 5.02463255 2.65213292 5.02463255 2 3 C1.34 2.67 0.68 2.34 0 2 C0 1.34 0 0.68 0 0 Z " fill="#F79B21" transform="translate(165,61)"/>
<path d="M0 0 C3.9036874 3.46994436 6.36588975 7.55224006 9 12 C5.98782888 11.35550393 3.48344164 10.34977818 0.75 8.9375 C0.04359375 8.57527344 -0.6628125 8.21304688 -1.390625 7.83984375 C-1.92171875 7.56269531 -2.4528125 7.28554687 -3 7 C-2.67 5.68 -2.34 4.36 -2 3 C-1.67 3.33 -1.34 3.66 -1 4 C-0.67 2.68 -0.34 1.36 0 0 Z " fill="#E46A2E" transform="translate(191,62)"/>
<path d="M0 0 C-0.60041109 3.36230209 -1.47677724 5.64499209 -4 8 C-7.6875 8.25 -7.6875 8.25 -11 8 C-8.90751135 2.67366525 -5.73537573 0 0 0 Z " fill="#FBA728" transform="translate(27,89)"/>
<path d="M0 0 C0 0.33 0 0.66 0 1 C-1.98 1.33 -3.96 1.66 -6 2 C-5.34 2.33 -4.68 2.66 -4 3 C-5 4 -5 4 -7.04125977 4.02172852 C-7.91580811 3.97459717 -8.79035645 3.92746582 -9.69140625 3.87890625 C-11.10776367 3.80639648 -11.10776367 3.80639648 -12.55273438 3.73242188 C-13.54595703 3.67634766 -14.53917969 3.62027344 -15.5625 3.5625 C-16.55958984 3.51029297 -17.55667969 3.45808594 -18.58398438 3.40429688 C-21.05627522 3.2741763 -23.5282063 3.13919819 -26 3 C-26 2.67 -26 2.34 -26 2 C-17.25607982 0.20637535 -8.91469911 -0.23737365 0 0 Z " fill="#EE942F" transform="translate(110,98)"/>
<path d="M0 0 C3.49542928 3.49542928 3.18911625 7.02136173 3.25 11.75 C3.22685574 17.33933796 2.76437523 21.16234335 0 26 C-0.33 25.01 -0.66 24.02 -1 23 C-0.67 22.34 -0.34 21.68 0 21 C0.08400529 19.40552536 0.10727467 17.80759455 0.09765625 16.2109375 C0.09443359 15.26992187 0.09121094 14.32890625 0.08789062 13.359375 C0.07951172 12.37453125 0.07113281 11.3896875 0.0625 10.375 C0.05798828 9.38242188 0.05347656 8.38984375 0.04882812 7.3671875 C0.03702145 4.9113984 0.020554 2.45572896 0 0 Z " fill="#E48A35" transform="translate(117,228)"/>
<path d="M0 0 C6.50045699 0.55323038 13.27075659 2.27075659 18 7 C13.72199024 8.42600325 11.13234078 6.45637064 7.3125 4.5625 C6.61060547 4.22412109 5.90871094 3.88574219 5.18554688 3.53710938 C3.45276294 2.70018652 1.72580248 1.85122607 0 1 C0 0.67 0 0.34 0 0 Z " fill="#FD9E25" transform="translate(104,47)"/>
<path d="M0 0 C0.33 0 0.66 0 1 0 C1.34615998 5.65394631 0.43425238 9.03006806 -2 14 C-3.32 13.67 -4.64 13.34 -6 13 C-6 10 -6 10 -5 8 C-3.68 8 -2.36 8 -1 8 C-0.67 5.36 -0.34 2.72 0 0 Z " fill="#F18D1F" transform="translate(117,242)"/>
<path d="M0 0 C0.33 0 0.66 0 1 0 C1.33 6.27 1.66 12.54 2 19 C-2 17 -2 17 -3 15 C-2.34 14.34 -1.68 13.68 -1 13 C-0.79485589 10.92352357 -0.79485589 10.92352357 -0.9375 8.625 C-1.05681187 5.52289135 -0.87927601 2.98544878 0 0 Z " fill="#FC992E" transform="translate(56,181)"/>
<path d="M0 0 C-1.31061591 4.23429756 -2.94356259 8.07407404 -5 12 C-5.66 11.34 -6.32 10.68 -7 10 C-7 7 -7 7 -5.5 5.3125 C-5.005 4.879375 -4.51 4.44625 -4 4 C-4.99 4 -5.98 4 -7 4 C-7 3.34 -7 2.68 -7 2 C-2.25 0 -2.25 0 0 0 Z " fill="#F09431" transform="translate(167,192)"/>
<path d="M0 0 C2.64 0 5.28 0 8 0 C8.33 0.66 8.66 1.32 9 2 C7.5882217 2.53394179 6.17029756 3.05165104 4.75 3.5625 C3.96109375 3.85253906 3.1721875 4.14257812 2.359375 4.44140625 C-0.19103452 5.04522837 -1.55322229 4.8473932 -4 4 C-3.01 4 -2.02 4 -1 4 C-0.67 2.68 -0.34 1.36 0 0 Z " fill="#F8A032" transform="translate(140,214)"/>
<path d="M0 0 C2.48319402 2.48319402 2.26011201 3.96666047 2.2734375 7.36132812 C2.26570312 8.04646484 2.25796875 8.73160156 2.25 9.4375 C2.25773438 10.11876953 2.26546875 10.80003906 2.2734375 11.50195312 C2.25889434 15.21409442 2.10940418 16.83589372 0 20 C-0.66 20 -1.32 20 -2 20 C-1.51421457 16.87709365 -1.0013988 14.00419641 0 11 C0.0685495 9.10529184 0.08480372 7.2083166 0.0625 5.3125 C0.05347656 4.31863281 0.04445312 3.32476562 0.03515625 2.30078125 C0.02355469 1.54152344 0.01195312 0.78226562 0 0 Z " fill="#E45A28" transform="translate(174,83)"/>
<path d="M0 0 C3.33434242 1.4031723 5.05526479 2.96989805 7.1875 5.875 C7.95126953 6.89207031 7.95126953 6.89207031 8.73046875 7.9296875 C9.98995557 9.98361986 10.56190327 11.64588985 11 14 C10.34 14 9.68 14 9 14 C8.34 12.68 7.68 11.36 7 10 C6.34 10 5.68 10 5 10 C4.67 8.02 4.34 6.04 4 4 C3.01 4 2.02 4 1 4 C0.67 2.68 0.34 1.36 0 0 Z " fill="#E46115" transform="translate(131,122)"/>
<path d="M0 0 C0 3.19610552 -0.54671542 4.41717626 -2 7.1875 C-2.37125 7.90292969 -2.7425 8.61835938 -3.125 9.35546875 C-3.558125 10.16951172 -3.558125 10.16951172 -4 11 C-4.66 10.34 -5.32 9.68 -6 9 C-5.88679697 5.71711224 -4.71715137 4.69645513 -2.4375 2.25 C-1.633125 1.5075 -0.82875 0.765 0 0 Z " fill="#FD8C2E" transform="translate(62,164)"/>
<path d="M0 0 C-0.33 0.66 -0.66 1.32 -1 2 C-1.99 2 -2.98 2 -4 2 C-4 2.66 -4 3.32 -4 4 C-2.68 4.33 -1.36 4.66 0 5 C-2.81814566 6.40907283 -4.17277204 5.50872691 -7.125 4.5625 C-8.03507812 4.27503906 -8.94515625 3.98757812 -9.8828125 3.69140625 C-10.58148438 3.46324219 -11.28015625 3.23507813 -12 3 C-12 2.67 -12 2.34 -12 2 C-7.82262526 0.40861915 -4.46839215 -0.21278058 0 0 Z " fill="#E6602C" transform="translate(131,136)"/>
<path d="M0 0 C2.04791862 2.04791862 2.56265691 3.14820414 3.5 5.8125 C3.88091797 6.87404297 3.88091797 6.87404297 4.26953125 7.95703125 C4.63111328 8.96830078 4.63111328 8.96830078 5 10 C5.66066719 11.66905395 6.32438252 13.3369416 7 15 C4.5 13.25 4.5 13.25 2 11 C2 9.68 2 8.36 2 7 C1.34 7 0.68 7 0 7 C0 4.69 0 2.38 0 0 Z " fill="#E77712" transform="translate(72,12)"/>
<path d="M0 0 C0.99 0 1.98 0 3 0 C1.68938409 4.23429756 0.05643741 8.07407404 -2 12 C-2.66 10.68 -3.32 9.36 -4 8 C-3.34 7.01 -2.68 6.02 -2 5 C-1.34 5 -0.68 5 0 5 C0 3.35 0 1.7 0 0 Z " fill="#EE8B34" transform="translate(172,176)"/>
<path d="M0 0 C4.60428934 1.31551124 8.18320388 3.09196486 12 6 C12 6.66 12 7.32 12 8 C7.44328408 6.48109469 3.68276708 4.04597738 0 1 C0 0.67 0 0.34 0 0 Z " fill="#FD9D22" transform="translate(92,39)"/>
<path d="M0 0 C0.99 0.33 1.98 0.66 3 1 C1.63016497 4.16115776 1.0109362 4.9927092 -2 7 C-1.34 4.69 -0.68 2.38 0 0 Z M-3 7 C-2.67 7.66 -2.34 8.32 -2 9 C-3.32 10.32 -4.64 11.64 -6 13 C-4.125 8.125 -4.125 8.125 -3 7 Z " fill="#EC9932" transform="translate(146,184)"/>
<path d="M0 0 C0.66 0.33 1.32 0.66 2 1 C2.36666667 8.33333333 2.36666667 8.33333333 0.625 11.5 C-1 13 -1 13 -3 13 C-2.67 12.01 -2.34 11.02 -2 10 C-1.34 10 -0.68 10 0 10 C0 6.7 0 3.4 0 0 Z " fill="#E15636" transform="translate(240,103)"/>
<path d="M0 0 C2 0 4 0 6 0 C6.66 1.65 7.32 3.3 8 5 C1.84765625 4.4140625 1.84765625 4.4140625 0 4 C-0.33 3.34 -0.66 2.68 -1 2 C-0.67 1.34 -0.34 0.68 0 0 Z " fill="#E25C2C" transform="translate(136,72)"/>
<path d="M0 0 C2.33294775 -0.04241723 4.66702567 -0.04092937 7 0 C7.33 0.33 7.66 0.66 8 1 C9.99958364 1.04080783 12.00045254 1.04254356 14 1 C14 1.99 14 2.98 14 4 C9.03083364 3.48594831 4.70973649 2.76615118 0 1 C0 0.67 0 0.34 0 0 Z " fill="#FD9226" transform="translate(168,70)"/>
<path d="M0 0 C3.28788824 3.11016455 5.83735988 6.01618925 8 10 C7.01 10 6.02 10 5 10 C5 9.01 5 8.02 5 7 C3.68 7 2.36 7 1 7 C0.67 4.69 0.34 2.38 0 0 Z " fill="#EF8828" transform="translate(151,9)"/>
<path d="M0 0 C2 2 2 2 2 4 C2.66 4.33 3.32 4.66 4 5 C1.03 7.475 1.03 7.475 -2 10 C-3.39195915 5.82412255 -1.82323219 3.86525224 0 0 Z " fill="#ED9424" transform="translate(140,7)"/>
<path d="M0 0 C1.98 1.65 3.96 3.3 6 5 C2.25 7 2.25 7 0 7 C-0.93423645 3.98968256 -1.04449911 3.13349732 0 0 Z " fill="#F07C2E" transform="translate(104,214)"/>
<path d="M0 0 C8.57142857 0.85714286 8.57142857 0.85714286 12 3 C11.67 3.66 11.34 4.32 11 5 C7.37 4.01 3.74 3.02 0 2 C0 1.34 0 0.68 0 0 Z " fill="#E05516" transform="translate(185,77)"/>
<path d="M0 0 C2.64 0.33 5.28 0.66 8 1 C8 2.65 8 4.3 8 6 C2.25 3.375 2.25 3.375 0 0 Z " fill="#F79C3A" transform="translate(17,111)"/>
<path d="M0 0 C3.0831351 1.19899698 6.06279492 2.47700477 9 4 C9 4.66 9 5.32 9 6 C8.01 6.33 7.02 6.66 6 7 C4.5 5.625 4.5 5.625 3 4 C3 3.34 3 2.68 3 2 C2.01 2 1.02 2 0 2 C0 1.34 0 0.68 0 0 Z " fill="#EB7B32" transform="translate(133,106)"/>
<path d="M0 0 C2.9375 0.8125 2.9375 0.8125 6 2 C6.33 2.99 6.66 3.98 7 5 C2.545 4.01 2.545 4.01 -2 3 C-1.34 2.67 -0.68 2.34 0 2 C0 1.34 0 0.68 0 0 Z " fill="#F08B2D" transform="translate(184,72)"/>
<path d="M0 0 C0.66 0.66 1.32 1.32 2 2 C1.38125 2.2475 0.7625 2.495 0.125 2.75 C-2.35068687 4.20628639 -2.95125002 5.37812506 -4 8 C-4.99 8 -5.98 8 -7 8 C-5.50902342 4.2047869 -3.24299151 2.38957269 0 0 Z " fill="#F6B13E" transform="translate(23,89)"/>
<path d="M0 0 C4.10958767 1.45044271 7.43258745 3.51110752 11 6 C9.375 6.75 9.375 6.75 7 7 C1.288 3.864 1.288 3.864 0 0 Z " fill="#E36E0D" transform="translate(93,41)"/>
<path d="M0 0 C1.32 0 2.64 0 4 0 C4 2.64 4 5.28 4 8 C1.10067643 5.60490662 0.49831724 3.68754757 0 0 Z " fill="#EA7426" transform="translate(146,160)"/>
<path d="M0 0 C0.66 0 1.32 0 2 0 C2.33 2.31 2.66 4.62 3 7 C2.01 7.66 1.02 8.32 0 9 C0 6.03 0 3.06 0 0 Z " fill="#EA5D29" transform="translate(40,96)"/>
<path d="M0 0 C5.75 1.75 5.75 1.75 8 4 C6.02 4.33 4.04 4.66 2 5 C2 4.34 2 3.68 2 3 C1.34 3 0.68 3 0 3 C0 2.01 0 1.02 0 0 Z " fill="#E35428" transform="translate(204,83)"/>
<path d="M0 0 C-2.97 2.475 -2.97 2.475 -6 5 C-6 4.34 -6 3.68 -6 3 C-6.66 2.67 -7.32 2.34 -8 2 C-7.67 1.34 -7.34 0.68 -7 0 C-2.52459016 -1.26229508 -2.52459016 -1.26229508 0 0 Z " fill="#F39939" transform="translate(159,208)"/>
<path d="M0 0 C-0.33 1.65 -0.66 3.3 -1 5 C-3.31 4.01 -5.62 3.02 -8 2 C-2 0 -2 0 0 0 Z " fill="#E9772B" transform="translate(176,56)"/>
<path d="M0 0 C3.96 1.98 3.96 1.98 8 4 C6.68 4.99 5.36 5.98 4 7 C3.566875 6.0409375 3.566875 6.0409375 3.125 5.0625 C2.17176549 2.84793921 2.17176549 2.84793921 0 2 C0 1.34 0 0.68 0 0 Z " fill="#DF9211" transform="translate(165,61)"/>
<path d="M0 0 C0.66 0 1.32 0 2 0 C2.1875 2.875 2.1875 2.875 2 6 C1.01 6.66 0.02 7.32 -1 8 C-0.67 5.36 -0.34 2.72 0 0 Z " fill="#E78E34" transform="translate(40,142)"/>
<path d="M0 0 C2.375 -0.1875 2.375 -0.1875 5 0 C5.66 0.99 6.32 1.98 7 3 C6.67 3.99 6.34 4.98 6 6 C3.97945196 4.35830472 1.97956942 2.69088222 0 1 C0 0.67 0 0.34 0 0 Z " fill="#E16132" transform="translate(132,143)"/>
</svg>
