<?xml version="1.0" encoding="UTF-8"?>
<svg version="1.1" xmlns="http://www.w3.org/2000/svg" width="512" height="512">
<path d="M0 0 C168.96 0 337.92 0 512 0 C512 168.96 512 337.92 512 512 C343.04 512 174.08 512 0 512 C0 343.04 0 174.08 0 0 Z " fill="#FEFEFE" transform="translate(0,0)"/>
<path d="M0 0 C103.29 0 206.58 0 313 0 C313 35.97 313 71.94 313 109 C298.81 109 284.62 109 270 109 C270 87.22 270 65.44 270 43 C195.42 43 120.84 43 44 43 C44 117.91 44 192.82 44 270 C118.58 270 193.16 270 270 270 C270 248.88 270 227.76 270 206 C284.19 206 298.38 206 313 206 C313 240.98 313 275.96 313 312 C209.71 312 106.42 312 0 312 C0 209.04 0 106.08 0 0 Z " fill="#5A9AD6" transform="translate(12,108)"/>
<path d="M0 0 C103.29 0 206.58 0 313 0 C313 35.97 313 71.94 313 109 C298.81 109 284.62 109 270 109 C270 87.22 270 65.44 270 43 C195.42 43 120.84 43 44 43 C43.67 42.34 43.34 41.68 43 41 C72.01179012 40.93161602 101.02357241 40.87849882 130.03542697 40.84680401 C133.45770014 40.84305173 136.87997316 40.83916878 140.30224609 40.83520508 C141.32424941 40.83402468 141.32424941 40.83402468 142.36689927 40.83282044 C153.41040012 40.8197535 164.4538543 40.79609262 175.49732743 40.76854161 C186.82232064 40.74052315 198.14727918 40.72405598 209.47230923 40.71773452 C215.83620927 40.71381347 222.20000331 40.7045578 228.56386948 40.68280983 C234.54737118 40.66252639 240.53072271 40.65614964 246.51425552 40.66067696 C248.71617701 40.65984809 250.91810325 40.65383425 253.11999512 40.64238358 C256.11476088 40.62756684 259.10895156 40.63100663 262.10372925 40.63923645 C263.42569504 40.62612866 263.42569504 40.62612866 264.77436721 40.61275607 C267.19314384 40.63085651 267.19314384 40.63085651 271 41 C273.35282782 44.52924173 273.21977617 45.86503494 273.13525391 50.03198242 C273.10499619 51.89357246 273.10499619 51.89357246 273.0741272 53.79277039 C273.04182431 55.14700841 273.00929747 56.5012411 272.9765625 57.85546875 C272.95039062 59.24121979 272.92512399 60.6269882 272.90072632 62.01277161 C272.83412148 65.65768434 272.75521918 69.30223123 272.67376709 72.94683838 C272.59280167 76.66689018 272.52344985 80.3871564 272.453125 84.10742188 C272.31345905 91.40520771 272.16080298 98.70264607 272 106 C284.61599773 109.15399943 297.9957272 107 311 107 C311 72.68 311 38.36 311 3 C209.36 2.67 107.72 2.34 3 2 C2.67 103.97 2.34 205.94 2 311 C104.3 311 206.6 311 312 311 C312 276.68 312 242.36 312 207 C299.13 207.33 286.26 207.66 273 208 C272.11975993 211.52096029 271.84926156 214.19138318 271.79467773 217.77832031 C271.77473251 218.9392218 271.75478729 220.10012329 271.73423767 221.29620361 C271.71752518 222.54423767 271.70081268 223.79227173 271.68359375 225.078125 C271.6524221 227.00069122 271.6524221 227.00069122 271.62062073 228.96209717 C271.56555253 232.36176272 271.51607636 235.76148738 271.46777344 239.16125488 C271.41744668 242.63359814 271.36181907 246.10585605 271.30664062 249.578125 C271.19924578 256.38534261 271.09775973 263.19263739 271 270 C270.67 270 270.34 270 270 270 C270 248.88 270 227.76 270 206 C284.19 206 298.38 206 313 206 C313 240.98 313 275.96 313 312 C209.71 312 106.42 312 0 312 C0 209.04 0 106.08 0 0 Z " fill="#7BA5CD" transform="translate(12,108)"/>
<path d="M0 0 C1.46570105 1.07334415 2.92684415 2.15309897 4.375 3.25 C4.045 4.24 3.715 5.23 3.375 6.25 C2.715 6.25 2.055 6.25 1.375 6.25 C1.045 7.24 0.715 8.23 0.375 9.25 C-0.31464844 8.77949219 -1.00429688 8.30898437 -1.71484375 7.82421875 C-10.65047947 1.90390043 -18.66275984 -2.26087537 -29.625 -0.75 C-37.48323425 1.40898312 -44.21067648 5.18708237 -48.625 12.25 C-51.77374655 18.85183291 -52.04760585 27.02492169 -49.71484375 33.953125 C-48.50870639 36.23353904 -47.20717185 38.21457998 -45.625 40.25 C-44.97337891 41.11044922 -44.97337891 41.11044922 -44.30859375 41.98828125 C-39.68185408 47.30046383 -33.50698841 49.80477195 -26.59375 50.59765625 C-18.81094825 50.82367196 -12.57023181 49.68052411 -6.3125 44.9375 C-2.42857017 41.05357017 -0.94523541 37.53094164 0.375 32.25 C-5.895 32.25 -12.165 32.25 -18.625 32.25 C-18.625 30.27 -18.625 28.29 -18.625 26.25 C-10.045 26.25 -1.465 26.25 7.375 26.25 C7.375 36.83530526 5.8702503 42.17046865 -0.91796875 49.71484375 C-3.8025326 52.30897097 -7.05861415 53.80008205 -10.625 55.25 C-11.40488281 55.60835938 -12.18476563 55.96671875 -12.98828125 56.3359375 C-21.37060184 59.24180864 -31.56564886 57.50072763 -39.625 54.25 C-46.24892585 50.89094755 -50.78440021 46.57706712 -54.625 40.25 C-55.03878906 39.57195312 -55.45257813 38.89390625 -55.87890625 38.1953125 C-59.64389915 31.03264308 -59.78261245 23.32178957 -58 15.51171875 C-54.47049681 5.38015378 -47.48887264 -0.84857978 -38.140625 -5.65625 C-25.05035738 -11.3476707 -11.19775497 -7.71018603 0 0 Z " fill="#111111" transform="translate(495.625,243.75)"/>
<path d="M0 0 C8.67443618 5.54093941 14.27419168 12.03302262 17 22 C17.31857653 24.81806904 17.36998822 27.60333595 17.375 30.4375 C17.39949219 31.16259766 17.42398438 31.88769531 17.44921875 32.63476562 C17.49729811 41.55348725 12.43642518 47.31273824 6.58203125 53.69140625 C-0.32061102 59.86305766 -8.95060442 62.33063187 -18.0234375 62.2109375 C-28.03882951 61.50118531 -34.9303927 57.25458945 -41.75 50.125 C-47.98082795 41.47107229 -49.97913685 33.66320273 -49 23 C-48.04624156 19.74338441 -46.69005276 16.93411937 -45 14 C-44.4225 12.96875 -43.845 11.9375 -43.25 10.875 C-32.65688159 -2.6606513 -16.07693942 -7.89327568 0 0 Z M-39.31640625 15.703125 C-43.30967771 22.10349041 -42.88204209 29.7485212 -42 37 C-39.87354772 43.83012553 -34.93549057 49.12529458 -29 53 C-21.43414237 56.16933669 -11.70109396 56.67004728 -3.91015625 53.90234375 C2.41155394 50.33746958 6.42726589 45.95142449 9.09765625 39.2421875 C10.91315426 32.71896953 11.33081775 24.97388371 9.16015625 18.4921875 C7.94284095 16.40184809 6.65879767 14.75945287 5 13 C4.40703125 12.36449219 3.8140625 11.72898438 3.203125 11.07421875 C-2.51123793 5.55414416 -8.51687832 3.00873221 -16.4375 2.5625 C-26.5409802 2.98568242 -33.34267875 7.97450426 -39.31640625 15.703125 Z " fill="#141414" transform="translate(322,239)"/>
<path d="M0 0 C0.99 0 1.98 0 3 0 C9.52838012 13.45398544 16.01534657 26.9266099 22.33340454 40.48083496 C23.1736311 42.28275722 24.01684461 44.08328571 24.86010742 45.88378906 C25.37420166 46.99077148 25.8882959 48.09775391 26.41796875 49.23828125 C26.86938232 50.20805908 27.3207959 51.17783691 27.78588867 52.17700195 C29.0324558 55.07546479 30.04511215 57.99411868 31 61 C27.6875 61.3125 27.6875 61.3125 24 61 C20.92119452 57.57910502 19.60529505 52.67805817 17.96484375 48.40234375 C17.08833452 46.21994222 16.0517742 44.10354841 15 42 C6.09 42 -2.82 42 -12 42 C-14.54496866 47.12938195 -14.54496866 47.12938195 -17.08544922 52.26098633 C-17.56522217 53.22427856 -17.56522217 53.22427856 -18.0546875 54.20703125 C-18.54171143 55.18893433 -18.54171143 55.18893433 -19.03857422 56.19067383 C-20 58 -20 58 -22 61 C-25.125 61.1875 -25.125 61.1875 -28 61 C-27.37252327 56.92093227 -26.04036707 53.674483 -24.2265625 49.9765625 C-23.65389648 48.80085693 -23.08123047 47.62515137 -22.49121094 46.41381836 C-21.86919796 45.15085067 -21.24712643 43.88791181 -20.625 42.625 C-19.99187433 41.32916928 -19.35939323 40.03302345 -18.72753906 38.73657227 C-17.76408993 36.76005765 -16.80019125 34.78377585 -15.83410645 32.80854797 C-12.76692793 26.53684373 -9.75322055 20.24006212 -6.75 13.9375 C-5.87012152 12.09229059 -4.98994061 10.24722535 -4.109375 8.40234375 C-3.56748535 7.26526978 -3.56748535 7.26526978 -3.01464844 6.10522461 C-2.02897192 4.06011186 -1.02066682 2.02784338 0 0 Z " fill="#0E0E0E" transform="translate(399,238)"/>
<path d="M0 0 C2.16088805 1.57488451 4.05217349 3.16038607 6 5 C5.67 6.32 5.34 7.64 5 9 C3.375 9.8125 3.375 9.8125 1 10 C-0.463347 8.80271609 -1.92189687 7.59837598 -3.33984375 6.34765625 C-10.20454094 0.77513735 -19.59096357 1.01612776 -28.00878906 1.69824219 C-34.48065041 2.67901961 -39.22125777 6.60191169 -43.0625 11.6875 C-45.87605902 16.49777833 -46.21028623 20.30921336 -46.25 25.75 C-46.2809375 26.78640625 -46.2809375 26.78640625 -46.3125 27.84375 C-46.35967027 34.11739538 -44.90808212 38.71030146 -40.8125 43.625 C-33.54700749 49.76030478 -27.63065249 52.42840123 -18.08984375 52.3515625 C-10.70938201 51.51181338 -3.98773749 48.51834786 1 43 C2.65 43.66 4.3 44.32 6 45 C5.4498054 48.73639615 4.09610748 50.21989181 1.1875 52.5625 C-7.22839941 58.76789419 -17.7596647 60.19357551 -28 59 C-36.61797347 57.06182123 -43.50091782 53.12365605 -48.53125 45.7578125 C-53.753069 36.74106689 -55.16586544 28.38869382 -54 18 C-50.88636429 8.0409446 -44.91538923 1.45930275 -35.8125 -3.375 C-24.01931998 -9.0853819 -10.58199763 -6.94088017 0 0 Z " fill="#141414" transform="translate(170,242)"/>
<path d="M0 0 C11.55 0 23.1 0 35 0 C35 1.98 35 3.96 35 6 C25.43 6 15.86 6 6 6 C6 12.27 6 18.54 6 25 C15.57 25 25.14 25 35 25 C35 26.98 35 28.96 35 31 C25.43 31 15.86 31 6 31 C6 38.92 6 46.84 6 55 C15.57 55 25.14 55 35 55 C35 56.98 35 58.96 35 61 C23.45 61 11.9 61 0 61 C0 40.87 0 20.74 0 0 Z " fill="#0E0E0E" transform="translate(230,238)"/>
<path d="M0 0 C0.99 0 1.98 0 3 0 C3 75.24 3 150.48 3 228 C1 226 1 226 0.8046875 224.0546875 C0.90234375 221.02734375 0.90234375 221.02734375 1 218 C0.34 218 -0.32 218 -1 218 C-1.02332535 189.72398616 -1.04097738 161.44797376 -1.05181217 133.17195225 C-1.05697591 120.04391217 -1.06402007 106.91587805 -1.07543945 93.7878418 C-1.08538393 82.34997441 -1.09185286 70.91211135 -1.09408849 59.47423977 C-1.095396 53.41390285 -1.09848439 47.35357829 -1.10573006 41.29324532 C-1.11248656 35.59623255 -1.11461772 29.89923731 -1.11310768 24.20222092 C-1.11338418 22.10470294 -1.11539148 20.00718441 -1.11920547 17.90966988 C-1.12413694 15.05922917 -1.12300032 12.20885576 -1.12025452 9.3584137 C-1.12316736 8.51699076 -1.1260802 7.67556782 -1.12908131 6.80864722 C-1.11412121 1.11412121 -1.11412121 1.11412121 0 0 Z " fill="#6AA0D3" transform="translate(53,150)"/>
<path d="M0 0 C2.31 0 4.62 0 7 0 C7 18.48 7 36.96 7 56 C14.92 56 22.84 56 31 56 C31 57.98 31 59.96 31 62 C20.77 62 10.54 62 0 62 C0 41.54 0 21.08 0 0 Z " fill="#1A1A1A" transform="translate(189,237)"/>
<path d="M0 0 C0.33 0 0.66 0 1 0 C1.09272514 7.62343616 1.16377754 15.24681377 1.20724869 22.87068558 C1.22811412 26.41090072 1.25641126 29.95072974 1.30175781 33.49072266 C1.35357738 37.56156091 1.37295369 41.63199427 1.390625 45.703125 C1.41127014 46.97303284 1.43191528 48.24294067 1.45318604 49.55133057 C1.45348816 50.73225281 1.45379028 51.91317505 1.45410156 53.12988281 C1.46298401 54.16912903 1.47186646 55.20837524 1.48101807 56.27911377 C0.88235699 59.66544956 -0.39576542 60.84287822 -3 63 C-3.99 62.67 -4.98 62.34 -6 62 C-8.91189132 61.89388129 -11.80046135 61.8451437 -14.71281433 61.84178162 C-15.61375912 61.83684364 -16.51470392 61.83190566 -17.44295007 61.82681805 C-20.4739277 61.81141105 -23.5048841 61.80307375 -26.53588867 61.79467773 C-28.70379321 61.78510173 -30.87169587 61.77509181 -33.03959656 61.76467896 C-38.93591309 61.73759377 -44.83223766 61.71660378 -50.72858214 61.69667697 C-56.88655936 61.67483969 -63.0445117 61.64743997 -69.20246887 61.62062073 C-80.868375 61.57066326 -92.53429491 61.52573577 -104.20022804 61.48259836 C-117.47938451 61.43325207 -130.75851502 61.37832428 -144.0376476 61.32291877 C-171.35840847 61.20905185 -198.67919326 61.10222308 -226 61 C-226.33 60.34 -226.66 59.68 -227 59 C-152.42 58.67 -77.84 58.34 -1 58 C-0.67 38.86 -0.34 19.72 0 0 Z " fill="#629BC9" transform="translate(283,320)"/>
<path d="M0 0 C0.99 0 1.98 0 3 0 C4.36389525 2.62035018 5.71632173 5.24556999 7.0625 7.875 C7.45244141 8.62136719 7.84238281 9.36773437 8.24414062 10.13671875 C8.60830078 10.85214844 8.97246094 11.56757813 9.34765625 12.3046875 C9.68804932 12.96452637 10.02844238 13.62436523 10.37915039 14.30419922 C10.58403076 14.86381348 10.78891113 15.42342773 11 16 C10.67 16.66 10.34 17.32 10 18 C8.68 18 7.36 18 6 18 C7.94379931 23.99195236 7.94379931 23.99195236 10.1875 29.875 C11 32 11 32 11 35 C4.4 35 -2.2 35 -9 35 C-8.67 32.69 -8.34 30.38 -8 28 C-8.99 28 -9.98 28 -11 28 C-12.71711243 30.44496043 -12.71711243 30.44496043 -14 33 C-14.33 32.34 -14.66 31.68 -15 31 C-14.09929935 28.77317271 -13.14039041 26.67567089 -12.0703125 24.53125 C-11.7605246 23.89513794 -11.45073669 23.25902588 -11.13156128 22.6036377 C-10.13677417 20.56537263 -9.13104851 18.53272653 -8.125 16.5 C-7.45370322 15.12926051 -6.78312109 13.75817079 -6.11328125 12.38671875 C-4.09036832 8.25045573 -2.05917783 4.11835566 0 0 Z " fill="#161616" transform="translate(399,238)"/>
<path d="M0 0 C0.66 0 1.32 0 2 0 C2 102.63 2 205.26 2 311 C0.515 309.515 0.515 309.515 -1 308 C-0.34 307.67 0.32 307.34 1 307 C1 206.68 1 106.36 1 3 C0.34 3 -0.32 3 -1 3 C-0.67 2.01 -0.34 1.02 0 0 Z " fill="#EEFEFC" transform="translate(10,109)"/>
<path d="M0 0 C1.32 0 2.64 0 4 0 C3.125 5.75 3.125 5.75 2 8 C8.6 8 15.2 8 22 8 C22.33 7.34 22.66 6.68 23 6 C23 6.99 23 7.98 23 9 C16.07 9 9.14 9 2 9 C2 9.99 2 10.98 2 12 C9.92 12.33 17.84 12.66 26 13 C26 13.33 26 13.66 26 14 C12.635 14.495 12.635 14.495 -1 15 C-3.54496866 20.12938195 -3.54496866 20.12938195 -6.08544922 25.26098633 C-6.40529785 25.90318115 -6.72514648 26.54537598 -7.0546875 27.20703125 C-7.54171143 28.18893433 -7.54171143 28.18893433 -8.03857422 29.19067383 C-9 31 -9 31 -11 34 C-14.125 34.1875 -14.125 34.1875 -17 34 C-16.01613294 27.93144759 -13.26780955 22.8115768 -10.625 17.3125 C-10.13 16.25482422 -9.635 15.19714844 -9.125 14.10742188 C-8.40183594 12.59438477 -8.40183594 12.59438477 -7.6640625 11.05078125 C-7.22529785 10.12950439 -6.7865332 9.20822754 -6.33447266 8.2590332 C-5 6 -5 6 -2 4 C-0.80767387 1.94996045 -0.80767387 1.94996045 0 0 Z " fill="#141414" transform="translate(388,265)"/>
<path d="M0 0 C2.67775235 1.33887617 2.99211626 3.07899503 4.0703125 5.7578125 C5.58605507 9.41342693 7.31850668 12.97065127 9.01171875 16.546875 C10 19 10 19 10 22 C3.4 22 -3.2 22 -10 22 C-7.75 15.25 -7.75 15.25 -6.0546875 11.9140625 C-5.70019531 11.21152344 -5.34570312 10.50898438 -4.98046875 9.78515625 C-4.61566406 9.07230469 -4.25085938 8.35945313 -3.875 7.625 C-3.50246094 6.88894531 -3.12992187 6.15289062 -2.74609375 5.39453125 C-1.8343878 3.59449642 -0.91770068 1.79698598 0 0 Z " fill="#EFEFEF" transform="translate(400,251)"/>
<path d="M0 0 C0.66 0 1.32 0 2 0 C2.81622753 2.86370151 3.12549507 5.40377602 3.12698364 8.37783813 C3.13121338 9.68173744 3.13121338 9.68173744 3.13552856 11.01197815 C3.13350433 11.95758102 3.1314801 12.9031839 3.12939453 13.87744141 C3.13114685 14.87943069 3.13289917 15.88141998 3.13470459 16.91377258 C3.13910669 20.22638683 3.1361913 23.53894771 3.1328125 26.8515625 C3.1334859 29.15033987 3.13445624 31.44911716 3.13571167 33.74789429 C3.13718633 38.56468382 3.13504111 43.38145481 3.13037109 48.19824219 C3.12466754 54.38363937 3.12795825 60.56899321 3.13394356 66.75438881 C3.13754994 71.50001352 3.13641034 76.24562788 3.13381577 80.9912529 C3.13314704 83.27270894 3.13397302 85.55416592 3.13629532 87.83562088 C3.13882378 91.01755529 3.13497875 94.19941857 3.12939453 97.38134766 C3.13141876 98.33099899 3.13344299 99.28065033 3.13552856 100.25907898 C3.13270874 101.12270554 3.12988892 101.98633209 3.12698364 102.87612915 C3.12660662 103.62864771 3.12622959 104.38116627 3.12584114 105.15648842 C3 107 3 107 2 109 C1.34 109 0.68 109 0 109 C0 73.03 0 37.06 0 0 Z " fill="#D7EDF8" transform="translate(325,108)"/>
<path d="M0 0 C-0.89771879 2.92607799 -1.42449692 4.60694604 -3.99609375 6.36328125 C-11.20756824 9.16710253 -18.20838149 10.45036261 -25.76171875 8.1640625 C-28 7 -28 7 -29 4 C-26.80119906 1.80119906 -21.18489688 2.59697012 -18.078125 2.48242188 C-11.64002947 2.16880141 -6.49913521 -0.25486805 0 0 Z " fill="#0D0D0D" transform="translate(324,292)"/>
<path d="M0 0 C14.19 0 28.38 0 43 0 C43 0.66 43 1.32 43 2 C37.35883874 2.21698236 31.71747144 2.41385617 26.07495117 2.59204102 C24.15516358 2.65550909 22.23555006 2.72449015 20.31616211 2.79907227 C17.55870199 2.90526548 14.8012256 2.99168026 12.04296875 3.07421875 C11.18350143 3.11157639 10.32403412 3.14893402 9.43852234 3.18742371 C8.23761711 3.21779472 8.23761711 3.21779472 7.01245117 3.2487793 C6.3085173 3.27320602 5.60458344 3.29763275 4.87931824 3.32279968 C3 3 3 3 0 0 Z " fill="#DCEFFC" transform="translate(282,217)"/>
<path d="M0 0 C5.25014646 0.60860636 10.52623626 0.94134391 15.796875 1.32421875 C15.796875 1.65421875 15.796875 1.98421875 15.796875 2.32421875 C7.876875 2.81921875 7.876875 2.81921875 -0.203125 3.32421875 C-0.203125 4.31421875 -0.203125 5.30421875 -0.203125 6.32421875 C-3.57775215 5.77698192 -5.285475 5.26931875 -8.203125 3.32421875 C-8.203125 2.33421875 -8.203125 1.34421875 -8.203125 0.32421875 C-5.37922203 -1.08773273 -3.04386805 -0.38297033 0 0 Z " fill="#2C2C2C" transform="translate(296.203125,292.67578125)"/>
<path d="M0 0 C8.91 0 17.82 0 27 0 C27 0.33 27 0.66 27 1 C26.26362305 1.01981934 25.52724609 1.03963867 24.76855469 1.06005859 C21.42867944 1.15537828 18.08942361 1.26502996 14.75 1.375 C13.59113281 1.4059375 12.43226563 1.436875 11.23828125 1.46875 C10.12324219 1.50742187 9.00820313 1.54609375 7.859375 1.5859375 C6.83295898 1.6173584 5.80654297 1.6487793 4.74902344 1.68115234 C2.03132927 1.99636625 0.33075565 2.61032351 -2 4 C-1.34 2.68 -0.68 1.36 0 0 Z " fill="#DEDEDE" transform="translate(387,279)"/>
<path d="M0 0 C0.66 0.33 1.32 0.66 2 1 C1.071875 1.763125 0.14375 2.52625 -0.8125 3.3125 C-2.98276101 5.11848552 -5.05568065 6.9476629 -7 9 C-7.66 8.67 -8.32 8.34 -9 8 C-7.87811441 6.85111717 -6.75238316 5.70598863 -5.625 4.5625 C-4.99851562 3.92441406 -4.37203125 3.28632813 -3.7265625 2.62890625 C-2 1 -2 1 0 0 Z " fill="#DADADA" transform="translate(293,245)"/>
<path d="M0 0 C0.99 0.33 1.98 0.66 3 1 C2.67 1.99 2.34 2.98 2 4 C1.34 4 0.68 4 0 4 C-0.33 4.99 -0.66 5.98 -1 7 C-1.66 6.34 -2.32 5.68 -3 5 C-2.01 3.35 -1.02 1.7 0 0 Z " fill="#353535" transform="translate(497,246)"/>
</svg>
