<?xml version="1.0" encoding="UTF-8"?>
<svg version="1.1" xmlns="http://www.w3.org/2000/svg" width="624" height="624">
<path d="M0 0 C205.92 0 411.84 0 624 0 C624 205.92 624 411.84 624 624 C418.08 624 212.16 624 0 624 C0 418.08 0 212.16 0 0 Z " fill="#FEFDFD" transform="translate(0,0)"/>
<path d="M0 0 C1.12523071 0.01341431 1.12523071 0.01341431 2.27319336 0.02709961 C21.51536752 0.42655531 38.91780283 8.51484355 52.3125 22.328125 C57.82376697 28.93457964 62.78992838 36.56990044 63.75 45.25 C64.41 45.25 65.07 45.25 65.75 45.25 C65.86472656 44.36828125 65.97945312 43.4865625 66.09765625 42.578125 C68.06078575 32.56263797 74.95644514 24.48484389 82.75 18.25 C90.06298029 13.76931967 96.5695223 11.12345243 105.17538929 11.12695217 C106.25823037 11.12496112 107.34107145 11.12297007 108.4567259 11.12091869 C109.64057376 11.12383153 110.82442163 11.12674437 112.04414368 11.12974548 C113.93715305 11.12846385 113.93715305 11.12846385 115.86840504 11.12715632 C119.36880451 11.12492051 122.86917338 11.12892016 126.36956894 11.13393438 C130.14524911 11.13825179 133.92092755 11.13679154 137.6966095 11.1360321 C144.23740867 11.13550769 150.77819786 11.1386459 157.31899452 11.14426994 C166.77589478 11.15239608 176.23279022 11.15500131 185.68969359 11.15625793 C201.03279651 11.1584467 216.37589411 11.16510204 231.71899414 11.17456055 C246.62361627 11.1837392 261.52823695 11.19081782 276.43286133 11.19506836 C277.35154235 11.19533108 278.27022337 11.19559381 279.21674321 11.19586449 C283.82548397 11.19716953 288.43422475 11.19843323 293.04296553 11.19967639 C331.27864741 11.21004354 369.51432335 11.2276571 407.75 11.25 C406.48275287 13.82343728 405.21135716 16.39468077 403.9375 18.96484375 C403.58107422 19.68973999 403.22464844 20.41463623 402.85742188 21.16149902 C395.85695685 35.25475173 386.00286714 43.84644052 371.0625 49 C366.64044895 50.32241717 362.6595008 50.23727068 358.0625 50.1875 C352.56268986 50.37607752 352.56268986 50.37607752 348.48046875 53.73046875 C347.31927262 55.84054298 346.22794841 57.99047227 345.20703125 60.171875 C340.74820479 69.59159418 330.82443981 74.78393649 321.5 78.5 C317.1090029 80.06152102 313.07257646 80.51433159 308.4375 80.875 C303.58607838 81.38704107 303.58607838 81.38704107 299.87890625 84.2421875 C298.93869081 85.9521544 298.05090108 87.69174683 297.2109375 89.453125 C291.9048184 99.61136371 282.02131863 105.31650424 271.58340454 109.0184021 C260.95267141 112.2114994 250.12318548 111.62632153 239.140625 111.54296875 C236.96059462 111.53736436 234.78056043 111.53309825 232.6005249 111.53010559 C226.89922411 111.51872317 221.19815739 111.48931358 215.49694824 111.45599365 C209.66466436 111.42514955 203.83234217 111.41156976 198 111.39648438 C186.58323124 111.36443694 175.16663518 111.31332152 163.75 111.25 C163.75 116.2 163.75 121.15 163.75 126.25 C164.83418213 126.30534912 165.91836426 126.36069824 167.03540039 126.41772461 C171.08163134 126.62513561 175.12763451 126.83673521 179.17358398 127.04956055 C180.92026996 127.14086202 182.66701465 127.23104777 184.41381836 127.32006836 C186.93359612 127.44867977 189.45313115 127.58138455 191.97265625 127.71484375 C193.1324575 127.77272316 193.1324575 127.77272316 194.31568909 127.83177185 C197.63270484 128.01085961 200.85479877 128.26535019 204.14526367 128.74731445 C208.82542333 129.39996929 213.48563578 129.6069212 218.203125 129.828125 C288.91678796 133.43494933 288.91678796 133.43494933 312.75 153.25 C313.47832031 153.80558594 314.20664062 154.36117187 314.95703125 154.93359375 C341.49387386 176.40213849 354.21102812 213.92452997 366.01000977 244.69946289 C368.68674248 251.67051848 371.57451035 258.49097325 374.75 265.25 C375.5030542 265.08991455 376.2561084 264.9298291 377.03198242 264.76489258 C384.67009397 263.3179531 394.32348524 262.68633624 401.1328125 266.953125 C407.10422165 271.74179128 410.49571115 278.07994262 414.27294922 284.609375 C417.13210591 289.46303871 420.36803435 293.57254977 424.31640625 297.61328125 C425.75 299.25 425.75 299.25 425.75 301.25 C413.36871237 304.70524306 401.54367182 306.60583888 389.5625 300.91796875 C372.00601497 290.50599777 364.00630133 271.22692291 356.5 253.21875 C355.95472656 251.91695801 355.95472656 251.91695801 355.3984375 250.58886719 C354.51396207 248.47660021 353.63117922 246.36364367 352.75 244.25 C352.74786247 245.33541832 352.74786247 245.33541832 352.74568176 246.44276428 C352.7278041 253.28387219 352.68604991 260.12446946 352.61790943 266.96524906 C352.58371265 270.48171978 352.55854106 273.99775947 352.55444336 277.5144043 C352.5493206 281.56350669 352.50413861 285.611323 352.45703125 289.66015625 C352.4609639 290.91458023 352.46489655 292.16900421 352.46894836 293.46144104 C352.34779933 300.74339566 351.7966153 304.86624229 346.75 310.25 C339.52915888 316.111452 328.49911681 319.33362773 319.75 322.25 C355.72 322.58 391.69 322.91 428.75 323.25 C428.75 332.82 428.75 342.39 428.75 352.25 C231.08 352.25 33.41 352.25 -170.25 352.25 C-170.25 301.43 -170.25 250.61 -170.25 198.25 C-144.65 190.25 -144.65 190.25 -137.25 190.25 C-137.51554687 189.74210938 -137.78109375 189.23421875 -138.0546875 188.7109375 C-141.83268069 181.34798728 -144.67088956 174.67384527 -143.25 166.25 C-140.77004783 160.48775819 -136.96088082 156.24236444 -131.51953125 153.15234375 C-128.91876922 152.11830583 -126.52112167 151.74678258 -123.75 151.375 C-118.35795132 150.6175634 -115.61142689 148.61142689 -111.80859375 144.80859375 C-108.2388473 141.2388473 -103.79977164 141.73763859 -98.98901367 141.64746094 C-88.3058099 141.89835705 -79.36436278 147.75850978 -71.25 154.25 C-70.59 154.25 -69.93 154.25 -69.25 154.25 C-67.09393335 151.51531247 -65.37376313 148.4709272 -63.5625 145.5 C-63.03849609 144.675 -62.51449219 143.85 -61.97460938 143 C-61.48412109 142.20078125 -60.99363281 141.4015625 -60.48828125 140.578125 C-60.03493408 139.8449707 -59.58158691 139.11181641 -59.11450195 138.35644531 C-58.08096356 136.30391998 -58.08096356 136.30391998 -58.44995117 134.15917969 C-59.26852105 131.91555627 -59.26852105 131.91555627 -61.8125 129.375 C-64.25 126.25 -64.25 126.25 -64.875 123.1875 C-64.01366708 119.1392353 -62.51573753 117.75141598 -59.25 115.25 C-53.19998013 113.14498683 -47.25836138 112.65074298 -40.921875 112.21484375 C-35.39208673 111.71641045 -31.83935491 110.4227428 -27.25 107.25 C-25.10084215 104.02626323 -24.86713197 102.98296326 -25.25 99.25 C-27.05018693 97.06062129 -27.05018693 97.06062129 -29.47265625 96.88671875 C-33.23889354 97.37934894 -35.51919134 98.99134416 -38.6875 101.0625 C-51.81364425 109.57047307 -51.81364425 109.57047307 -60.25 108.25 C-65.10864228 106.50875248 -68.04421961 103.91912196 -70.25 99.25 C-70.44752003 95.92507952 -70.2488552 92.72958432 -70.0625 89.40625 C-70.27607084 85.8111409 -71.28429019 84.20602944 -73.25 81.25 C-74.09396655 76.79999456 -74.09167702 74.64409553 -71.73828125 70.74609375 C-70.36390609 68.89109231 -68.96218342 67.0561548 -67.5390625 65.23828125 C-62.3565397 58.47270114 -58.1474184 51.00013432 -54.125 43.5 C-51.91244169 39.37821799 -49.52718602 35.48242156 -46.87109375 31.6328125 C-45.67982167 29.88178607 -44.53217796 28.10087513 -43.41015625 26.3046875 C-33.69590705 10.95425015 -18.8024318 -0.25405807 0 0 Z " fill="#C4240E" transform="translate(183.25,68.75)"/>
<path d="M0 0 C0.79002303 -0.00256327 1.58004605 -0.00512655 2.39400917 -0.0077675 C5.02582882 -0.01268601 7.65706734 0.00375523 10.28883362 0.02018738 C12.18146755 0.02103407 14.07410248 0.02055769 15.96673584 0.01885986 C21.09434366 0.01800013 26.22174037 0.03562247 31.34929919 0.05658174 C36.7117879 0.0753521 42.0742816 0.07709927 47.4367981 0.08065796 C57.58682781 0.08997735 67.73676043 0.11458976 77.88674742 0.14470643 C89.4441127 0.17825368 101.00148264 0.19473728 112.5588845 0.20979273 C136.32902876 0.24113936 160.09908688 0.29389787 183.86915588 0.36076355 C180.36077854 7.79778756 173.55319076 12.54242122 166.10743713 15.6693573 C159.55938916 17.69205275 152.95735605 17.53060187 146.17237854 17.56608582 C145.00107391 17.57598541 143.82976929 17.58588501 142.62297058 17.59608459 C138.75974026 17.62761749 134.89649765 17.65242464 131.03321838 17.6771698 C128.35135993 17.69774641 125.669507 17.71869632 122.98765564 17.74014282 C116.65550476 17.78996266 110.32332919 17.834941 103.99113023 17.87816519 C96.7794909 17.92762936 89.56789597 17.98251331 82.35629964 18.03784478 C67.52729368 18.15150032 52.69824266 18.2581826 37.86915588 18.36076355 C36.54915588 21.66076355 35.22915588 24.96076355 33.86915588 28.36076355 C66.53915588 28.36076355 99.20915588 28.36076355 132.86915588 28.36076355 C130.10885867 35.2615066 125.58430895 40.20695133 118.93165588 43.67326355 C117.57933787 44.24019354 116.22498656 44.80228635 114.86915588 45.36076355 C113.09810486 46.13963928 113.09810486 46.13963928 111.29127502 46.93424988 C103.5549116 49.46294058 95.10729014 48.84442082 87.05274963 48.8724823 C85.22714036 48.88934779 83.40154257 48.90750052 81.57595825 48.92687988 C76.79703866 48.97418308 72.01816563 49.00411935 67.23908997 49.03031921 C62.35201323 49.06022452 57.46509662 49.10672039 52.57814026 49.15177917 C43.00856291 49.23758812 33.4389524 49.30503258 23.86915588 49.36076355 C22.54915588 52.33076355 21.22915588 55.30076355 19.86915588 58.36076355 C51.54915588 58.85576355 51.54915588 58.85576355 83.86915588 59.36076355 C78.36696189 68.53108687 72.06970721 73.82561065 61.86915588 77.36076355 C56.19106238 78.62505948 50.56707243 78.48771606 44.78321838 78.4584198 C43.72629791 78.45700485 42.66937744 78.4555899 41.58042908 78.45413208 C38.21830873 78.44855295 34.85625597 78.43600424 31.49415588 78.42326355 C29.2090006 78.41824586 26.92384426 78.41368342 24.63868713 78.40959167 C19.04882048 78.39859034 13.45899301 78.38187299 7.86915588 78.36076355 C7.66419495 78.98724792 7.45923401 79.6137323 7.24806213 80.25920105 C6.97864807 81.07646667 6.70923401 81.8937323 6.43165588 82.73576355 C6.16481995 83.54787292 5.89798401 84.3599823 5.62306213 85.19670105 C4.86915588 87.36076355 4.86915588 87.36076355 3.86915588 89.36076355 C17.39915588 89.36076355 30.92915588 89.36076355 44.86915588 89.36076355 C46.7166211 93.05569398 46.21109968 97.31960959 45.86915588 101.36076355 C44.20197707 106.09906124 42.01553543 108.56195735 37.86915588 111.36076355 C31.22562833 113.57527274 25.28097197 112.52954063 18.91212463 109.9193573 C16.46883449 109.25130665 15.21799006 109.45849739 12.86915588 110.36076355 C11.51607276 111.67405012 10.1804551 113.00575436 8.86915588 114.36076355 C8.20915588 114.36076355 7.54915588 114.36076355 6.86915588 114.36076355 C6.86915588 115.02076355 6.86915588 115.68076355 6.86915588 116.36076355 C7.56524963 116.47291199 8.26134338 116.58506042 8.97853088 116.7006073 C12.22339933 117.44166509 15.05592643 118.62472063 18.11915588 119.92326355 C26.44618326 123.15842621 32.23062461 123.25518093 40.63087463 120.40763855 C43.05975222 119.37050618 43.05975222 119.37050618 45.58009338 117.2709198 C49.85672756 114.78722133 52.9685254 114.86758648 57.80665588 115.04826355 C58.57944885 115.05793152 59.35224182 115.06759949 60.14845276 115.07756042 C63.41935943 115.14115371 66.53479011 115.3058849 69.76979065 115.83683777 C74.46957257 116.53336989 79.19313237 116.64160344 83.93556213 116.8274231 C88.73638717 117.01590509 93.53425059 117.25040089 98.33277893 117.48937893 C101.96680628 117.66778427 105.60001119 117.82865575 109.23634338 117.95231628 C112.77453993 118.07357312 116.30772231 118.24204502 119.84230042 118.44220161 C121.82773035 118.54226941 123.81543174 118.59345359 125.80274963 118.64358521 C134.64173365 119.19576595 134.64173365 119.19576595 138.20245361 122.57539368 C139.98564332 125.1007259 141.45009065 127.61811809 142.86915588 130.36076355 C143.6903952 131.6024375 144.5261038 132.83494652 145.38868713 134.04826355 C145.76565735 134.59667908 146.14262756 135.1450946 146.53102112 135.71012878 C160.66634226 155.98785131 177.88985075 165.04873993 201.83009338 169.5443573 C205.79012029 170.23520075 209.71319171 170.63162167 213.71827698 170.93815613 C221.94662756 171.61824075 221.94662756 171.61824075 224.79103088 173.90763855 C226.05665588 175.86076355 226.05665588 175.86076355 226.88127136 177.98121643 C227.78164062 180.35317544 227.78164062 180.35317544 229.11656189 182.28157043 C234.55859417 190.93161409 233.59329502 200.60191092 233.53321838 210.44670105 C233.53659094 212.39581097 233.54144722 214.34491884 233.54771423 216.29402161 C233.5550543 220.36058253 233.54446586 224.42659138 233.52101135 228.49308777 C233.49241094 233.70551219 233.50901666 238.91665566 233.53887367 244.12903404 C233.55692712 248.14566235 233.55119957 252.1619858 233.53823471 256.1786232 C233.5349012 258.10116859 233.53898586 260.02374172 233.55063248 261.94625473 C233.56332175 264.62732869 233.54399771 267.30631055 233.51612854 269.98722839 C233.52624969 270.78000183 233.53637085 271.57277527 233.54679871 272.38957214 C233.47225217 276.25720616 233.24430043 277.97344916 230.50698853 280.79956055 C227.68770475 282.46815552 224.94891615 283.73956761 221.88868713 284.9115448 C220.73247864 285.35981628 219.57627014 285.80808777 218.38502502 286.26994324 C217.16291321 286.73303894 215.94080139 287.19613464 214.68165588 287.67326355 C213.4189367 288.15726543 212.1564868 288.64197041 210.89430237 289.12736511 C208.38645437 290.09132202 205.8772796 291.05151703 203.36720276 292.00968933 C200.29534057 293.19615537 197.24300335 294.41768293 194.19728088 295.6693573 C192.9698114 296.16858704 192.9698114 296.16858704 191.71754456 296.67790222 C190.2372909 297.28198737 188.76059235 297.89488966 187.28834534 298.51823425 C184.47165019 299.65137948 182.1250012 300.35933225 179.07618713 300.37638855 C174.98978025 298.49591813 174.26080342 294.57041729 172.75978088 290.5756073 C171.57757079 286.30824366 171.07452373 282.49794651 172.86915588 278.36076355 C177.14583423 272.32907682 183.11974614 271.61544601 190.05665588 270.11076355 C191.68570862 269.72791199 191.68570862 269.72791199 193.34767151 269.33732605 C199.83772745 267.85611208 206.22818494 266.8274516 212.86915588 266.36076355 C212.53562139 262.25114212 212.18073713 258.14394389 211.80714417 254.0377655 C211.68329508 252.64470455 211.5649919 251.25113772 211.45265198 249.85710144 C210.78957475 241.68012693 209.75468247 234.67267492 205.86915588 227.36076355 C205.53915588 226.37076355 205.20915588 225.38076355 204.86915588 224.36076355 C196.7135718 220.0281095 186.43580745 219.79282336 177.43165588 218.92326355 C151.85063757 216.28977692 129.25211975 212.11391316 106.84181213 199.0209198 C86.13615411 186.92466737 67.26898031 184.26751773 43.86915588 190.36076355 C33.89563385 193.03837979 23.93727281 195.81176261 14.25587463 199.4193573 C5.99009725 202.47793867 -2.54830393 204.40943809 -11.13084412 206.36076355 C-12.76473083 206.73781433 -12.76473083 206.73781433 -14.43162537 207.1224823 C-25.78959112 209.28956372 -37.61920714 208.53569199 -49.13084412 208.36076355 C-51.96103413 220.14901035 -53.51918763 231.46399529 -53.50584412 243.61076355 C-53.50713318 244.7397406 -53.50842224 245.86871765 -53.50975037 247.03190613 C-53.44430899 252.03036315 -53.19410186 256.62924951 -51.96678162 261.48576355 C-51.69092224 262.76451355 -51.41506287 264.04326355 -51.13084412 265.36076355 C-53.38084412 268.11076355 -53.38084412 268.11076355 -54.82615662 269.4896698 C-57.26067744 272.98109338 -57.18422866 277.2910611 -57.57615662 281.4349823 C-58.17522805 284.59487316 -58.57702644 285.5071862 -61.13084412 287.36076355 C-64.13329213 289.11575533 -66.29055397 289.60080849 -69.75584412 289.5990448 C-70.62725037 289.61515808 -71.49865662 289.63127136 -72.39646912 289.64787292 C-74.21931464 289.66479935 -76.04230663 289.67000833 -77.86521912 289.66349792 C-83.28474343 289.66044311 -83.28474343 289.66044311 -87.50193787 292.7631073 C-88.30824646 294.04894714 -88.30824646 294.04894714 -89.13084412 295.36076355 C-91.16600037 296.68888855 -91.16600037 296.68888855 -93.19334412 297.61076355 C-93.86494568 297.9252948 -94.53654724 298.23982605 -95.22850037 298.56388855 C-98.87411318 300.09100357 -101.76441241 300.52210555 -105.69334412 300.54826355 C-106.66400818 300.56244324 -107.63467224 300.57662292 -108.63475037 300.5912323 C-111.13084412 300.36076355 -111.13084412 300.36076355 -113.13084412 298.36076355 C-115.41149267 291.26541249 -116.78911982 283.94263908 -113.56834412 276.98576355 C-107.51773005 270.46971763 -102.73674341 270.11621317 -94.16990662 269.6927948 C-89.96829982 269.23375036 -88.17703512 268.24229558 -85.13084412 265.36076355 C-83.05651894 262.0927021 -82.89322614 259.52958601 -82.92308044 255.69694519 C-82.9258046 254.55798294 -82.92852875 253.41902069 -82.93133545 252.24554443 C-82.94174362 251.0164183 -82.95215179 249.78729218 -82.96287537 248.5209198 C-82.95719365 245.90437971 -82.94998251 243.28784258 -82.94139099 240.67131042 C-82.93479539 236.55705626 -82.94038055 232.44338529 -82.9763031 228.32926941 C-82.99875869 225.6457333 -83.00223313 222.96339529 -82.98574829 220.27981567 C-82.97092076 217.76205379 -82.98240555 215.24394525 -83.02508545 212.72650146 C-82.92542571 203.80274015 -80.76426555 196.43896147 -75.13084412 189.36076355 C-72.09654831 187.64786215 -69.24705074 186.54451335 -65.94334412 185.4584198 C-60.60640248 183.37553008 -58.30978159 179.35675841 -55.50193787 174.60295105 C-52.85318433 168.33951677 -53.05250906 160.37663204 -54.81053162 153.82951355 C-55.65172916 151.76718874 -55.65172916 151.76718874 -57.13084412 149.36076355 C-56.40639099 148.86447449 -55.68193787 148.36818542 -54.93553162 147.8568573 C-45.87868647 141.49291411 -38.67956685 135.5523617 -36.13084412 124.36076355 C-34.91753725 114.6494457 -35.0506926 105.43039819 -41.13084412 97.36076355 C-42.65535125 95.8930418 -44.22095057 94.46695444 -45.82225037 93.0834198 C-46.62992859 92.3809613 -47.43760681 91.67850281 -48.26976013 90.95475769 C-48.88391785 90.42873962 -49.49807556 89.90272156 -50.13084412 89.36076355 C-49.91992126 88.6330072 -49.70899841 87.90525085 -49.49168396 87.15544128 C-45.83925573 74.52850342 -42.21534582 61.90497847 -38.94334412 49.17326355 C-38.22928909 46.42304895 -37.51363927 43.67325753 -36.79685974 40.92375183 C-36.36222972 39.251191 -35.93107737 37.57772148 -35.50389099 35.90324402 C-32.04377158 22.46607613 -27.61058305 10.81619201 -15.13084412 3.36076355 C-9.95953536 0.78138016 -5.80335559 -0.06978768 0 0 Z " fill="#FEFDFD" transform="translate(291.13084411621094,90.63923645019531)"/>
<path d="M0 0 C0.66 0 1.32 0 2 0 C2 0.66 2 1.32 2 2 C2.87011719 2.35964844 2.87011719 2.35964844 3.7578125 2.7265625 C12.65458361 7.7794325 17.92082833 20.02594166 21.140625 29.27734375 C25.46899213 48.0270432 19.52679213 66.54472214 13.19897461 84.04663086 C12.89999268 84.89362549 12.60101074 85.74062012 12.29296875 86.61328125 C12.0199292 87.36391846 11.74688965 88.11455566 11.46557617 88.88793945 C10.92855922 91.32408714 11.1097701 92.68316348 12 95 C13.90208 96.57158902 13.90208 96.57158902 16.25 97.875 C20.98644209 100.84658947 24.45546614 103.91093228 27 109 C27.67061706 116.30014573 28.23084729 123.22295899 23.6015625 129.26171875 C23.07304687 129.83535156 22.54453125 130.40898437 22 131 C21.43023437 131.62519531 20.86046875 132.25039062 20.2734375 132.89453125 C12.36977374 140.6193055 2.7428037 142.58441765 -8 143 C-8 143.66 -8 144.32 -8 145 C-7.27039063 145.26167969 -6.54078125 145.52335938 -5.7890625 145.79296875 C-0.39581748 148.12702017 4.22247855 151.95315711 8.0625 156.375 C9.81470539 161.28117511 9.8719667 166.03807493 7.75 170.8125 C4.18342458 175.27071927 1.69584583 177.65980098 -4 179 C-6.33212027 179.07522969 -8.6685311 179.09325876 -11 179 C-11.15855469 179.68964844 -11.31710938 180.37929688 -11.48046875 181.08984375 C-13.77488553 190.33089257 -16.6594853 198.64948114 -25 204 C-29.73266466 205.85256445 -33.90098147 207 -39 207 C-38.67 195.45 -38.34 183.9 -38 172 C-38.66 172 -39.32 172 -40 172 C-40.37511719 172.86818359 -40.37511719 172.86818359 -40.7578125 173.75390625 C-45.35096732 182.05913901 -54.3450337 186.19152419 -63 189 C-63.66 189 -64.32 189 -65 189 C-65 184.71 -65 180.42 -65 176 C-72.56531772 174.10576729 -80.1311389 172.21369867 -87.70098877 170.33764648 C-90.74062337 169.58408229 -93.77975337 168.82849385 -96.81884766 168.07275391 C-98.35965547 167.69008027 -99.90067246 167.30824788 -101.44189453 166.92724609 C-103.73528615 166.36007364 -106.02797232 165.79015643 -108.3203125 165.21875 C-109.05936829 165.03513916 -109.79842407 164.85152832 -110.55987549 164.66235352 C-115.28989017 163.47285861 -119.94920023 162.13170858 -124.6171875 160.71875 C-134.29941902 157.93739493 -141.13125306 159.33083809 -150.55273438 162.31054688 C-158.21021144 164.61623335 -158.21021144 164.61623335 -162 163 C-165.25246234 159.32993756 -167.29597347 154.64408168 -167.6875 149.75 C-166.99020115 145.94655173 -166.84953923 145.39877565 -164.125 143.0625 C-159.55063868 140.04342153 -157.37611064 139.8874899 -151.875 139.9375 C-150.59367187 139.94652344 -149.31234375 139.95554688 -147.9921875 139.96484375 C-146.51105469 139.98224609 -146.51105469 139.98224609 -145 140 C-144.896875 139.2575 -144.79375 138.515 -144.6875 137.75 C-143.93104721 134.72418883 -143.22758638 133.17808446 -141 131 C-133.83569695 129.40271276 -127.13532946 131.28593449 -121 135 C-111.06961687 141.62584685 -103.59900586 150.46570023 -98 161 C-98 161.99 -98 162.98 -98 164 C-97.34 164 -96.68 164 -96 164 C-95.731875 163.443125 -95.46375 162.88625 -95.1875 162.3125 C-94 160 -94 160 -92.25 157.5625 C-90.71035897 155.08829747 -90.71035897 155.08829747 -91.5625 152.5625 C-93.02225515 149.85142627 -93.02225515 149.85142627 -95.1875 146.9375 C-97 144 -97 144 -96.78271484 142.16894531 C-93.44084501 132.90844262 -87.99422616 122.95672763 -81 116 C-76.30847167 113.89679719 -71.79866938 114.83296547 -66.859375 115.52734375 C-57.08129544 116.89415093 -46.35688706 111.87396885 -38.25 106.6875 C-32.29207923 102.04443071 -27.46925915 95.49322167 -26 88 C-25.4743908 80.45865064 -26.31704593 73.35501536 -27.53515625 65.921875 C-28.09820583 62.38270621 -28.52933935 59.55413561 -28 56 C-26.125 53.5625 -26.125 53.5625 -23 52 C-19.63770865 51.68687058 -16.36535935 51.76475158 -13 52 C-13.309375 50.906875 -13.61875 49.81375 -13.9375 48.6875 C-16.46618029 38.1606976 -16.46618029 38.1606976 -16 33 C-13.4375 30.375 -13.4375 30.375 -11.7578125 29.29296875 C-6.27135146 25.25737185 -2.5573651 17.53163574 -1 11 C-0.50467478 7.3384783 -0.19665264 3.68893219 0 0 Z " fill="#FEFDFD" transform="translate(218,91)"/>
<path d="M0 0 C0.92466064 0.22365234 1.84932129 0.44730469 2.80200195 0.67773438 C16.60087586 4.0380013 30.25105989 7.88571108 43.9375 11.6875 C43.9375 46.6675 43.9375 81.6475 43.9375 117.6875 C33.81117569 116.56235285 33.81117569 116.56235285 29.80078125 115.48828125 C28.90447998 115.25125488 28.00817871 115.01422852 27.0847168 114.77001953 C25.68153198 114.38885986 25.68153198 114.38885986 24.25 114 C23.2597583 113.73815918 22.2695166 113.47631836 21.24926758 113.20654297 C16.11659507 111.84265009 11.0016214 110.42734133 5.8984375 108.95703125 C4.92865967 108.68141357 3.95888184 108.4057959 2.9597168 108.12182617 C1.12705435 107.59859165 -0.70251144 107.06433033 -2.52807617 106.5168457 C-11.29371518 104.01896119 -18.9542759 103.90382542 -27.6875 106.6875 C-35.99035516 109.15533947 -44.34929854 111.34397096 -52.74969482 113.45043945 C-54.20406255 113.81576591 -55.65788577 114.18326721 -57.11114502 114.55297852 C-59.17448869 115.07786056 -61.23931897 115.59643211 -63.3046875 116.11328125 C-64.5097998 116.41661377 -65.71491211 116.71994629 -66.95654297 117.0324707 C-70.0625 117.6875 -70.0625 117.6875 -74.0625 117.6875 C-74.0625 82.7075 -74.0625 47.7275 -74.0625 11.6875 C-63.8325 9.0475 -53.6025 6.4075 -43.0625 3.6875 C-14.77119194 -3.61776734 -14.77119194 -3.61776734 0 0 Z " fill="#FDF9F9" transform="translate(98.0625,263.3125)"/>
<path d="M0 0 C1.98 0 3.96 0 6 0 C9.17869939 6.06992066 11.69929614 12.20715429 14.0546875 18.63671875 C14.622658 20.16931839 14.622658 20.16931839 15.20210266 21.73287964 C16.43046879 25.04959816 17.65274991 28.36852337 18.875 31.6875 C20.57484322 36.28458788 22.27764036 40.88057968 23.98046875 45.4765625 C24.6162661 47.19453789 24.6162661 47.19453789 25.26490784 48.94721985 C27.93375463 56.15108557 30.631471 63.34321847 33.36328125 70.5234375 C33.69376465 71.39243179 34.02424805 72.26142609 34.36474609 73.15675354 C35.60732715 76.42116837 36.85120665 79.6850621 38.10125732 82.94662476 C38.93860604 85.1313983 39.77228382 87.31754226 40.60546875 89.50390625 C41.07106201 90.71892822 41.53665527 91.9339502 42.01635742 93.18579102 C43 96 43 96 43 98 C46.3 98 49.6 98 53 98 C53 67.97 53 37.94 53 7 C49.04 7 45.08 7 41 7 C41 5.68 41 4.36 41 3 C54.53 3 68.06 3 82 3 C82 4.32 82 5.64 82 7 C78.04 7 74.08 7 70 7 C70 37.03 70 67.06 70 98 C85 97.16666667 85 97.16666667 93 92 C94.54504865 90.13017506 94.54504865 90.13017506 95.3125 88.0625 C95.59738281 87.41410156 95.88226562 86.76570312 96.17578125 86.09765625 C96.44777344 85.40542969 96.71976563 84.71320313 97 84 C97.34160156 83.23171875 97.68320312 82.4634375 98.03515625 81.671875 C99.17307393 78.52071834 99.65618571 75.50268676 100.125 72.1875 C100.37636719 70.44533203 100.37636719 70.44533203 100.6328125 68.66796875 C100.75398437 67.78753906 100.87515625 66.90710938 101 66 C102.32 66 103.64 66 105 66 C105 78.21 105 90.42 105 103 C74.97 103 44.94 103 14 103 C14 101.35 14 99.7 14 98 C17.63 97.67 21.26 97.34 25 97 C24.3503125 95.36289062 23.700625 93.72578125 23.03125 92.0390625 C22.18732212 89.90111187 21.3435818 87.7630872 20.5 85.625 C19.85611328 84.00464844 19.85611328 84.00464844 19.19921875 82.3515625 C18.79316406 81.3203125 18.38710938 80.2890625 17.96875 79.2265625 C17.40317383 77.79691162 17.40317383 77.79691162 16.82617188 76.33837891 C16 74 16 74 16 72 C4.78 72.33 -6.44 72.66 -18 73 C-23.31622777 86.31345191 -23.31622777 86.31345191 -23 94 C-22.04451019 95.95625978 -22.04451019 95.95625978 -20 97 C-16.38976901 97.73041853 -16.38976901 97.73041853 -13 98 C-13 99.65 -13 101.3 -13 103 C-17.55312342 103.12447553 -22.10523654 103.21474409 -26.65966797 103.2746582 C-28.20574212 103.29965732 -29.75169982 103.33366902 -31.29736328 103.37719727 C-46.78983517 103.80226509 -46.78983517 103.80226509 -52.65844727 99.33300781 C-57.37318982 94.64829546 -58.10346582 89.7330089 -58.17578125 83.3515625 C-58.21155273 81.71960938 -58.21155273 81.71960938 -58.24804688 80.0546875 C-58.29086527 77.77622969 -58.32219731 75.49752582 -58.34179688 73.21875 C-58.50228651 66.90366937 -58.64458638 62.74414817 -63 58 C-66.23624676 55.84250216 -67.34394066 55.71639512 -71.10546875 55.5859375 C-71.99129639 55.55032715 -72.87712402 55.5147168 -73.78979492 55.47802734 C-75.47165894 55.42702881 -75.47165894 55.42702881 -77.1875 55.375 C-80.755625 55.25125 -84.32375 55.1275 -88 55 C-88 69.19 -88 83.38 -88 98 C-83.71 98 -79.42 98 -75 98 C-75 99.65 -75 101.3 -75 103 C-88.86 103 -102.72 103 -117 103 C-117 101.35 -117 99.7 -117 98 C-112.71 98 -108.42 98 -104 98 C-104 68.3 -104 38.6 -104 8 C-107.96 8 -111.92 8 -116 8 C-116.33 6.35 -116.66 4.7 -117 3 C-109.74089539 2.93010643 -102.48186482 2.87699093 -95.22249031 2.84456348 C-91.85067884 2.82899011 -88.47909969 2.80790718 -85.10742188 2.77368164 C-81.21999098 2.73707548 -77.332885 2.72022214 -73.4453125 2.70703125 C-71.65252365 2.68380547 -71.65252365 2.68380547 -69.82351685 2.66011047 C-60.24986947 2.65820827 -51.64804103 3.80872869 -44 10 C-38.80997107 15.62253134 -37.52622071 20.6567631 -37.6875 28.15625 C-38.50014665 35.55133454 -42.4381052 42.12225627 -48 47 C-51.50999994 49.19125233 -55.08309873 50.69436624 -59 52 C-58.33613281 52.21914063 -57.67226563 52.43828125 -56.98828125 52.6640625 C-50.01799802 55.1672591 -46.2304687 57.4325431 -42.90087891 64.25073242 C-41.80273598 67.60200276 -41.67593524 70.52586962 -41.5859375 74.05078125 C-41.56657135 74.70958786 -41.5472052 75.36839447 -41.5272522 76.04716492 C-41.46784059 78.13548143 -41.42122709 80.22385424 -41.375 82.3125 C-41.33678468 83.73504905 -41.29773091 85.15757584 -41.2578125 86.58007812 C-41.16217204 90.05318074 -41.07800027 93.52645132 -41 97 C-37.62176584 97.22267708 -37.62176584 97.22267708 -34 96 C-32.0026918 93.26473095 -31.06771007 90.19207185 -30 87 C-29.50885208 85.65565384 -29.50885208 85.65565384 -29.00778198 84.28414917 C-27.91655985 81.27231925 -26.87445376 78.24656908 -25.83984375 75.21484375 C-25.45299408 74.0917984 -25.06614441 72.96875305 -24.66757202 71.81167603 C-23.42042318 68.18824142 -22.17889937 64.56290794 -20.9375 60.9375 C-20.08328989 58.45226762 -19.22871511 55.96716056 -18.3737793 53.48217773 C-16.2882505 47.41775309 -14.20701861 41.35186462 -12.1270752 35.28552246 C-10.52267756 30.60856347 -8.9141026 25.93304683 -7.3046875 21.2578125 C-4.8662224 14.17309722 -2.43113069 7.08723621 0 0 Z " fill="#C52812" transform="translate(460,451)"/>
<path d="M0 0 C1.2199707 1.58447266 1.2199707 1.58447266 2.42578125 3.6640625 C3.11667847 4.83642456 3.11667847 4.83642456 3.8215332 6.0324707 C4.55956177 7.31577271 4.55956177 7.31577271 5.3125 8.625 C6.37327474 10.44501706 7.43585144 12.26398477 8.5 14.08203125 C9.06203125 15.04318848 9.6240625 16.0043457 10.203125 16.99462891 C12.0600012 20.10035527 13.98654566 23.15180894 15.9375 26.19921875 C16.90562622 27.72844971 16.90562622 27.72844971 17.89331055 29.28857422 C19.15382185 31.27466925 20.4283561 33.25194686 21.71801758 35.21923828 C25.95936922 41.97277055 25.95936922 41.97277055 26.15234375 46.8515625 C24.8509574 50.40721471 23.3962828 52.36802331 20.75 55.0625 C18.07303867 57.82813039 15.59036405 60.48037251 13.375 63.625 C11 66 11 66 7.77734375 66.2421875 C4.07213225 66.00462482 0.78712236 65.38859249 -2.8125 64.5 C-13.05493186 62.23474258 -20.55146254 62.03828969 -30 67 C-36.19694836 70.97540083 -38.44762933 75.2179865 -41 82 C-41.33 87.94 -41.66 93.88 -42 100 C-68.07 100 -94.14 100 -121 100 C-121 99.67 -121 99.34 -121 99 C-120.2265625 98.91363281 -119.453125 98.82726562 -118.65625 98.73828125 C-110.85697407 97.6861512 -104.84094561 96.06635322 -99.3359375 90.23828125 C-97.59824702 87.32688754 -97.4792179 84.92697976 -97.1875 81.5625 C-96.21903679 74.37166064 -96.21903679 74.37166064 -93.1875 71.75 C-90.26491285 70.14544235 -88.22617961 69.54773847 -85 69 C-85.42152344 68.18015625 -85.84304687 67.3603125 -86.27734375 66.515625 C-86.82519531 65.43796875 -87.37304688 64.3603125 -87.9375 63.25 C-88.48277344 62.18265625 -89.02804688 61.1153125 -89.58984375 60.015625 C-92.17893486 54.4788429 -92.19252842 49.58654781 -92.1875 43.5625 C-92.18737915 42.22856201 -92.18737915 42.22856201 -92.18725586 40.86767578 C-92.04308484 24.08616969 -92.04308484 24.08616969 -89 18 C-87.00073242 17.65283203 -87.00073242 17.65283203 -84.35546875 17.5078125 C-83.37900391 17.44513184 -82.40253906 17.38245117 -81.39648438 17.31787109 C-80.33751953 17.25422363 -79.27855469 17.19057617 -78.1875 17.125 C-60.07621819 15.78729579 -43.96653522 11.8950584 -26.82421875 5.9765625 C-21.48616137 4.14157768 -16.11923773 2.47197428 -10.6875 0.9375 C-9.94677246 0.7216626 -9.20604492 0.5058252 -8.44287109 0.28344727 C-3.3635383 -1.12117943 -3.3635383 -1.12117943 0 0 Z " fill="#FEFCFC" transform="translate(340,292)"/>
<path d="M0 0 C22.13540028 -3.44923422 22.13540028 -3.44923422 29.47705078 1.75634766 C34.04502641 6.77949523 37.09389675 12.76293873 40.21923828 18.74902344 C43.25722507 24.29520278 46.93898459 29.38808738 50.5625 34.5625 C58.14598516 45.63815223 65.56471003 56.82464554 73 68 C73.11581577 60.35936298 73.20467513 52.71881687 73.25906086 45.07750225 C73.28516304 41.52929892 73.32056949 37.98169576 73.37719727 34.43383789 C73.44188405 30.35557272 73.46617492 26.27793854 73.48828125 22.19921875 C73.51408768 20.92414963 73.5398941 19.64908051 73.56648254 18.33537292 C73.5668602 17.15437515 73.56723785 15.97337738 73.56762695 14.7565918 C73.57873001 13.71512497 73.58983307 12.67365814 73.60127258 11.60063171 C73.2402139 8.78329222 73.2402139 8.78329222 70.61808777 7.17219543 C68.00620857 6.00277976 66.02609394 5.52433537 63.1875 5.3125 C62.39730469 5.24675781 61.60710937 5.18101562 60.79296875 5.11328125 C59.90544922 5.05720703 59.90544922 5.05720703 59 5 C59 3.35 59 1.7 59 0 C92.99 0 126.98 0 162 0 C162 11.55 162 23.1 162 35 C161.01 35 160.02 35 159 35 C158.65388672 33.40671875 158.65388672 33.40671875 158.30078125 31.78125 C155.40627137 18.64203763 155.40627137 18.64203763 146.9375 8.5625 C142.89485661 6.41215777 139.56183206 5.87763917 135.015625 5.68359375 C134.17290039 5.64548584 133.33017578 5.60737793 132.46191406 5.56811523 C131.40198242 5.52501221 130.34205078 5.48190918 129.25 5.4375 C124.17625 5.2209375 124.17625 5.2209375 119 5 C119 18.53 119 32.06 119 46 C127.64587044 45.80119181 127.64587044 45.80119181 134 42 C137.12150211 36.96646669 139.52819443 31.97620385 140 26 C141.32 26 142.64 26 144 26 C144 41.18 144 56.36 144 72 C142.68 72 141.36 72 140 72 C139.72736328 70.78763672 139.72736328 70.78763672 139.44921875 69.55078125 C139.07216797 67.94783203 139.07216797 67.94783203 138.6875 66.3125 C138.44386719 65.25675781 138.20023438 64.20101562 137.94921875 63.11328125 C136.61114931 58.72463375 135.22659196 55.81772797 131.375 53.25 C127.18089268 51.5420638 127.18089268 51.5420638 119 51 C119 65.52 119 80.04 119 95 C136.7958128 95.5045442 136.7958128 95.5045442 151.4296875 87.640625 C153.17017697 84.71383176 154.18451506 82.0219392 155.125 78.75 C155.45242188 77.61691406 155.77984375 76.48382812 156.1171875 75.31640625 C157.20530509 71.22874327 158.15695577 67.14496744 159 63 C159.99 63 160.98 63 162 63 C162 75.21 162 87.42 162 100 C138.24 100 114.48 100 90 100 C90 98.35 90 96.7 90 95 C94.29 95 98.58 95 103 95 C103 65.3 103 35.6 103 5 C85.30076476 3.80728227 85.30076476 3.80728227 80 10 C79.59725027 13.0248148 79.43570161 15.69016167 79.45410156 18.71582031 C79.43859505 20.0334285 79.43859505 20.0334285 79.42277527 21.37765503 C79.39330262 24.27799782 79.39184715 27.1776441 79.390625 30.078125 C79.37564637 32.09024388 79.3589199 34.10235046 79.34051514 36.11444092 C79.29679387 41.40804605 79.27683189 46.70148532 79.26177979 51.99523926 C79.24222597 57.3979678 79.20025401 62.80051678 79.16015625 68.203125 C79.08480234 78.80202801 79.03454219 89.40089093 79 100 C76.01037694 98.58351702 74.35437474 97.53604675 72.4765625 94.7890625 C71.79255371 93.80365479 71.79255371 93.80365479 71.09472656 92.79833984 C70.6097168 92.0811377 70.12470703 91.36393555 69.625 90.625 C68.54953451 89.06767011 67.47401139 87.51038002 66.3984375 85.953125 C65.83995117 85.13779297 65.28146484 84.32246094 64.70605469 83.48242188 C62.48242041 80.24688762 60.22643735 77.03467768 57.96923828 73.82250977 C55.60494542 70.45669949 53.24979245 67.08453622 50.89453125 63.71240234 C49.59034153 61.84519258 48.28562348 59.97835177 46.98046875 58.11181641 C44.90187687 55.13827524 42.82566747 52.16308309 40.75 49.1875 C40.12512695 48.29401855 39.50025391 47.40053711 38.85644531 46.47998047 C33.45631405 38.72908784 28.22036987 30.87248281 23 23 C22.88413604 31.66651936 22.79530073 40.33277205 22.74093914 48.999897 C22.71484769 53.02446096 22.67945943 57.04849497 22.62280273 61.07275391 C22.56846448 64.9566544 22.53857606 68.84004529 22.52561378 72.72429657 C22.51637694 74.20593031 22.49833889 75.68753624 22.47134972 77.16895294 C22.435031 79.2450835 22.43005519 81.31911056 22.43237305 83.39550781 C22.42126999 84.57687317 22.41016693 85.75823853 22.39872742 86.97540283 C22.74396212 90.18641456 22.74396212 90.18641456 25.38191223 92.36102295 C27.96268355 93.97663913 29.83807957 94.71726798 32.8125 95.25 C33.60269531 95.39953125 34.39289063 95.5490625 35.20703125 95.703125 C35.79871094 95.80109375 36.39039063 95.8990625 37 96 C37 97.32 37 98.64 37 100 C25.45 100 13.9 100 2 100 C2 98.68 2 97.36 2 96 C2.59167969 95.90203125 3.18335938 95.8040625 3.79296875 95.703125 C4.58316406 95.55359375 5.37335938 95.4040625 6.1875 95.25 C7.35345703 95.04117188 7.35345703 95.04117188 8.54296875 94.828125 C11.81621533 93.7249004 13.57198593 92.48143128 16 90 C16.50005562 87.18532418 16.67565003 84.97089323 16.63110352 82.15795898 C16.63825882 81.37215454 16.64541412 80.5863501 16.65278625 79.7767334 C16.66967805 77.18259322 16.65027118 74.59017993 16.62890625 71.99609375 C16.62973483 70.1929561 16.63219379 68.38981853 16.63621521 66.58668518 C16.63907341 62.80959308 16.62436863 59.03309391 16.59692383 55.25610352 C16.56281629 50.41120349 16.56886698 45.56736208 16.5875864 40.72241116 C16.5981465 37.00005749 16.58922807 33.27795087 16.57420158 29.55562019 C16.56901365 27.76902055 16.56950897 25.98239517 16.57574654 24.19579887 C16.5811879 21.70084869 16.56086116 19.207423 16.53344727 16.71264648 C16.53997314 15.97230667 16.54649902 15.23196686 16.55322266 14.4691925 C16.49238021 11.21827468 16.43754928 9.46249833 14.15513611 7.04994202 C11.31442531 5.66600083 8.89653412 5.48350729 5.75 5.3125 C4.67234375 5.24675781 3.5946875 5.18101562 2.484375 5.11328125 C1.66453125 5.07589844 0.8446875 5.03851563 0 5 C0 3.35 0 1.7 0 0 Z " fill="#C62914" transform="translate(175,454)"/>
<path d="M0 0 C0.5878125 0.29132813 1.175625 0.58265625 1.78125 0.8828125 C24.61797225 11.31683215 52.06737087 15.16371603 76.99609375 15.62890625 C80.4356663 16.05382093 82.27295333 16.8789637 85 19 C89.36598467 25.50879923 88.14373848 35.4936572 88 43 C82.99164433 44.40064184 77.98748124 45.78589904 72.91796875 46.94921875 C72.21800781 47.11325195 71.51804687 47.27728516 70.796875 47.44628906 C69.42026482 47.76686078 68.0413816 48.0778658 66.66015625 48.37792969 C61.23226297 49.65651212 56.90821717 51.6385246 53.35546875 56.03515625 C52.97003906 56.70417969 52.58460938 57.37320313 52.1875 58.0625 C51.78917969 58.73410156 51.39085937 59.40570313 50.98046875 60.09765625 C48.10849031 65.66998095 48.00855895 71.88713488 49.89453125 77.80859375 C50.6064849 79.54193674 51.34796484 81.26358951 52.125 82.96875 C53 85 53 85 53 87 C25.94 87 -1.12 87 -29 87 C-29 86.34 -29 85.68 -29 85 C-28.34 85 -27.68 85 -27 85 C-26.7321167 84.40541992 -26.4642334 83.81083984 -26.18823242 83.19824219 C-24.98789327 80.97760243 -23.79297002 79.5756393 -21.98828125 77.828125 C-21.39885742 77.25030273 -20.80943359 76.67248047 -20.20214844 76.07714844 C-19.57856445 75.47418945 -18.95498047 74.87123047 -18.3125 74.25 C-13.924329 69.94165424 -9.66933907 65.62987316 -5.7109375 60.91796875 C-3.55328353 58.4992288 -1.21588445 56.30384537 1.125 54.0625 C5.48062736 49.77316834 8.43895496 45.52709255 11 40 C11.495 39.01 11.495 39.01 12 38 C14.44672908 26.699643 6.6944301 15.26735143 1.734375 5.5703125 C0 2 0 2 0 0 Z " fill="#FEFCFC" transform="translate(404,305)"/>
<path d="M0 0 C1.23169922 0.24556641 1.23169922 0.24556641 2.48828125 0.49609375 C6.82088901 1.65978354 9.28997557 3.04167626 11.98828125 6.68359375 C13.73805533 9.87521065 15.31048155 13.07272687 16.80761719 16.38720703 C18.21338853 19.46758477 19.68850064 22.51104804 21.1640625 25.55859375 C22.27845932 27.89207611 23.39043061 30.22671834 24.5 32.5625 C25.04124512 33.69252441 25.58249023 34.82254883 26.14013672 35.98681641 C26.89061279 37.60402588 26.89061279 37.60402588 27.65625 39.25390625 C28.10806641 40.21627197 28.55988281 41.1786377 29.02539062 42.17016602 C30.11262242 45.32700563 30.2825177 47.68300098 30 51 C27.49917552 55.79324693 23.92035945 59.19000959 20.06640625 62.9375 C18.15035482 64.84992941 16.38086065 66.81611849 14.625 68.875 C11.88378551 72.06682509 8.99314112 75.04302977 6 78 C2.42228092 81.53454902 -0.93647699 85.15706492 -4.19921875 88.98046875 C-7.0459626 92.17302096 -10.11486586 95.13547967 -13.1796875 98.1171875 C-15.06383898 99.87753339 -15.06383898 99.87753339 -16 102 C-23.10244999 102.02526787 -30.20488848 102.04283201 -37.30737305 102.05493164 C-39.72567172 102.05997349 -42.14396733 102.06680678 -44.56225586 102.07543945 C-48.02979283 102.08751157 -51.49728966 102.09322963 -54.96484375 102.09765625 C-56.05337143 102.10281754 -57.14189911 102.10797882 -58.26341248 102.11329651 C-59.76485558 102.11340981 -59.76485558 102.11340981 -61.29663086 102.11352539 C-62.62566689 102.11685631 -62.62566689 102.11685631 -63.98155212 102.12025452 C-66 102 -66 102 -67 101 C-67.18153617 98.58646168 -67.27814571 96.22875181 -67.3125 93.8125 C-67.34988281 92.49894531 -67.38726562 91.18539062 -67.42578125 89.83203125 C-66.81609629 84.34486659 -64.43814255 81.4012671 -60.5625 77.625 C-52.76247121 74.06709213 -44.32871328 75.80188266 -36.1875 77.5 C-34.93066406 77.76167969 -33.67382812 78.02335937 -32.37890625 78.29296875 C-30.44605721 78.69741462 -28.51492652 79.11085148 -26.58984375 79.55078125 C-24.33363191 79.96650502 -24.33363191 79.96650502 -21 79 C-17.57170845 76.0056694 -14.85001984 72.53479618 -12 69 C-10.38211674 67.26417279 -8.7573144 65.53476365 -7.125 63.8125 C-1.70668981 57.7322671 0.48326747 52.9946153 0.38647461 44.75146484 C-0.32567476 39.6813932 -3.02180271 35.80508286 -5.75 31.5625 C-6.32967529 30.62180664 -6.90935059 29.68111328 -7.5065918 28.71191406 C-9.31391358 25.79218706 -11.15242259 22.8943912 -13 20 C-14.73630492 17.25963528 -16.47150251 14.51857403 -18.20605469 11.77709961 C-19.26055216 10.11826931 -20.32218997 8.46395216 -21.39160156 6.81469727 C-21.86694336 6.07662842 -22.34228516 5.33855957 -22.83203125 4.578125 C-23.25202393 3.93262695 -23.6720166 3.28712891 -24.10473633 2.62207031 C-25 1 -25 1 -25 -1 C-18.12473796 -4.43763102 -7.15657155 -2.17695346 0 0 Z " fill="#FEFBFB" transform="translate(376,290)"/>
<path d="M0 0 C0.83412086 8.98996926 -0.23244549 14.92278246 -6 22 C-9.07622799 25.12814745 -12.35635409 27.57090273 -16 30 C-15.505 36.93 -15.505 36.93 -15 44 C-16.423125 44.886875 -17.84625 45.77375 -19.3125 46.6875 C-24.24649528 49.93895595 -24.24649528 49.93895595 -27 55 C-27.72503681 62.11744466 -26.6060723 68.91390512 -25.4609375 75.92578125 C-24.46465614 82.57047134 -24.14713642 88.09074555 -27.55078125 94.0859375 C-33.43951426 101.86350939 -42.67180505 105.96283258 -52 108 C-55.12246428 108.21567985 -58.24577592 108.18511492 -61.375 108.1875 C-62.21289062 108.19974609 -63.05078125 108.21199219 -63.9140625 108.22460938 C-68.64704798 108.23577208 -72.60480269 107.98336734 -77 106 C-78.375 103.875 -78.375 103.875 -79 102 C-77.46330808 100.46330808 -76.01776878 100.85536615 -73.87890625 100.82421875 C-57.01341381 100.60383439 -57.01341381 100.60383439 -43 92 C-39.51012345 86.94569604 -39.16216194 81.94959164 -40 76 C-41.32006686 72.00250938 -43.27343855 69.51189557 -46.75 67.0625 C-51.15033955 65.62392745 -55.4852423 65.05557749 -59.87939453 66.70581055 C-61.70804683 67.66556595 -63.44548863 68.70359421 -65.1875 69.8125 C-65.77724609 70.16892578 -66.36699219 70.52535156 -66.97460938 70.89257812 C-69.58848311 72.47718456 -72.17126889 74.10898929 -74.75 75.75 C-77.36717832 77.20398796 -79.05136762 77.25273992 -82 77 C-82.68359375 75.296875 -82.68359375 75.296875 -83 73 C-81.78515625 70.640625 -81.78515625 70.640625 -80.0625 68.25 C-79.49660156 67.45078125 -78.93070313 66.6515625 -78.34765625 65.828125 C-77.90292969 65.22484375 -77.45820313 64.6215625 -77 64 C-78.16595703 63.57074219 -78.16595703 63.57074219 -79.35546875 63.1328125 C-82.2926223 61.87465219 -83.87981653 60.35575941 -86 58 C-84.4785708 54.72132006 -82.5944185 51.87944802 -80.5 48.9375 C-78.63418777 46.30876031 -76.78832004 43.68248007 -75 41 C-71.5 40.6875 -71.5 40.6875 -68 41 C-65.77810176 43.22189824 -65.07401108 45.08482708 -64 48 C-61.75775342 48.58963678 -61.75775342 48.58963678 -59 48 C-56.63129588 45.93639829 -54.66183096 43.66692459 -53 41 C-53 40.01 -53 39.02 -53 38 C-54.37285156 37.81824219 -54.37285156 37.81824219 -55.7734375 37.6328125 C-56.96195313 37.46523437 -58.15046875 37.29765625 -59.375 37.125 C-60.55835938 36.96257812 -61.74171875 36.80015625 -62.9609375 36.6328125 C-66 36 -66 36 -68 34 C-68.4375 30.6875 -68.4375 30.6875 -68 27 C-63.8966411 21.68977083 -58.59157513 18.89765109 -52 18 C-50.51351182 18.05033019 -49.02772004 18.12322296 -47.54296875 18.2109375 C-30.33691644 18.92657167 -19.6189829 11.85554386 -6 2 C-3 0 -3 0 0 0 Z " fill="#FEFBFB" transform="translate(207,89)"/>
<path d="M0 0 C23.1 0 46.2 0 70 0 C70 11.55 70 23.1 70 35 C69.34 35 68.68 35 68 35 C67.65388672 33.40671875 67.65388672 33.40671875 67.30078125 31.78125 C65.24086343 22.7000073 63.34928462 15.2405525 56.5 8.5625 C52.54098305 6.08811441 48.50994828 5.88079533 43.91796875 5.68359375 C42.65762817 5.62643188 42.65762817 5.62643188 41.37182617 5.56811523 C40.32099854 5.52501221 39.2701709 5.48190918 38.1875 5.4375 C34.825625 5.293125 31.46375 5.14875 28 5 C28 18.53 28 32.06 28 46 C36.64587044 45.80119181 36.64587044 45.80119181 43 42 C45.93162636 37.19747819 48.08132381 32.5719708 49 27 C49.99 27 50.98 27 52 27 C52 41.85 52 56.7 52 72 C51.01 72 50.02 72 49 72 C48.81824219 71.18015625 48.63648438 70.3603125 48.44921875 69.515625 C48.07216797 67.89914062 48.07216797 67.89914062 47.6875 66.25 C47.44386719 65.18265625 47.20023438 64.1153125 46.94921875 63.015625 C46.01840693 60.05847797 44.9159065 58.38280808 43 56 C43 55.34 43 54.68 43 54 C37.74489705 51.97880656 33.95262505 51.66140278 28 51 C28 65.52 28 80.04 28 95 C47.43765377 95.34501831 47.43765377 95.34501831 58 90 C64.04903032 82.37296177 66.11530169 73.55474172 67 64 C68.65 63.67 70.3 63.34 72 63 C72 75.21 72 87.42 72 100 C47.91 100 23.82 100 -1 100 C-1 98.35 -1 96.7 -1 95 C3.29 95 7.58 95 12 95 C12 65.3 12 35.6 12 5 C8.04 5 4.08 5 0 5 C0 3.35 0 1.7 0 0 Z " fill="#C52712" transform="translate(98,454)"/>
<path d="M0 0 C-0.54576903 8.10036134 -1.54147036 16.01348818 -3 24 C10.81809426 22.97209567 10.81809426 22.97209567 24.1875 19.5859375 C26 19 26 19 29 19 C29.02527124 25.24795675 29.04283344 31.49590041 29.05493164 37.74389648 C29.05997298 39.87118014 29.06680591 41.99846031 29.07543945 44.12573242 C29.08751379 47.17627826 29.09323014 50.22677845 29.09765625 53.27734375 C29.10281754 54.23462875 29.10797882 55.19191376 29.11329651 56.1782074 C29.11337204 57.05904495 29.11344757 57.93988251 29.11352539 58.84741211 C29.115746 59.62684677 29.11796661 60.40628143 29.12025452 61.20933533 C29 63 29 63 28 64 C25.6893859 64.24745932 23.3763625 64.47252576 21.0625 64.6875 C13.19396741 65.61331974 6.51268804 67.68860332 1.31640625 74.06640625 C-2.26951472 79.58242633 -3.18152969 84.20653738 -3.1875 90.75 C-3.19974609 91.4409375 -3.21199219 92.131875 -3.22460938 92.84375 C-3.22654297 93.52953125 -3.22847656 94.2153125 -3.23046875 94.921875 C-3.23663208 95.84371582 -3.23663208 95.84371582 -3.24291992 96.78417969 C-2.8983775 99.92696063 -1.86856123 102.9600357 -1 106 C-5.95 106 -10.9 106 -16 106 C-16 72.67 -16 39.34 -16 5 C-13.03 4.01 -10.06 3.02 -7 2 C-6.030625 1.608125 -5.06125 1.21625 -4.0625 0.8125 C-2 0 -2 0 0 0 Z " fill="#FDF9F9" transform="translate(169,286)"/>
<path d="M0 0 C0.70415039 0.00346436 1.40830078 0.00692871 2.13378906 0.01049805 C8.67226072 0.14677895 14.23455204 1.07783668 19.5 5.0625 C21.09490491 6.54898299 21.09490491 6.54898299 23.06640625 6.05078125 C25.36459535 5.25085908 26.89296316 4.2340472 28.8125 2.75 C31.97503541 0.3125 31.97503541 0.3125 34.1875 0.3125 C34.1875 12.1925 34.1875 24.0725 34.1875 36.3125 C33.1975 36.3125 32.2075 36.3125 31.1875 36.3125 C30.83558594 35.34570312 30.48367187 34.37890625 30.12109375 33.3828125 C26.2051623 22.92462363 21.90465535 12.36295384 11.91796875 6.3125 C6.23279446 4.23037608 0.10291455 4.31032856 -5.8125 5.3125 C-13.06175884 9.35819415 -16.76808655 14.40065972 -19.078125 22.328125 C-21.64067311 32.52830591 -22.18666023 42.70005142 -22.25 53.1875 C-22.26522705 54.96785645 -22.26522705 54.96785645 -22.28076172 56.78417969 C-22.15840974 69.20893676 -20.80151652 82.59311561 -12.25 92.1875 C-7.1007541 96.67658617 -3.76749914 96.73999163 2.8828125 96.62890625 C8.57823352 96.08359998 12.26497983 94.25613678 16.25463867 90.22265625 C18.66899273 86.58755452 18.7896473 83.60991945 18.796875 79.38671875 C18.81341125 78.63912796 18.82994751 77.89153717 18.84698486 77.12129211 C18.89533923 74.74744348 18.91680636 72.37423478 18.9375 70 C18.96567043 68.38473365 18.99559937 66.76949694 19.02734375 65.15429688 C19.10109395 61.20708398 19.15074457 57.26022369 19.1875 53.3125 C14.8975 53.3125 10.6075 53.3125 6.1875 53.3125 C6.1875 51.9925 6.1875 50.6725 6.1875 49.3125 C19.0575 49.3125 31.9275 49.3125 45.1875 49.3125 C45.1875 50.6325 45.1875 51.9525 45.1875 53.3125 C41.5575 53.3125 37.9275 53.3125 34.1875 53.3125 C34.1875 68.8225 34.1875 84.3325 34.1875 100.3125 C31.29372907 98.86561454 29.00216922 97.56168136 26.4375 95.6875 C25.82390625 95.24148438 25.2103125 94.79546875 24.578125 94.3359375 C24.11921875 93.99820313 23.6603125 93.66046875 23.1875 93.3125 C19.74320748 94.84329667 17.09233327 96.92904706 14.1875 99.3125 C7.51956328 103.75779115 -1.213854 102.86889167 -8.875 101.6875 C-14.39609289 100.45001366 -18.44187971 97.82693534 -22.8125 94.3125 C-23.4415625 93.80847656 -24.070625 93.30445313 -24.71875 92.78515625 C-35.05677058 83.51267727 -39.00551614 68.70716745 -39.95483398 55.30273438 C-40.69690824 39.84946281 -37.9245897 24.93450421 -27.671875 12.7734375 C-19.76692392 4.51894777 -11.67124374 -0.09304775 0 0 Z " fill="#C52610" transform="translate(51.8125,452.6875)"/>
<path d="M0 0 C13.53 0 27.06 0 41 0 C41 1.32 41 2.64 41 4 C36.71 4 32.42 4 28 4 C28 34.03 28 64.06 28 95 C32.29 95 36.58 95 41 95 C41 96.65 41 98.3 41 100 C27.47 100 13.94 100 0 100 C0 98.35 0 96.7 0 95 C4.29 95 8.58 95 13 95 C13 64.97 13 34.94 13 4 C8.71 4 4.42 4 0 4 C0 2.68 0 1.36 0 0 Z " fill="#C4220B" transform="translate(570,454)"/>
<path d="M0 0 C1.496039 -0.0230535 2.99315998 -0.00219971 4.48832703 0.05383301 C5.30835709 0.05266479 6.12838715 0.05149658 6.9732666 0.05029297 C9.6749357 0.05585248 12.37214975 0.11799237 15.07304382 0.18078613 C16.94917387 0.19571253 18.82533516 0.20709767 20.70150757 0.21508789 C25.63265015 0.24559107 30.56189865 0.3241372 35.49229431 0.41271973 C40.52611161 0.4946512 45.56023591 0.53111489 50.5945282 0.57141113 C60.46710388 0.65713414 70.33827556 0.79361836 80.20976257 0.96203613 C77.00182698 9.40983183 70.82167952 14.13673123 62.79960632 17.95422363 C57.08708943 20.17719401 52.03255655 21.21095875 45.89750671 21.18908691 C44.85721817 21.18952499 44.85721817 21.18952499 43.7959137 21.18997192 C41.52878316 21.18859088 39.26199115 21.17308836 36.99491882 21.15734863 C35.41308776 21.15361413 33.83125438 21.15076922 32.24942017 21.14877319 C28.10495004 21.14117114 23.96062217 21.12155246 19.81620789 21.09936523 C15.57957381 21.0788326 11.34291654 21.06975567 7.10624695 21.05969238 C-1.19264614 21.03830303 -9.49142404 21.00420893 -17.79023743 20.96203613 C-17.79023743 18.96203613 -17.79023743 18.96203613 -15.54023743 16.64953613 C-14.17898743 15.31922363 -14.17898743 15.31922363 -12.79023743 13.96203613 C-10.85828359 11.72821451 -9.12456923 9.62550186 -7.79221821 6.98151398 C-5.61010736 2.79125438 -4.75001439 1.20564623 0 0 Z " fill="#FDF9F9" transform="translate(440.7902374267578,118.0379638671875)"/>
<path d="M0 0 C1.87181135 0.0224049 3.74369347 0.03947543 5.61560059 0.05145264 C10.5231642 0.09709449 15.42640902 0.21479084 20.33227539 0.34790039 C25.34592253 0.47105686 30.36027359 0.52554678 35.375 0.5859375 C45.1998059 0.71431786 55.02141775 0.9188877 64.84375 1.171875 C59.99518419 10.98402733 52.63888172 14.99419232 42.84375 19.171875 C39.16284028 20.38269721 35.6358303 20.29214087 31.78027344 20.28540039 C30.72601166 20.28561943 30.72601166 20.28561943 29.65045166 20.2858429 C27.33464437 20.28514799 25.01891819 20.27737538 22.703125 20.26953125 C21.09458459 20.26766557 19.48604362 20.26624237 17.87750244 20.26524353 C13.64919458 20.26143016 9.42092121 20.25160995 5.19262695 20.24053955 C0.87581855 20.23030006 -3.44099544 20.22574047 -7.7578125 20.22070312 C-16.22397414 20.20998662 -24.69010778 20.19292437 -33.15625 20.171875 C-32.33125 19.264375 -31.50625 18.356875 -30.65625 17.421875 C-28.51341788 15.03878037 -27.06115813 12.97644692 -25.65002441 10.07635498 C-19.67407956 -1.60997112 -11.75804426 -0.41365504 0 0 Z " fill="#FEFCFC" transform="translate(407.15625,148.828125)"/>
<path d="M0 0 C1.87469423 0.01679605 3.74942809 0.02960252 5.62417603 0.03858948 C10.54732243 0.07287641 15.46806083 0.16121171 20.39025879 0.26092529 C25.41739322 0.3531635 30.44491867 0.39413353 35.47265625 0.43945312 C45.32918031 0.53583933 55.18392082 0.68934572 65.0390625 0.87890625 C60.84111765 9.54213109 53.94167758 13.70127668 45.0390625 16.87890625 C40.96607978 17.89039238 37.14395008 17.99987408 32.95385742 17.99243164 C32.26062378 17.99257767 31.56739014 17.99272369 30.85314941 17.99287415 C28.57524421 17.99218076 26.29742207 17.9844154 24.01953125 17.9765625 C22.43484034 17.97469628 20.85014885 17.97327334 19.26545715 17.97227478 C15.1045674 17.96846568 10.94371282 17.95864917 6.78283691 17.9475708 C2.53296382 17.93732207 -1.71691498 17.93276975 -5.96679688 17.92773438 C-14.29819319 17.91702541 -22.62956096 17.89996836 -30.9609375 17.87890625 C-30.59742188 17.40582031 -30.23390625 16.93273437 -29.859375 16.4453125 C-29.10527344 15.45337891 -29.10527344 15.45337891 -28.3359375 14.44140625 C-27.77008942 13.71968735 -27.20424133 12.99796844 -26.62124634 12.25437927 C-24.8904583 9.95133493 -24.8904583 9.95133493 -23.89315796 7.37464905 C-19.43235319 -2.32803502 -9.16157708 -0.24032321 0 0 Z " fill="#FEFEFE" transform="translate(506.9609375,90.12109375)"/>
<path d="M0 0 C5.7234375 -0.185625 5.7234375 -0.185625 11.5625 -0.375 C13.34636108 -0.45693604 13.34636108 -0.45693604 15.16625977 -0.54052734 C20.29609014 -0.62084963 24.05492532 -0.60566617 28.15234375 2.7109375 C34.18158828 9.0179296 33.56943424 16.4022256 33.390625 24.6484375 C33.09042036 29.77149495 31.61390518 33.32501473 28 37 C27.51144531 37.53753906 27.02289063 38.07507813 26.51953125 38.62890625 C23.60743968 41.25652615 20.61587666 41.11916692 16.89453125 41.09765625 C16.00870361 41.09515869 15.12287598 41.09266113 14.21020508 41.09008789 C13.0889624 41.08098389 11.96771973 41.07187988 10.8125 41.0625 C7.244375 41.041875 3.67625 41.02125 0 41 C0 27.47 0 13.94 0 0 Z " fill="#FEFEFE" transform="translate(372,459)"/>
<path d="M0 0 C25.43234509 2.21294431 44.49805653 12.5004558 61 32 C64 35.702407 64 35.702407 64 38 C46.08601499 38.37818413 27.52388679 33.0455283 14.3359375 20.45703125 C0 5.1032855 0 5.1032855 0 0 Z " fill="#FDF9F9" transform="translate(442,213)"/>
<path d="M0 0 C1.37937744 0.33330322 1.37937744 0.33330322 2.78662109 0.67333984 C10.53666489 2.55921533 18.24537603 4.5773511 25.9375 6.6875 C27.04738281 6.98914063 28.15726562 7.29078125 29.30078125 7.6015625 C31.84716289 8.29397123 34.39274366 8.98914691 36.9375 9.6875 C36.9375 10.0175 36.9375 10.3475 36.9375 10.6875 C2.2875 10.6875 -32.3625 10.6875 -68.0625 10.6875 C-67.7325 10.0275 -67.4025 9.3675 -67.0625 8.6875 C-64.43310547 7.88134766 -64.43310547 7.88134766 -60.9296875 7.1015625 C-59.65464355 6.8123291 -58.37959961 6.5230957 -57.06591797 6.22509766 C-56.39059021 6.07582825 -55.71526245 5.92655884 -55.01947021 5.77276611 C-51.57179611 5.01058059 -48.13002755 4.22254219 -44.6875 3.4375 C-44.01693573 3.28536041 -43.34637146 3.13322083 -42.65548706 2.97647095 C-31.30392836 0.43614064 -31.30392836 0.43614064 -20.1953125 -2.9765625 C-13.60843812 -4.01405553 -6.36836493 -1.55957566 0 0 Z " fill="#FDFAFA" transform="translate(99.0625,381.3125)"/>
<path d="M0 0 C0.66 0 1.32 0 2 0 C2.28198242 0.82089111 2.56396484 1.64178223 2.85449219 2.48754883 C3.9197944 5.58726418 4.98598191 8.68667226 6.05273438 11.78588867 C6.5107615 13.11715029 6.96845424 14.44852701 7.42578125 15.7800293 C8.09022523 17.71434812 8.75580472 19.64827188 9.421875 21.58203125 C9.63936401 22.21456818 9.85685303 22.8471051 10.08093262 23.49880981 C11.74214871 28.30900622 13.49595499 33.08006706 15.30957031 37.8347168 C16 40 16 40 16 43 C6.43 43 -3.14 43 -13 43 C-11.875 35.125 -11.875 35.125 -10.78491211 31.90063477 C-10.42465187 30.82030724 -10.42465187 30.82030724 -10.05711365 29.71815491 C-9.79978958 28.96682785 -9.54246552 28.21550079 -9.27734375 27.44140625 C-9.01240616 26.65225327 -8.74746857 25.86310028 -8.47450256 25.05003357 C-7.63449458 22.55223852 -6.78614657 20.05737155 -5.9375 17.5625 C-5.36337702 15.86021322 -4.78980368 14.15774095 -4.21679688 12.45507812 C-2.81754566 8.30121323 -1.4108123 4.14995182 0 0 Z " fill="#FCF6F6" transform="translate(458,475)"/>
<path d="M0 0 C2.475 0.495 2.475 0.495 5 1 C6.8125 4.5625 6.8125 4.5625 8 8 C8.99 6.35 9.98 4.7 11 3 C18.23589973 3.60299164 24.99370876 5.1150587 32 7 C32.144375 8.134375 32.28875 9.26875 32.4375 10.4375 C32.61171478 13.80777201 32.61171478 13.80777201 34 15 C34.33 13.02 34.66 11.04 35 9 C42.625 9.875 42.625 9.875 46 11 C46 12.65 46 14.3 46 16 C45.566875 15.525625 45.13375 15.05125 44.6875 14.5625 C42.97690387 12.76313043 42.97690387 12.76313043 40 12 C40.78375 12.763125 41.5675 13.52625 42.375 14.3125 C45 17 45 17 47 20 C46.625 22.6875 46.625 22.6875 46 25 C43.36 24.67 40.72 24.34 38 24 C38 22.35 38 20.7 38 19 C38.226875 19.639375 38.45375 20.27875 38.6875 20.9375 C39.120625 21.618125 39.55375 22.29875 40 23 C41.65 23.33 43.3 23.66 45 24 C42.36 20.7 39.72 17.4 37 14 C35.68 16.64 34.36 19.28 33 22 C30.59195432 19.59195432 29.99231241 17.57796225 28.875 14.375 C28.52179688 13.37210937 28.16859375 12.36921875 27.8046875 11.3359375 C27.53914063 10.56507813 27.27359375 9.79421875 27 9 C26.01 9.495 26.01 9.495 25 10 C24.67 9.34 24.34 8.68 24 8 C23.01 7.67 22.02 7.34 21 7 C21.33 7.66 21.66 8.32 22 9 C22.66 9 23.32 9 24 9 C24 11.31 24 13.62 24 16 C23.34 15.34 22.68 14.68 22 14 C22 15.32 22 16.64 22 18 C23.65 17.67 25.3 17.34 27 17 C27 18.32 27 19.64 27 21 C24.72755724 20.54971412 22.45708123 20.08949383 20.1875 19.625 C18.92292969 19.36976563 17.65835938 19.11453125 16.35546875 18.8515625 C13 18 13 18 10 16 C10.66 16 11.32 16 12 16 C11.67 13.36 11.34 10.72 11 8 C10.01 10.31 9.02 12.62 8 15 C5.2160817 13.60804085 5.02101003 11.84424221 4 9 C4 10.98 4 12.96 4 15 C2.68 14.34 1.36 13.68 0 13 C0 8.71 0 4.42 0 0 Z " fill="#C8301D" transform="translate(89,339)"/>
<path d="M0 0 C12.95052812 0.5725081 12.95052812 0.5725081 19.015625 3.2421875 C22.2385634 4.47299468 25.59997275 4.92823991 28.99609375 5.47265625 C29.98802734 5.73369141 29.98802734 5.73369141 31 6 C31.495 6.99 31.495 6.99 32 8 C31.34 8 30.68 8 30 8 C30 11.96 30 15.92 30 20 C31.98 20 33.96 20 36 20 C36 19.34 36 18.68 36 18 C36.66 18.33 37.32 18.66 38 19 C37.505 20.485 37.505 20.485 37 22 C32.18201244 22.22942798 29.85213172 21.61737724 25 20 C25 15.71 25 11.42 25 7 C24.67 7.66 24.34 8.32 24 9 C23.34 9 22.68 9 22 9 C22 8.01 22 7.02 22 6 C19.525 5.505 19.525 5.505 17 5 C17 6.65 17 8.3 17 10 C17.66 10 18.32 10 19 10 C19 9.34 19 8.68 19 8 C19.66 8 20.32 8 21 8 C21 10.31 21 12.62 21 15 C20.34 14.67 19.68 14.34 19 14 C19 13.01 19 12.02 19 11 C18.34 11 17.68 11 17 11 C17.33 12.65 17.66 14.3 18 16 C19.98 16 21.96 16 24 16 C24 16.99 24 17.98 24 19 C7.40630798 17.40445269 7.40630798 17.40445269 0.8125 12.75 C-1.4031079 9.38838802 -1.92572151 7.01103867 -2 3 C-1.34 2.01 -0.68 1.02 0 0 Z " fill="#F6DDDC" transform="translate(90,298)"/>
<path d="M0 0 C0.66 0.66 1.32 1.32 2 2 C-12.22223143 12.70528177 -23.00958718 18.28765736 -41 17 C-37.20231061 8.99988116 -29.65458149 3.95646598 -21.54296875 0.83984375 C-14.49940889 -0.82979833 -7.17789286 -0.71778929 0 0 Z " fill="#FCF4F4" transform="translate(194,80)"/>
<path d="M0 0 C1.125 3.75 1.125 3.75 0 6 C-0.66 6 -1.32 6 -2 6 C-1.34 6.78375 -0.68 7.5675 0 8.375 C2 11 2 11 2 13 C-0.25 13.25 -0.25 13.25 -3 13 C-5.3125 11 -5.3125 11 -7 9 C-6.505 11.97 -6.505 11.97 -6 15 C-7.60064843 15.53154742 -9.20568874 16.04988353 -10.8125 16.5625 C-11.70582031 16.85253906 -12.59914063 17.14257812 -13.51953125 17.44140625 C-16 18 -16 18 -19 17 C-18.67 16.34 -18.34 15.68 -18 15 C-19.65 15 -21.3 15 -23 15 C-22.67 16.32 -22.34 17.64 -22 19 C-25.4019487 21.09350689 -28.05272412 21.17942163 -32 21 C-32 18.03 -32 15.06 -32 12 C-33.32 15.3 -34.64 18.6 -36 22 C-36.66 22 -37.32 22 -38 22 C-38.99 19.69 -39.98 17.38 -41 15 C-41 17.97 -41 20.94 -41 24 C-41.99 23.67 -42.98 23.34 -44 23 C-44 18.71 -44 14.42 -44 10 C-42.35 9.67 -40.7 9.34 -39 9 C-38.01 10.98 -37.02 12.96 -36 15 C-35.76925781 14.43410156 -35.53851563 13.86820312 -35.30078125 13.28515625 C-34.97464844 12.55167969 -34.64851563 11.81820313 -34.3125 11.0625 C-33.99925781 10.33160156 -33.68601562 9.60070312 -33.36328125 8.84765625 C-32 7 -32 7 -27 6 C-27.33 10.29 -27.66 14.58 -28 19 C-24.90064194 15.90064194 -23.90799735 13.82280415 -22.3125 9.8125 C-21.87550781 8.72582031 -21.43851563 7.63914062 -20.98828125 6.51953125 C-20.66214844 5.68808594 -20.33601563 4.85664063 -20 4 C-19.34 4 -18.68 4 -18 4 C-16.35 7.3 -14.7 10.6 -13 14 C-12.34 14 -11.68 14 -11 14 C-11 10.04 -11 6.08 -11 2 C-6.78370866 -0.10814567 -4.60209225 -0.17700355 0 0 Z " fill="#C4230D" transform="translate(76,319)"/>
<path d="M0 0 C4.29544949 0.0720527 7.21757381 0.32099573 10.3984375 3.5390625 C18.8125 14.46339779 18.8125 14.46339779 18.8125 18.375 C10.01576769 17.89517824 3.73918101 14.83116112 -2.1875 8.25 C-4.2074522 5.84663094 -5.18106949 4.39429153 -6.1875 1.375 C-4.47710219 -0.33539781 -2.33656044 0.08198458 0 0 Z " fill="#FCF5F5" transform="translate(570.1875,343.625)"/>
<path d="M0 0 C14.19642857 2.94642857 14.19642857 2.94642857 20 5 C19.01 5.495 19.01 5.495 18 6 C18 9.96 18 13.92 18 18 C19.98 18 21.96 18 24 18 C24 17.34 24 16.68 24 16 C24.66 16.33 25.32 16.66 26 17 C25.67 17.99 25.34 18.98 25 20 C20.18201244 20.22942798 17.85213172 19.61737724 13 18 C13 13.71 13 9.42 13 5 C12.67 5.66 12.34 6.32 12 7 C11.34 7 10.68 7 10 7 C10 6.01 10 5.02 10 4 C8.35 3.67 6.7 3.34 5 3 C5 4.65 5 6.3 5 8 C5.66 8 6.32 8 7 8 C7 7.34 7 6.68 7 6 C7.66 6 8.32 6 9 6 C9 8.31 9 10.62 9 13 C8.34 12.67 7.68 12.34 7 12 C7 11.01 7 10.02 7 9 C6.34 9 5.68 9 5 9 C5.33 10.65 5.66 12.3 6 14 C7.98 14 9.96 14 12 14 C12 14.99 12 15.98 12 17 C7.86645178 16.51775271 4.04458076 16.01114519 0 15 C0 10.05 0 5.1 0 0 Z " fill="#D66055" transform="translate(102,300)"/>
<path d="M0 0 C0.99 0 1.98 0 3 0 C3 3.63 3 7.26 3 11 C2.01 11.33 1.02 11.66 0 12 C0 11.34 0 10.68 0 10 C-0.928125 10.66 -1.85625 11.32 -2.8125 12 C-6 14 -6 14 -9 14 C-10.54586876 10.90826248 -10.29359521 8.40570448 -10 5 C-8.25 2.5 -8.25 2.5 -6 1 C-3.75 1.25 -3.75 1.25 -2 2 C-2 2.66 -2 3.32 -2 4 C-1.34 4 -0.68 4 0 4 C0 2.68 0 1.36 0 0 Z " fill="#FBF2F2" transform="translate(45,348)"/>
<path d="M0 0 C0.66 0.33 1.32 0.66 2 1 C1.67 5.29 1.34 9.58 1 14 C-0.32 14.33 -1.64 14.66 -3 15 C-3 12.03 -3 9.06 -3 6 C-4.32 9.3 -5.64 12.6 -7 16 C-7.66 16 -8.32 16 -9 16 C-9.99 13.69 -10.98 11.38 -12 9 C-12 11.97 -12 14.94 -12 18 C-12.99 17.67 -13.98 17.34 -15 17 C-15 12.71 -15 8.42 -15 4 C-13.35 3.67 -11.7 3.34 -10 3 C-9.01 4.98 -8.02 6.96 -7 9 C-6.74605469 8.43410156 -6.49210937 7.86820312 -6.23046875 7.28515625 C-5.88628906 6.55167969 -5.54210938 5.81820313 -5.1875 5.0625 C-4.68283203 3.96615234 -4.68283203 3.96615234 -4.16796875 2.84765625 C-3 1 -3 1 0 0 Z " fill="#CB392A" transform="translate(47,325)"/>
<path d="M0 0 C1.65 0 3.3 0 5 0 C4.79375 0.78375 4.5875 1.5675 4.375 2.375 C4.25125 3.24125 4.1275 4.1075 4 5 C4.66 5.66 5.32 6.32 6 7 C6 9.4375 6 9.4375 5 12 C1.13866033 14.51436071 -2.45515151 15.45894661 -7 16 C-7 15.34 -7 14.68 -7 14 C-6.34 14 -5.68 14 -5 14 C-5.33 9.71 -5.66 5.42 -6 1 C-4.68 1 -3.36 1 -2 1 C-2 2.65 -2 4.3 -2 6 C1.24849977 4.27773504 1.24849977 4.27773504 2 1 C1.34 0.67 0.68 0.34 0 0 Z " fill="#CC3E2F" transform="translate(61,301)"/>
<path d="M0 0 C2.99493187 0.07999789 5.96524375 0.10546194 8.95947266 0.08178711 C10.31615303 0.07718727 10.31615303 0.07718727 11.70024109 0.07249451 C13.66183992 0.06534657 15.62343158 0.05596028 17.58501053 0.04459953 C20.6859408 0.02722114 23.78681965 0.01691455 26.88778687 0.00868225 C35.70356103 -0.01578821 44.51926559 -0.05146167 53.33496094 -0.09594727 C58.7276603 -0.12266569 64.12031987 -0.13974928 69.51307297 -0.15081596 C71.57125702 -0.15704037 73.62943311 -0.16706373 75.68758011 -0.18089485 C78.55821092 -0.20002041 81.42863067 -0.20699409 84.29931641 -0.21118164 C85.15546036 -0.21994324 86.01160431 -0.22870483 86.89369202 -0.23773193 C92.77210333 -0.22789667 92.77210333 -0.22789667 95 2 C60.35 2 25.7 2 -10 2 C-9.67 1.34 -9.34 0.68 -9 0 C-5.5337733 -1.03049983 -3.42482273 -0.86562569 0 0 Z " fill="#ECB5B2" transform="translate(41,390)"/>
<path d="M0 0 C1.42116829 0.09964268 2.84643651 0.14607193 4.27104187 0.15821838 C5.57721466 0.17290161 5.57721466 0.17290161 6.90977478 0.18788147 C7.86211502 0.19363693 8.81445526 0.1993924 9.7956543 0.20532227 C11.30323807 0.22017166 11.30323807 0.22017166 12.84127808 0.23532104 C16.16890087 0.26695078 19.49653794 0.29169939 22.82421875 0.31640625 C25.12922032 0.3369745 27.43421811 0.35797093 29.73921204 0.37937927 C35.81040384 0.43461326 41.88162976 0.48401673 47.95288086 0.53222656 C54.14635255 0.58243186 60.33977462 0.638123 66.53320312 0.69335938 C78.6887597 0.8009572 90.84435934 0.90239861 103 1 C103 1.33 103 1.66 103 2 C66.7 2 30.4 2 -7 2 C-5.26578631 -1.46842738 -3.40984787 -1.13661596 0 0 Z " fill="#ECB6B3" transform="translate(509,390)"/>
<path d="M0 0 C0 1.32 0 2.64 0 4 C-0.66 4 -1.32 4 -2 4 C-2 3.34 -2 2.68 -2 2 C-3.32 2.33 -4.64 2.66 -6 3 C-6.33 4.32 -6.66 5.64 -7 7 C-6.34 7 -5.68 7 -5 7 C-4.67 6.01 -4.34 5.02 -4 4 C-3.67 4 -3.34 4 -3 4 C-3 6.31 -3 8.62 -3 11 C-3.66 11 -4.32 11 -5 11 C-5 10.34 -5 9.68 -5 9 C-5.66 9 -6.32 9 -7 9 C-7 10.65 -7 12.3 -7 14 C-4.50447516 13.21869929 -4.50447516 13.21869929 -2 12 C-1.67 11.01 -1.34 10.02 -1 9 C-0.34 9 0.32 9 1 9 C0.67 10.65 0.34 12.3 0 14 C-1.62212059 14.52973311 -3.24781584 15.04853107 -4.875 15.5625 C-5.77992187 15.85253906 -6.68484375 16.14257812 -7.6171875 16.44140625 C-10 17 -10 17 -12 16 C-11.67 15.67 -11.34 15.34 -11 15 C-10.76636119 13.15108054 -10.58696365 11.29511969 -10.4375 9.4375 C-10.35371094 8.42558594 -10.26992188 7.41367187 -10.18359375 6.37109375 C-10.12300781 5.58863281 -10.06242187 4.80617188 -10 4 C-10.66 4 -11.32 4 -12 4 C-12 3.34 -12 2.68 -12 2 C-7.8803623 0.70756464 -4.33168317 -0.26252625 0 0 Z " fill="#CC3F30" transform="translate(58,344)"/>
<path d="M0 0 C0 1.32 0 2.64 0 4 C-0.66 4 -1.32 4 -2 4 C-2 3.34 -2 2.68 -2 2 C-3.32 2.33 -4.64 2.66 -6 3 C-6.33 4.65 -6.66 6.3 -7 8 C-6.34 8 -5.68 8 -5 8 C-5 6.68 -5 5.36 -5 4 C-4.34 4 -3.68 4 -3 4 C-3 6.31 -3 8.62 -3 11 C-3.66 11 -4.32 11 -5 11 C-5 10.34 -5 9.68 -5 9 C-5.66 9 -6.32 9 -7 9 C-7 10.65 -7 12.3 -7 14 C-4.50447516 13.21869929 -4.50447516 13.21869929 -2 12 C-1.67 11.01 -1.34 10.02 -1 9 C-0.34 9 0.32 9 1 9 C0.67 10.65 0.34 12.3 0 14 C-1.62212059 14.52973311 -3.24781584 15.04853107 -4.875 15.5625 C-5.77992187 15.85253906 -6.68484375 16.14257812 -7.6171875 16.44140625 C-10 17 -10 17 -12 16 C-11.67 15.67 -11.34 15.34 -11 15 C-10.76636119 13.15108054 -10.58696365 11.29511969 -10.4375 9.4375 C-10.35371094 8.42558594 -10.26992187 7.41367187 -10.18359375 6.37109375 C-10.12300781 5.58863281 -10.06242187 4.80617188 -10 4 C-10.66 4 -11.32 4 -12 4 C-12 3.34 -12 2.68 -12 2 C-10.7625 1.67 -9.525 1.34 -8.25 1 C-7.55390625 0.814375 -6.8578125 0.62875 -6.140625 0.4375 C-4 0 -4 0 0 0 Z " fill="#CD4132" transform="translate(77,339)"/>
<path d="M0 0 C0.66 0 1.32 0 2 0 C2.47179687 1.06541016 2.47179687 1.06541016 2.953125 2.15234375 C3.38109375 3.07144531 3.8090625 3.99054688 4.25 4.9375 C4.66765625 5.85402344 5.0853125 6.77054687 5.515625 7.71484375 C6.78553949 10.16449617 6.78553949 10.16449617 9.171875 10.81640625 C9.77515625 10.87699219 10.3784375 10.93757813 11 11 C7.55549263 13.29633824 5.06187717 13.54016485 1 14 C1.33 13.01 1.66 12.02 2 11 C0.35 11 -1.3 11 -3 11 C-2.67 12.32 -2.34 13.64 -2 15 C-4.35438733 16.42944945 -5.48032433 17.08661261 -8.25 16.625 C-9.11625 16.315625 -9.11625 16.315625 -10 16 C-9.40703125 15.81695312 -8.8140625 15.63390625 -8.203125 15.4453125 C-4.98897394 13.33673822 -4.09062429 10.32915952 -2.75 6.875 C-2.481875 6.21628906 -2.21375 5.55757813 -1.9375 4.87890625 C-1.2795287 3.25747697 -0.63812373 1.62934259 0 0 Z " fill="#CC3E2F" transform="translate(56,323)"/>
<path d="M0 0 C0.99 0.33 1.98 0.66 3 1 C3.33 2.98 3.66 4.96 4 7 C4.33 5.02 4.66 3.04 5 1 C5.66 1.33 6.32 1.66 7 2 C7 2.66 7 3.32 7 4 C7.66 4 8.32 4 9 4 C9 6.31 9 8.62 9 11 C8.34 10.34 7.68 9.68 7 9 C7 10.32 7 11.64 7 13 C8.65 12.67 10.3 12.34 12 12 C12 13.32 12 14.64 12 16 C7.38 15.01 2.76 14.02 -2 13 C-1.34 12.67 -0.68 12.34 0 12 C0 8.04 0 4.08 0 0 Z " fill="#E28F87" transform="translate(104,344)"/>
<path d="M0 0 C0.66 0.66 1.32 1.32 2 2 C1.81511956 4.86564686 1.20773139 5.81237165 -0.9375 7.75 C-3 9 -3 9 -5 9 C-4.67 10.98 -4.34 12.96 -4 15 C-5.98 15.66 -7.96 16.32 -10 17 C-10 16.34 -10 15.68 -10 15 C-9.34 15 -8.68 15 -8 15 C-8.33 10.71 -8.66 6.42 -9 2 C-5.26258387 0.13129193 -3.96172649 -0.41702384 0 0 Z " fill="#DA7268" transform="translate(42,285)"/>
<path d="M0 0 C7.625 0.875 7.625 0.875 11 2 C11 3.65 11 5.3 11 7 C10.566875 6.525625 10.13375 6.05125 9.6875 5.5625 C7.97690387 3.76313043 7.97690387 3.76313043 5 3 C5.78375 3.763125 6.5675 4.52625 7.375 5.3125 C10 8 10 8 12 11 C11.625 13.6875 11.625 13.6875 11 16 C8.36 15.67 5.72 15.34 3 15 C3 13.35 3 11.7 3 10 C3.3403125 10.9590625 3.3403125 10.9590625 3.6875 11.9375 C4.120625 12.618125 4.55375 13.29875 5 14 C6.65 14.33 8.3 14.66 10 15 C7.36 11.7 4.72 8.4 2 5 C1.34 6.65 0.68 8.3 0 10 C-0.66 9.34 -1.32 8.68 -2 8 C-1.67 7.4225 -1.34 6.845 -1 6.25 C0.27075898 3.80116138 0.27075898 3.80116138 0 0 Z " fill="#CC3F30" transform="translate(124,348)"/>
<path d="M0 0 C5 1 5 1 6.58203125 2.84765625 C6.98808594 3.57855469 7.39414063 4.30945313 7.8125 5.0625 C8.23144531 5.79597656 8.65039062 6.52945312 9.08203125 7.28515625 C9.38496094 7.85105469 9.68789062 8.41695313 10 9 C10.15149298 5.37114676 10.15149298 5.37114676 9 2 C10.32 2.66 11.64 3.32 13 4 C12.67 8.29 12.34 12.58 12 17 C8.71944932 13.71944932 6.47833487 10.84569205 4 7 C3.67 6.67 3.34 6.34 3 6 C3.33 8.97 3.66 11.94 4 15 C2.68 14.34 1.36 13.68 0 13 C0 8.71 0 4.42 0 0 Z " fill="#CC3E2F" transform="translate(116,283)"/>
<path d="M0 0 C0 1.32 0 2.64 0 4 C-0.66 4 -1.32 4 -2 4 C-2 3.34 -2 2.68 -2 2 C-2.99 2 -3.98 2 -5 2 C-4.67 6.62 -4.34 11.24 -4 16 C-6.31 16.33 -8.62 16.66 -11 17 C-10.67 16.34 -10.34 15.68 -10 15 C-9.7724985 13.12943209 -9.59037189 11.25314042 -9.4375 9.375 C-9.35371094 8.37210937 -9.26992188 7.36921875 -9.18359375 6.3359375 C-9.12300781 5.56507813 -9.06242187 4.79421875 -9 4 C-9.45375 4.495 -9.9075 4.99 -10.375 5.5 C-12 7 -12 7 -14 7 C-13.76953125 5.109375 -13.76953125 5.109375 -13 3 C-11.07421875 1.953125 -11.07421875 1.953125 -8.6875 1.25 C-7.90761719 1.00765625 -7.12773438 0.7653125 -6.32421875 0.515625 C-4 0 -4 0 0 0 Z " fill="#CF493C" transform="translate(45,305)"/>
<path d="M0 0 C2.88045536 2.88045536 3.73592934 4.32497842 5.125 8 C5.45757812 8.86625 5.79015625 9.7325 6.1328125 10.625 C6.78334659 12.4066429 7.40021287 14.20063861 8 16 C5.03 15.505 5.03 15.505 2 15 C2 13.35 2 11.7 2 10 C0.68 10 -0.64 10 -2 10 C-2 10.99 -2 11.98 -2 13 C-3.32 12.34 -4.64 11.68 -6 11 C-4.02 7.37 -2.04 3.74 0 0 Z " fill="#D04D3F" transform="translate(119,326)"/>
<path d="M0 0 C0.66 0 1.32 0 2 0 C3.98 3.96 5.96 7.92 8 12 C6.35 12.33 4.7 12.66 3 13 C2.67 12.34 2.34 11.68 2 11 C0.35 11 -1.3 11 -3 11 C-2.67 12.32 -2.34 13.64 -2 15 C-3.65 15.33 -5.3 15.66 -7 16 C-7 15.34 -7 14.68 -7 14 C-6.34 14 -5.68 14 -5 14 C-4.70996094 13.11248047 -4.70996094 13.11248047 -4.4140625 12.20703125 C-3.05585281 8.0853355 -1.67949415 4.0049476 0 0 Z " fill="#C82F1C" transform="translate(49,283)"/>
<path d="M0 0 C1.43836751 0.11458693 2.87570966 0.24209116 4.3125 0.375 C5.51326172 0.47941406 5.51326172 0.47941406 6.73828125 0.5859375 C9 1 9 1 12 3 C11.67 3.99 11.34 4.98 11 6 C10.01 5.01 9.02 4.02 8 3 C8 6.96 8 10.92 8 15 C8.66 15 9.32 15 10 15 C9.67 15.66 9.34 16.32 9 17 C7.02 16.34 5.04 15.68 3 15 C3.33 10.71 3.66 6.42 4 2 C2.68 2.33 1.36 2.66 0 3 C0 2.01 0 1.02 0 0 Z " fill="#CD4233" transform="translate(100,321)"/>
<path d="M0 0 C1.60546875 1.77734375 1.60546875 1.77734375 3.1875 3.9375 C3.71730469 4.64777344 4.24710938 5.35804688 4.79296875 6.08984375 C6 8 6 8 6 10 C6.66 10.33 7.32 10.66 8 11 C6.02 11.33 4.04 11.66 2 12 C1.67 10.68 1.34 9.36 1 8 C0.34 8 -0.32 8 -1 8 C-1.33 9.98 -1.66 11.96 -2 14 C-3.32 13.67 -4.64 13.34 -6 13 C-4.68 10.69 -3.36 8.38 -2 6 C-3.32 4.02 -4.64 2.04 -6 0 C-3 -1 -3 -1 0 0 Z " fill="#C93524" transform="translate(65,280)"/>
<path d="M0 0 C0 1.65 0 3.3 0 5 C-0.66 5 -1.32 5 -2 5 C-2.33 4.34 -2.66 3.68 -3 3 C-5.47266765 3.34444881 -5.47266765 3.34444881 -8 4 C-9.20272819 6.40545638 -9.10071472 7.94996953 -9.0625 10.625 C-9.05347656 11.44226563 -9.04445313 12.25953125 -9.03515625 13.1015625 C-9.02355469 13.72804688 -9.01195312 14.35453125 -9 15 C-8.05125 14.484375 -7.1025 13.96875 -6.125 13.4375 C-5.09375 12.963125 -4.0625 12.48875 -3 12 C-2.34 12.33 -1.68 12.66 -1 13 C-2 14.5 -2 14.5 -4 16 C-6.84827851 16.45432663 -9.06737257 16.27929785 -12 16 C-14 13 -14 13 -14 9.625 C-12.72038045 4.98637914 -10.98238712 3.6038685 -7 1 C-4.50306881 0.26227033 -2.57920098 0 0 0 Z " fill="#C83220" transform="translate(45,347)"/>
<path d="M0 0 C10.55808656 0.96355353 10.55808656 0.96355353 15 2 C15.66666667 6.66666667 16.33333333 11.33333333 17 16 C16.34 16.33 15.68 16.66 15 17 C13.35 12.71 11.7 8.42 10 4 C9.01 4.495 9.01 4.495 8 5 C7.54625 4.525625 7.0925 4.05125 6.625 3.5625 C5.06741796 1.90972192 5.06741796 1.90972192 3 1 C3 2.98 3 4.96 3 7 C2.01 7.495 2.01 7.495 1 8 C0.67 5.36 0.34 2.72 0 0 Z " fill="#C93726" transform="translate(106,344)"/>
<path d="M0 0 C2.89696854 0.36982577 5.37621929 0.68810965 8 2 C7.67 3.32 7.34 4.64 7 6 C6.34 5.01 5.68 4.02 5 3 C2.94074861 2.27617533 2.94074861 2.27617533 1 2 C1.763125 2.7425 2.52625 3.485 3.3125 4.25 C7.66913124 8.70794824 7.66913124 8.70794824 9 11 C8.6875 13.25 8.6875 13.25 8 15 C6.35 15.33 4.7 15.66 3 16 C2.67 15.34 2.34 14.68 2 14 C3.32 14 4.64 14 6 14 C5.4946875 13.48050781 4.989375 12.96101563 4.46875 12.42578125 C3.8190625 11.72839844 3.169375 11.03101563 2.5 10.3125 C1.8503125 9.62800781 1.200625 8.94351562 0.53125 8.23828125 C-1.28777755 5.57934557 -1.38737548 4.15818618 -1 1 C-0.67 0.67 -0.34 0.34 0 0 Z " fill="#CC3F30" transform="translate(90,318)"/>
<path d="M0 0 C3.625 -0.1875 3.625 -0.1875 7 0 C7.33 0.66 7.66 1.32 8 2 C6.35 2 4.7 2 3 2 C2.71219414 5.05074215 2.54212089 7.96183742 3 11 C5.33749166 13.15602694 5.33749166 13.15602694 8 14 C8 12.68 8 11.36 8 10 C9.32 10.33 10.64 10.66 12 11 C11.67 12.32 11.34 13.64 11 15 C6.730679 15.41856088 4.6696295 15.48038638 1.125 12.9375 C-1.38218623 9.47168374 -1.92123738 7.25318158 -2 3 C-1.34 2.01 -0.68 1.02 0 0 Z " fill="#CA3727" transform="translate(90,298)"/>
<path d="M0 0 C2.97 0.495 2.97 0.495 6 1 C6.12375 1.94875 6.2475 2.8975 6.375 3.875 C6.71687177 7.08667191 6.71687177 7.08667191 9 9 C9.33 7.02 9.66 5.04 10 3 C11.32 3 12.64 3 14 3 C12.31326082 7.49797113 10.18326108 11.72886302 8 16 C5.26815328 13.62719599 4.14671379 11.36453411 2.875 8 C2.54242188 7.13375 2.20984375 6.2675 1.8671875 5.375 C1.21665341 3.5933571 0.59978713 1.79936139 0 0 Z " fill="#CC3E2F" transform="translate(87,275)"/>
<path d="M0 0 C0.99 0 1.98 0 3 0 C3 1.98 3 3.96 3 6 C3.66 6 4.32 6 5 6 C5 5.34 5 4.68 5 4 C5.66 4 6.32 4 7 4 C7 6.31 7 8.62 7 11 C6.34 10.67 5.68 10.34 5 10 C5 9.01 5 8.02 5 7 C4.34 7 3.68 7 3 7 C3.33 8.65 3.66 10.3 4 12 C5.98 12 7.96 12 10 12 C10 12.99 10 13.98 10 15 C2.25 14.25 2.25 14.25 0 12 C-0.1953125 9.1796875 -0.1953125 9.1796875 -0.125 5.875 C-0.10695313 4.77929688 -0.08890625 3.68359375 -0.0703125 2.5546875 C-0.04710938 1.71164062 -0.02390625 0.86859375 0 0 Z " fill="#CA3625" transform="translate(104,302)"/>
<path d="M0 0 C-0.33 0.33 -0.66 0.66 -1 1 C-1.23363881 2.84891946 -1.41303635 4.70488031 -1.5625 6.5625 C-1.64628906 7.57441406 -1.73007812 8.58632813 -1.81640625 9.62890625 C-1.87699219 10.41136719 -1.93757813 11.19382812 -2 12 C-1.34 12 -0.68 12 0 12 C0 12.66 0 13.32 0 14 C-1.98 14 -3.96 14 -6 14 C-6.33 9.38 -6.66 4.76 -7 0 C-3.86650268 -1.04449911 -3.01031744 -0.93423645 0 0 Z " fill="#CE4737" transform="translate(53,304)"/>
<path d="M0 0 C0.66 0 1.32 0 2 0 C3.98 4.95 5.96 9.9 8 15 C5.03 14.505 5.03 14.505 2 14 C2 13.01 2 12.02 2 11 C-0.475 10.01 -0.475 10.01 -3 9 C-3 9.99 -3 10.98 -3 12 C-3.99 11.67 -4.98 11.34 -6 11 C-4.68 9.35 -3.36 7.7 -2 6 C-2 6.66 -2 7.32 -2 8 C-1.01 8 -0.02 8 1 8 C1 6.68 1 5.36 1 4 C0.34 4 -0.32 4 -1 4 C-0.67 2.68 -0.34 1.36 0 0 Z " fill="#C93524" transform="translate(106,281)"/>
<path d="M0 0 C2.97 0.33 5.94 0.66 9 1 C9 1.33 9 1.66 9 2 C7.35 2 5.7 2 4 2 C4 5.96 4 9.92 4 14 C2.35 14 0.7 14 -1 14 C-0.34 13.67 0.32 13.34 1 13 C0.67 10.36 0.34 7.72 0 5 C-0.33 5.66 -0.66 6.32 -1 7 C-1.99 7 -2.98 7 -4 7 C-2.79266543 4.58533087 -1.39745961 2.30884631 0 0 Z " fill="#CC4030" transform="translate(100,342)"/>
<path d="M0 0 C2.97 0.495 2.97 0.495 6 1 C5.98839844 1.91523438 5.97679687 2.83046875 5.96484375 3.7734375 C5.95582031 4.96195312 5.94679687 6.15046875 5.9375 7.375 C5.92589844 8.55835938 5.91429687 9.74171875 5.90234375 10.9609375 C5.78533407 13.91921521 5.78533407 13.91921521 7 16 C5.02 15.34 3.04 14.68 1 14 C0.67 9.38 0.34 4.76 0 0 Z " fill="#CB3C2D" transform="translate(128,307)"/>
<path d="M0 0 C1.65 0 3.3 0 5 0 C4.79375 0.78375 4.5875 1.5675 4.375 2.375 C4.25125 3.24125 4.1275 4.1075 4 5 C4.66 5.66 5.32 6.32 6 7 C6 7.99 6 8.98 6 10 C5.4225 9.835 4.845 9.67 4.25 9.5 C1.73335631 8.85537969 1.73335631 8.85537969 -2 9 C-2.66 9 -3.32 9 -4 9 C-4.66 6.36 -5.32 3.72 -6 1 C-4.68 1 -3.36 1 -2 1 C-2 2.65 -2 4.3 -2 6 C1.24849977 4.27773504 1.24849977 4.27773504 2 1 C1.34 0.67 0.68 0.34 0 0 Z " fill="#C72D1A" transform="translate(61,301)"/>
<path d="M0 0 C0.66 0.33 1.32 0.66 2 1 C1.67 1.33 1.34 1.66 1 2 C0.76518307 4.18292774 0.58636677 6.37203174 0.4375 8.5625 C0.31181641 10.35880859 0.31181641 10.35880859 0.18359375 12.19140625 C0.12300781 13.11824219 0.06242187 14.04507812 0 15 C-1.65 15.33 -3.3 15.66 -5 16 C-4.67 15.34 -4.34 14.68 -4 14 C-3.76360829 10.91815246 -3.61758293 7.83760526 -3.4765625 4.75 C-3.31929688 3.8425 -3.16203125 2.935 -3 2 C-2.01 1.34 -1.02 0.68 0 0 Z " fill="#C62814" transform="translate(73,297)"/>
<path d="M0 0 C0.66 0.33 1.32 0.66 2 1 C2 5.29 2 9.58 2 14 C0.02 14.66 -1.96 15.32 -4 16 C-4 15.34 -4 14.68 -4 14 C-3.34 14 -2.68 14 -2 14 C-2.33 9.71 -2.66 5.42 -3 1 C-2.01 0.67 -1.02 0.34 0 0 Z " fill="#C62914" transform="translate(36,286)"/>
<path d="M0 0 C0.66 0.33 1.32 0.66 2 1 C1.67 5.29 1.34 9.58 1 14 C-0.32 14.33 -1.64 14.66 -3 15 C-3 10.38 -3 5.76 -3 1 C-2.01 0.67 -1.02 0.34 0 0 Z " fill="#C4240F" transform="translate(47,325)"/>
<path d="M0 0 C2.31 0 4.62 0 7 0 C7.625 1.875 7.625 1.875 8 4 C7.34 4.66 6.68 5.32 6 6 C5.34 6 4.68 6 4 6 C2.66216607 6.31478446 1.32796291 6.64587656 0 7 C0 4.69 0 2.38 0 0 Z " fill="#CB3A2A" transform="translate(69,319)"/>
<path d="M0 0 C2.78211944 0.37596209 4.5879284 0.67318459 6.8125 2.4375 C8 4 8 4 8 6 C5.36 6.33 2.72 6.66 0 7 C0 4.69 0 2.38 0 0 Z " fill="#F0C5C2" transform="translate(88,326)"/>
<path d="M0 0 C0.309375 0.804375 0.309375 0.804375 0.625 1.625 C2.27914598 4.48216123 4.34545178 6.40513011 6.7578125 8.6328125 C8 10 8 10 8 12 C3.68433833 11.52048204 1.7980059 10.29764982 -1 7 C-1.33 6.34 -1.66 5.68 -2 5 C-1.0625 2.375 -1.0625 2.375 0 0 Z " fill="#FBEFEF" transform="translate(126,351)"/>
<path d="M0 0 C0.99 0 1.98 0 3 0 C2.67 1.98 2.34 3.96 2 6 C1.01 6 0.02 6 -1 6 C-0.67 7.32 -0.34 8.64 0 10 C-2.35438733 11.42944945 -3.48032433 12.08661261 -6.25 11.625 C-6.8275 11.41875 -7.405 11.2125 -8 11 C-7.38640625 10.76539063 -6.7728125 10.53078125 -6.140625 10.2890625 C-3.4369579 8.6609418 -2.90946466 7.27366164 -1.75 4.375 C-1.41484375 3.55773437 -1.0796875 2.74046875 -0.734375 1.8984375 C-0.49203125 1.27195312 -0.2496875 0.64546875 0 0 Z " fill="#DB776F" transform="translate(54,328)"/>
<path d="M0 0 C0.103125 0.598125 0.20625 1.19625 0.3125 1.8125 C1.09385053 4.29861534 2.14895416 5.22943442 4 7 C4 7.66 4 8.32 4 9 C1.75 9.25 1.75 9.25 -1 9 C-3.3125 7.125 -3.3125 7.125 -5 5 C-5 4.34 -5 3.68 -5 3 C-2.5 1.375 -2.5 1.375 0 0 Z " fill="#C8301F" transform="translate(74,323)"/>
<path d="M0 0 C0.33 0 0.66 0 1 0 C1 2.31 1 4.62 1 7 C2.98 7 4.96 7 7 7 C7 6.34 7 5.68 7 5 C7.66 5.33 8.32 5.66 9 6 C8.67 6.99 8.34 7.98 8 9 C4.05272412 9.17942163 1.4019487 9.09350689 -2 7 C-2.125 4.625 -2.125 4.625 -2 2 C-1.34 1.34 -0.68 0.68 0 0 Z " fill="#CB3A2A" transform="translate(119,311)"/>
<path d="M0 0 C0.99 0 1.98 0 3 0 C3.33 1.65 3.66 3.3 4 5 C2.35 5.33 0.7 5.66 -1 6 C-0.67 7.32 -0.34 8.64 0 10 C-1.65 10.33 -3.3 10.66 -5 11 C-5 10.34 -5 9.68 -5 9 C-4.34 9 -3.68 9 -3 9 C-2.01 6.03 -1.02 3.06 0 0 Z " fill="#DB756D" transform="translate(47,288)"/>
<path d="M0 0 C0.33 0 0.66 0 1 0 C1 3.63 1 7.26 1 11 C-0.65 11 -2.3 11 -4 11 C-3.5247412 9.35303396 -3.04468109 7.70745272 -2.5625 6.0625 C-2.29566406 5.14597656 -2.02882812 4.22945313 -1.75390625 3.28515625 C-1 1 -1 1 0 0 Z " fill="#F3D0CE" transform="translate(44,330)"/>
<path d="M0 0 C-1.98 2.97 -1.98 2.97 -4 6 C-5.32 5.34 -6.64 4.68 -8 4 C-8 3.01 -8 2.02 -8 1 C-5.07175348 0.02391783 -3.04386724 -0.08226668 0 0 Z " fill="#E49891" transform="translate(72,277)"/>
<path d="M0 0 C0.99 0.495 0.99 0.495 2 1 C2 1.66 2 2.32 2 3 C2.66 3 3.32 3 4 3 C4 5.31 4 7.62 4 10 C3.34 9.34 2.68 8.68 2 8 C1.34 8.99 0.68 9.98 0 11 C0 7.37 0 3.74 0 0 Z " fill="#D7645C" transform="translate(109,345)"/>
<path d="M0 0 C3.375 4.5 3.375 4.5 3.1875 8.75 C3.16042969 9.54921875 3.13335937 10.3484375 3.10546875 11.171875 C3.07066406 11.77515625 3.03585938 12.3784375 3 13 C1.68 12.34 0.36 11.68 -1 11 C-0.67 7.37 -0.34 3.74 0 0 Z " fill="#DA716A" transform="translate(90,341)"/>
<path d="M0 0 C-0.66 0.66 -1.32 1.32 -2 2 C-2.144375 2.680625 -2.28875 3.36125 -2.4375 4.0625 C-2.623125 4.701875 -2.80875 5.34125 -3 6 C-3.99 6.33 -4.98 6.66 -6 7 C-6 5.35 -6 3.7 -6 2 C-6.66 1.67 -7.32 1.34 -8 1 C-5.07175348 0.02391783 -3.04386724 -0.08226668 0 0 Z " fill="#EAADAA" transform="translate(65,300)"/>
<path d="M0 0 C1.65 0.33 3.3 0.66 5 1 C4.67 1.66 4.34 2.32 4 3 C3.34 3 2.68 3 2 3 C1.34 5.31 0.68 7.62 0 10 C-0.66 9.34 -1.32 8.68 -2 8 C-1.67 7.4225 -1.34 6.845 -1 6.25 C0.27075898 3.80116138 0.27075898 3.80116138 0 0 Z " fill="#D7635A" transform="translate(124,348)"/>
<path d="M0 0 C2.17854707 3.2678206 3.49760034 6.38058265 5 10 C3.68 10 2.36 10 1 10 C-0.60725635 6.78548731 -0.05748185 3.56387464 0 0 Z " fill="#F8E3E2" transform="translate(92,345)"/>
<path d="M0 0 C0.99 0 1.98 0 3 0 C3 1.65 3 3.3 3 5 C1.68 5.33 0.36 5.66 -1 6 C-1.042721 4.33388095 -1.04063832 2.66617115 -1 1 C-0.67 0.67 -0.34 0.34 0 0 Z " fill="#F6DDDC" transform="translate(70,320)"/>
<path d="M0 0 C2.96175123 0.61277612 4.38058783 1.25372522 7 3 C6.67 3.99 6.34 4.98 6 6 C1.125 3.375 1.125 3.375 0 0 Z " fill="#F8E7E6" transform="translate(129,351)"/>
<path d="M0 0 C2.375 0.25 2.375 0.25 5 1 C6.3125 3.0625 6.3125 3.0625 7 5 C4.625 4.75 4.625 4.75 2 4 C0.6875 1.9375 0.6875 1.9375 0 0 Z " fill="#F9E6E5" transform="translate(91,320)"/>
<path d="M0 0 C0 1.65 0 3.3 0 5 C-0.66 5 -1.32 5 -2 5 C-2.33 4.34 -2.66 3.68 -3 3 C-4.98 3 -6.96 3 -9 3 C-6.31795079 0.31795079 -3.73391546 0 0 0 Z " fill="#D15044" transform="translate(45,347)"/>
<path d="M0 0 C0.99 0.33 1.98 0.66 3 1 C2.6875 2.9375 2.6875 2.9375 2 5 C1.01 5.33 0.02 5.66 -1 6 C-1.042721 4.33388095 -1.04063832 2.66617115 -1 1 C-0.67 0.67 -0.34 0.34 0 0 Z " fill="#F7E1E0" transform="translate(60,308)"/>
<path d="M0 0 C1.32 0 2.64 0 4 0 C4 2.64 4 5.28 4 8 C3.34 8 2.68 8 2 8 C1.34 5.36 0.68 2.72 0 0 Z " fill="#C4230D" transform="translate(55,302)"/>
<path d="M0 0 C0.66 0 1.32 0 2 0 C2.66 1.65 3.32 3.3 4 5 C2.35 5.33 0.7 5.66 -1 6 C-1.33 5.01 -1.66 4.02 -2 3 C-1.34 2.01 -0.68 1.02 0 0 Z " fill="#F8E5E5" transform="translate(64,288)"/>
<path d="M0 0 C0 1.32 0 2.64 0 4 C-0.66 4 -1.32 4 -2 4 C-2 3.34 -2 2.68 -2 2 C-3.65 2.33 -5.3 2.66 -7 3 C-7.33 2.34 -7.66 1.68 -8 1 C-5.07175348 0.02391783 -3.04386724 -0.08226668 0 0 Z " fill="#D2584E" transform="translate(58,344)"/>
<path d="M0 0 C1.32 0.33 2.64 0.66 4 1 C3.67 2.32 3.34 3.64 3 5 C1.35 5 -0.3 5 -2 5 C-1.34 4.67 -0.68 4.34 0 4 C0 2.68 0 1.36 0 0 Z " fill="#C52510" transform="translate(98,308)"/>
<path d="M0 0 C1.32 0 2.64 0 4 0 C4 0.66 4 1.32 4 2 C3.01 2 2.02 2 1 2 C1 3.32 1 4.64 1 6 C0.34 6 -0.32 6 -1 6 C-1.042721 4.33388095 -1.04063832 2.66617115 -1 1 C-0.67 0.67 -0.34 0.34 0 0 Z " fill="#F6DBDA" transform="translate(71,341)"/>
</svg>
