<?xml version="1.0" encoding="UTF-8"?>
<svg version="1.1" xmlns="http://www.w3.org/2000/svg" width="560" height="560">
<path d="M0 0 C1.25721418 -0.00367669 2.51442837 -0.00735338 3.80973995 -0.01114148 C7.28368116 -0.02110102 10.75760511 -0.02486847 14.23155856 -0.02753079 C17.98511908 -0.03145207 21.73866615 -0.04102924 25.49221802 -0.04974365 C34.55098816 -0.06945967 43.60975933 -0.07956938 52.66854554 -0.08847144 C56.94436388 -0.09286346 61.220181 -0.09822799 65.49599838 -0.10346031 C79.72777359 -0.12046987 93.95954806 -0.13496029 108.19133186 -0.14220905 C111.88039272 -0.14411866 115.56945357 -0.14603904 119.2585144 -0.147995 C120.17531014 -0.14847874 121.09210588 -0.14896248 122.03668331 -0.14946087 C136.86202928 -0.15774721 151.6872942 -0.18306169 166.51260485 -0.21557567 C181.76587333 -0.24875279 197.01910078 -0.26666751 212.27240551 -0.26985329 C220.82329836 -0.27200887 229.37407312 -0.28061647 237.92493057 -0.30631447 C245.21296508 -0.3281678 252.50085281 -0.33600091 259.78891636 -0.32634769 C263.49805031 -0.32184449 267.20688238 -0.32345214 270.91597366 -0.34310913 C313.98454726 -0.55829349 351.53281577 10.27028637 382.79220581 41.02217102 C413.01425977 71.6726491 422.92225618 110.28751469 422.80937982 152.24849558 C422.80251834 156.03044101 422.81310526 159.81234683 422.82131958 163.59428406 C422.83458431 170.98049374 422.83181182 178.36661142 422.82308166 185.75282454 C422.81627671 191.76152911 422.81540047 197.77020808 422.81865311 203.77891541 C422.81911281 204.63761649 422.8195725 205.49631758 422.82004613 206.38103992 C422.82100541 208.12606041 422.82197806 209.8710809 422.82296391 211.61610138 C422.83149653 227.93789746 422.82171719 244.2596428 422.80556281 260.58143055 C422.79216157 274.55356474 422.79449026 288.52562412 422.80831909 302.49775696 C422.82441264 318.7654439 422.83067276 335.0330865 422.8214823 351.3007803 C422.82052676 353.03899574 422.81958365 354.77721118 422.81865311 356.51542664 C422.81819028 357.37042214 422.81772745 358.22541765 422.8172506 359.10632211 C422.81467201 365.10030619 422.81900716 371.09426189 422.82609177 377.08824158 C422.83454907 384.40364577 422.83213848 391.71895352 422.81624953 399.03434682 C422.80842326 402.75906502 422.80517739 406.48362307 422.81519699 410.20833969 C422.92034375 452.79814731 411.4311832 489.80331967 381.29220581 520.77217102 C351.56772321 550.41628615 313.35722144 560.62718355 272.5860405 560.5720787 C271.87558783 560.57095156 271.16513516 560.56982442 270.43315363 560.56866312 C266.667404 560.56596281 262.90171182 560.58058046 259.13598633 560.59275818 C251.77918864 560.61369121 244.42246996 560.61835997 237.06564599 560.61657029 C231.07607754 560.61525618 225.08653347 560.61909968 219.0969696 560.62649536 C200.20754459 560.64937167 181.3181946 560.65491162 162.42875844 560.64698106 C147.58657943 560.64141268 132.74457339 560.66220952 117.90243477 560.69534153 C102.60704321 560.72921612 87.31173419 560.74422958 72.01630449 560.7396245 C63.4514642 560.73739321 54.88678362 560.74242419 46.32197571 560.76751709 C39.02725201 560.78870946 31.73277551 560.79194739 24.43804103 560.7732175 C20.72842215 560.76416741 17.01926185 560.76257806 13.30968094 560.78357315 C-12.28576823 560.91856271 -35.18300815 557.85212613 -58.58279419 547.14717102 C-59.58439575 546.70373352 -60.58599731 546.26029602 -61.61795044 545.80342102 C-93.85597059 530.68067306 -118.56761736 500.22383514 -130.58279419 467.14717102 C-131.56502592 464.14386108 -132.46814255 461.12379948 -133.33279419 458.08467102 C-133.53163208 457.38938293 -133.73046997 456.69409485 -133.93533325 455.97773743 C-136.87884894 445.0392696 -137.88015156 434.14977532 -137.8434906 422.85353088 C-137.84731615 421.58034964 -137.85114169 420.3071684 -137.85508317 418.99540591 C-137.86527238 415.5002751 -137.86320482 412.0052479 -137.85890257 408.51010895 C-137.85641864 404.72537154 -137.8654701 400.94065801 -137.87294006 397.15592957 C-137.88564349 389.75582343 -137.88748618 382.35575365 -137.8851398 374.95563844 C-137.88335143 368.93540007 -137.88511737 362.91517267 -137.88936424 356.89493561 C-137.88995943 356.03569256 -137.89055462 355.17644951 -137.89116785 354.29116879 C-137.89237969 352.54518217 -137.89359383 350.79919554 -137.89481022 349.05320892 C-137.90566918 332.70473769 -137.90353119 316.35628712 -137.89742538 300.00781474 C-137.89225885 285.08242363 -137.90350762 270.15709784 -137.9225236 255.23171964 C-137.94194 239.87322129 -137.95015127 224.51475378 -137.94640034 209.15624309 C-137.94449391 200.54692735 -137.94692111 191.93766718 -137.96111488 183.32836151 C-137.97307833 175.99822754 -137.97437838 168.66818333 -137.96232472 161.33804801 C-137.95647036 157.60525211 -137.95523991 153.87261997 -137.96732712 150.13983536 C-138.05428196 121.34458086 -138.05428196 121.34458086 -134.58279419 107.14717102 C-134.37497975 106.29679386 -134.16716532 105.4464167 -133.95305347 104.57027054 C-123.93443315 67.31257425 -100.28172592 36.68412492 -66.98513794 17.46357727 C-46.10671681 5.78599818 -23.91800709 -0.0037757 0 0 Z " fill="#FEFEFE" transform="translate(137.58279418945313,-0.1471710205078125)"/>
<path d="M0 0 C0.76202728 0.00115814 1.52405457 0.00231628 2.30917358 0.00350952 C14.71429044 0.04065108 26.68409969 0.89959796 38.875 3.3125 C40.08671875 3.5290625 41.2984375 3.745625 42.546875 3.96875 C77.72553583 10.77752306 110.81842237 26.88597802 137.875 50.3125 C139.09896484 51.37017578 139.09896484 51.37017578 140.34765625 52.44921875 C177.35287574 85.11468191 202.37634199 129.37283244 209.875 178.3125 C210.12987183 179.89998047 210.12987183 179.89998047 210.38989258 181.51953125 C211.85636857 191.37362227 212.2331661 200.99110729 212.1875 210.9375 C212.18634186 211.72353607 212.18518372 212.50957214 212.18399048 213.31942749 C212.14753926 225.86835763 211.32516433 237.98324497 208.875 250.3125 C208.67221436 251.43688477 208.46942871 252.56126953 208.26049805 253.71972656 C206.60966346 262.57062111 204.29700908 270.94782878 201.3125 279.4375 C201.09601807 280.05813324 200.87953613 280.67876648 200.65649414 281.31820679 C190.62151883 309.96312606 175.52481931 335.91774049 154.34960938 357.78662109 C153.32865211 358.84307522 152.31476855 359.90639417 151.30664062 360.97509766 C131.76610303 381.67709492 107.93077394 397.02731226 81.875 408.3125 C81.23530273 408.59625488 80.59560547 408.88000977 79.93652344 409.17236328 C66.52481642 415.07193059 66.52481642 415.07193059 59.875 413.3125 C56.59324682 410.78281526 55.18256223 409.23518669 53.875 405.3125 C53.77177024 403.03045584 53.72911816 400.74552879 53.71728516 398.46118164 C53.71220444 397.76800842 53.70712372 397.07483521 53.70188904 396.36065674 C53.69119105 394.85471419 53.68256862 393.3487558 53.67576981 391.8427906 C53.66394575 389.44902001 53.64447894 387.05542701 53.62265015 384.66172791 C53.56118851 377.85519452 53.50722987 371.04867575 53.47363281 364.24194336 C53.4525178 360.07562737 53.41707287 355.90963002 53.37287521 351.74349785 C53.35883626 350.1653262 53.35002054 348.58709811 53.34682083 347.00886726 C53.32051963 335.26702671 52.73407768 323.9440812 46.3125 313.75 C45.71308594 312.77933594 45.11367188 311.80867188 44.49609375 310.80859375 C43.3011442 308.96865938 42.09196507 307.1379476 40.875 305.3125 C43.46843186 304.01578407 45.73370585 303.94663918 48.625 303.625 C73.34098321 300.15208749 98.59872238 291.56903314 115.04296875 271.8359375 C125.44566265 257.50728023 131.41487895 241.76343059 133.875 224.3125 C133.9685376 223.6529834 134.0620752 222.9934668 134.15844727 222.31396484 C136.24961279 205.91967889 136.84432149 187.9034252 130.875 172.3125 C130.524375 171.28898438 130.17375 170.26546875 129.8125 169.2109375 C126.59508503 160.56413476 121.43995721 151.87745721 114.875 145.3125 C115.12474239 141.81610655 115.58518801 138.53276102 116.39453125 135.125 C120.04201093 119.59041026 118.13941021 102.92945716 111.875 88.3125 C94.65137611 86.67041721 77.5524613 95.50496665 63.54223633 104.77880859 C56.70809502 109.27218895 56.70809502 109.27218895 52 109.5 C50.61684014 109.13369707 49.24302385 108.73180868 47.875 108.3125 C45.42017521 107.79554928 42.96135872 107.29738767 40.5 106.8125 C39.29601562 106.5546875 38.09203125 106.296875 36.8515625 106.03125 C26.53770841 104.0649861 16.16503481 104.09500279 5.70214844 104.07226562 C3.04068681 104.06264704 0.38002847 104.03158787 -2.28125 104 C-15.88777951 103.91624426 -29.27779844 105.02119957 -42.49902344 108.39355469 C-47.00624232 109.53583666 -50.32571962 110.23817479 -54.5546875 108.0625 C-55.36164063 107.485 -56.16859375 106.9075 -57 106.3125 C-70.22394012 97.46070268 -87.63665445 88.0067038 -103.9375 88.25 C-104.72769531 88.25902344 -105.51789063 88.26804687 -106.33203125 88.27734375 C-106.92371094 88.28894531 -107.51539063 88.30054688 -108.125 88.3125 C-108.58963869 89.62278111 -109.04624581 90.93590989 -109.5 92.25 C-109.75523437 92.98089844 -110.01046875 93.71179688 -110.2734375 94.46484375 C-112.70281953 102.58878641 -113.47279112 110.07530558 -113.4375 118.5625 C-113.44535522 120.22575317 -113.44535522 120.22575317 -113.45336914 121.92260742 C-113.41058751 127.92658984 -112.95600709 132.93756813 -111.0625 138.625 C-109.96078657 142.46818637 -109.78676471 143.67332854 -111.68359375 147.2578125 C-113.67415422 149.82909298 -115.7546904 152.2829495 -117.87939453 154.74267578 C-132.17680294 172.76155781 -132.83482385 198.66345363 -130.69921875 220.44140625 C-127.79144509 243.73267326 -118.75921887 266.85869737 -100.625 282.4375 C-83.67544881 295.23506811 -62.16234599 302.84853904 -41.015625 304.00390625 C-39.125 304.3125 -39.125 304.3125 -37.125 306.3125 C-37.58390625 306.88355469 -38.0428125 307.45460938 -38.515625 308.04296875 C-42.93980971 313.88921283 -45.39694412 319.25940554 -47.30078125 326.33203125 C-47.57277344 327.31558594 -47.84476563 328.29914063 -48.125 329.3125 C-48.35445312 330.20710938 -48.58390625 331.10171875 -48.8203125 332.0234375 C-51.2885623 336.3539596 -56.23280559 337.0526759 -60.7734375 338.35546875 C-72.34825912 341.16933877 -83.75091493 340.45623049 -94.125 334.3125 C-101.60241352 329.45325865 -106.34698857 323.74627956 -111.125 316.3125 C-116.95112902 307.7808335 -123.49490806 301.33008553 -133.125 297.3125 C-134.094375 296.9 -135.06375 296.4875 -136.0625 296.0625 C-141.46151425 294.74029243 -146.77337039 294.79903009 -152.125 296.3125 C-150.9656226 303.10313907 -146.33794369 305.5197493 -141.125 309.3125 C-131.69531446 316.62743989 -126.56480864 325.13954085 -121.6875 335.875 C-116.0898243 348.05305969 -109.64591697 355.74444245 -97.125 361.3125 C-83.71737993 366.01351202 -70.30668438 366.86865303 -56.359375 363.75 C-54.125 363.3125 -54.125 363.3125 -50.125 363.3125 C-50.05066205 369.18405408 -49.99630883 375.05533219 -49.96020508 380.92724609 C-49.94514902 382.92338841 -49.92469973 384.91949781 -49.89868164 386.91552734 C-49.86215839 389.79012185 -49.84524163 392.66427772 -49.83203125 395.5390625 C-49.81654739 396.42679352 -49.80106354 397.31452454 -49.78511047 398.22915649 C-49.78373236 403.34049153 -50.23481404 406.90306353 -53.125 411.3125 C-57.03738194 413.70340008 -60.62449284 413.59660015 -65.125 413.3125 C-68.27168486 412.45205553 -71.24148577 411.25434192 -74.25 410 C-75.1152832 409.64462158 -75.98056641 409.28924316 -76.87207031 408.9230957 C-101.33566274 398.63016463 -122.80368006 384.48310421 -142.125 366.3125 C-142.96272949 365.52576904 -142.96272949 365.52576904 -143.81738281 364.72314453 C-158.34453669 350.96571882 -170.10959429 335.61451281 -180.125 318.3125 C-180.51139648 317.64814941 -180.89779297 316.98379883 -181.29589844 316.29931641 C-187.90375845 304.78679584 -192.68049106 292.79752966 -197.125 280.3125 C-197.61441143 278.97910356 -198.10397935 277.64576454 -198.59375 276.3125 C-209.98135182 244.09391924 -211.64881328 206.70209552 -205.125 173.3125 C-204.87556641 171.98992187 -204.87556641 171.98992187 -204.62109375 170.640625 C-198.16926106 137.1866777 -183.73454057 105.67948981 -162.125 79.3125 C-161.69751465 78.78350098 -161.2700293 78.25450195 -160.82958984 77.70947266 C-125.87419551 34.54299273 -74.51665766 6.38939324 -19.1585083 0.48971558 C-12.7869314 -0.06555271 -6.39057554 -0.03029619 0 0 Z " fill="#181616" transform="translate(278.125,73.6875)"/>
</svg>
