<?xml version="1.0" encoding="UTF-8"?>
<svg version="1.1" xmlns="http://www.w3.org/2000/svg" width="512" height="512">
<path d="M0 0 C1.06077255 -0.00671722 2.1215451 -0.01343445 3.21446228 -0.02035522 C6.72008961 -0.03934785 10.2255256 -0.04326016 13.73120117 -0.04541016 C16.17111795 -0.05183742 18.61103395 -0.05856573 21.0509491 -0.06558228 C26.1661457 -0.07755838 31.28127474 -0.08126277 36.39648438 -0.08007812 C42.94350949 -0.07987497 49.49010035 -0.10717221 56.03702259 -0.14162254 C61.07714315 -0.16388623 66.11715914 -0.16791581 71.15732384 -0.16685867 C73.5705992 -0.16921561 75.9838774 -0.17804428 78.39710426 -0.19352341 C81.77676205 -0.21317076 85.1554826 -0.2073493 88.53515625 -0.1953125 C89.52712006 -0.20655151 90.51908386 -0.21779053 91.54110718 -0.22937012 C98.82624198 -0.16360776 104.17378339 1.40933061 109.70385742 6.25537109 C110.24268555 6.90634766 110.78151367 7.55732422 111.33666992 8.22802734 C111.8909668 8.87642578 112.44526367 9.52482422 113.01635742 10.19287109 C116.69662766 15.53423627 116.74056191 20.30400218 116.6887207 26.57885742 C116.68901276 27.50617676 116.68930481 28.43349609 116.68960571 29.38891602 C116.68821528 32.44605958 116.67266742 35.50295774 116.65698242 38.56005859 C116.65325128 40.68283454 116.65040478 42.80561222 116.64840698 44.9283905 C116.64077853 50.50972262 116.62113671 56.0909503 116.59899902 61.67224121 C116.57852369 67.36985868 116.56940165 73.06749305 116.55932617 78.76513672 C116.53789015 89.94031276 116.50376363 101.11541136 116.46166992 112.29052734 C121.74166992 112.29052734 127.02166992 112.29052734 132.46166992 112.29052734 C132.55403892 116.56002763 132.63349759 120.82599571 132.68139648 125.09570312 C132.70138288 126.54471652 132.72858189 127.9936506 132.76342773 129.44238281 C132.98387497 138.85029261 133.04020735 146.06571524 126.49682617 153.53271484 C125.84584961 154.07154297 125.19487305 154.61037109 124.52416992 155.16552734 C123.87577148 155.71982422 123.22737305 156.27412109 122.55932617 156.84521484 C118.31883411 159.76696915 114.62960005 160.54137157 109.52336121 160.55795288 C108.33323929 160.56648285 107.14311737 160.57501282 105.91693115 160.58380127 C104.61967102 160.5828949 103.32241089 160.58198853 101.98583984 160.58105469 C100.59908182 160.58704232 99.21232712 160.59384841 97.82557678 160.60140991 C94.06510718 160.61905446 90.30472864 160.62376467 86.54422164 160.62504148 C84.19245381 160.62646465 81.84070901 160.63073741 79.48894691 160.63603592 C71.27760986 160.65453191 63.06633767 160.66270718 54.85498047 160.66113281 C47.21197633 160.6599319 39.56925481 160.68102529 31.92632216 160.71262014 C25.3554366 160.73881111 18.78464317 160.74949891 12.21370584 160.74822199 C8.29320447 160.74771314 4.37295429 160.75335368 0.45250511 160.77457809 C-3.23713071 160.79400801 -6.92627701 160.79405301 -10.61593056 160.77954483 C-12.60631315 160.77647217 -14.59669604 160.79310035 -16.58700562 160.8104248 C-24.81168981 160.75285951 -30.42010792 159.89935269 -36.78051758 154.32568359 C-37.58875977 153.34921875 -37.58875977 153.34921875 -38.41333008 152.35302734 C-38.96762695 151.70462891 -39.52192383 151.05623047 -40.09301758 150.38818359 C-43.34106465 145.67412609 -43.78033286 141.69386484 -43.73364258 136.02099609 C-43.72939774 134.99949211 -43.72939774 134.99949211 -43.72506714 133.95735168 C-43.71393533 131.79739279 -43.68884464 129.6378594 -43.66333008 127.47802734 C-43.65329119 126.00733024 -43.64416693 124.53662659 -43.63598633 123.06591797 C-43.61572637 119.4738281 -43.57656675 115.88265003 -43.53833008 112.29052734 C-38.25833008 112.29052734 -32.97833008 112.29052734 -27.53833008 112.29052734 C-27.54721252 111.118125 -27.55609497 109.94572266 -27.56524658 108.73779297 C-27.64643257 97.6737983 -27.70634366 86.60986431 -27.74557877 75.54563904 C-27.76642826 69.85777341 -27.79469812 64.17014881 -27.84008789 58.48242188 C-27.88363912 52.99053589 -27.90748702 47.49888133 -27.91783905 42.00683594 C-27.92521372 39.91451374 -27.93961476 37.8222038 -27.96125031 35.72998047 C-27.99040723 32.79285591 -27.9942809 29.85668024 -27.99243164 26.91943359 C-28.00681274 26.05987564 -28.02119385 25.20031769 -28.03601074 24.31471252 C-27.98941999 17.44859237 -26.12417616 12.24137356 -21.57348633 7.04833984 C-20.92250977 6.50951172 -20.2715332 5.97068359 -19.60083008 5.41552734 C-18.95243164 4.86123047 -18.3040332 4.30693359 -17.63598633 3.73583984 C-11.96442103 -0.17194258 -6.66978817 -0.0060572 0 0 Z " fill="#000000" transform="translate(211.538330078125,15.70947265625)"/>
<path d="M0 0 C1.07824639 -0.00170885 2.15649279 -0.0034177 3.26741332 -0.00517833 C6.88648793 -0.00847698 10.50537784 0.00253683 14.12443542 0.01345825 C16.71627295 0.01402228 19.30811079 0.01370596 21.89994812 0.01257324 C27.48312104 0.01152486 33.06624719 0.01779658 38.64940834 0.02904892 C46.72170165 0.04530728 54.79397237 0.05051227 62.86628028 0.0530249 C75.96324976 0.05740148 89.06019432 0.07070957 102.15715027 0.08963013 C114.87915421 0.10798989 127.60115138 0.12214593 140.32316589 0.13064575 C141.10743211 0.1311712 141.89169833 0.13169665 142.6997302 0.13223802 C146.63418772 0.1348481 150.56864529 0.13737552 154.5031029 0.13986182 C187.14016352 0.16059316 219.7771936 0.19581767 252.41423035 0.24050903 C252.51425093 4.73874259 252.58623206 9.23636095 252.63395691 13.73538208 C252.65388345 15.26088763 252.6810352 16.78631872 252.71598816 18.31155396 C253.02284164 32.06129746 251.24107389 42.94664718 241.41423035 53.24050903 C231.76722458 62.44984346 221.45548698 64.84926801 208.40641785 64.75808716 C207.1545166 64.76509644 205.90261536 64.77210571 204.61277771 64.77932739 C201.2116247 64.79381569 197.81145789 64.79056243 194.41036224 64.77781105 C190.83074742 64.76759769 187.25117126 64.77709963 183.67155457 64.78335571 C177.66317795 64.7906081 171.65499878 64.78110814 165.64665222 64.76199341 C158.72608298 64.74022912 151.80598531 64.74728222 144.88542747 64.76929903 C138.91561571 64.78752218 132.9459449 64.7899778 126.97611427 64.77954435 C123.42283539 64.77334716 119.86977727 64.77236842 116.31651306 64.78569031 C112.351507 64.7995208 108.38701804 64.78028668 104.42204285 64.75808716 C102.68389313 64.77023254 102.68389313 64.77023254 100.91062927 64.78262329 C91.58024989 64.68634342 82.71319529 62.8572464 75.41423035 56.67800903 C74.71298035 56.09921997 74.01173035 55.52043091 73.28923035 54.92410278 C69.74454709 51.74127261 69.74454709 51.74127261 68.41423035 50.24050903 C68.41423035 49.58050903 68.41423035 48.92050903 68.41423035 48.24050903 C66.95630066 48.2538327 66.95630066 48.2538327 65.46891785 48.26742554 C56.28860193 48.34867416 47.1083594 48.40855236 37.92776489 48.44775772 C33.2084194 48.46859159 28.48936524 48.49683208 23.77018738 48.54226685 C19.21197158 48.58587498 14.65403521 48.60967771 10.09562683 48.62001801 C8.36055608 48.62738259 6.62549982 48.64176387 4.89054871 48.66342926 C2.45149743 48.69266315 0.01358616 48.69645685 -2.4256134 48.6946106 C-3.49053261 48.71618225 -3.49053261 48.71618225 -4.57696533 48.7381897 C-10.9927928 48.68598069 -16.05689138 46.4565818 -20.82795715 42.27566528 C-21.36678528 41.62468872 -21.9056134 40.97371216 -22.46076965 40.30300903 C-23.01506653 39.6546106 -23.5693634 39.00621216 -24.14045715 38.33816528 C-28.61989062 31.83693346 -28.26040694 24.86909987 -27.58576965 17.24050903 C-25.90491383 10.5809157 -21.12198643 6.05503456 -15.58576965 2.24050903 C-10.6236825 -0.46868243 -5.49601035 -0.03174012 0 0 Z " fill="#000000" transform="translate(99.58576965332031,431.7594909667969)"/>
<path d="M0 0 C2.04146591 -0.00436055 4.08074385 -0.04068319 6.12182617 -0.07861328 C14.90752544 -0.10464498 20.70890427 0.395706 27.48706055 6.33544922 C28.02588867 6.98642578 28.5647168 7.63740234 29.11987305 8.30810547 C29.95131836 9.28070313 29.95131836 9.28070313 30.79956055 10.27294922 C35.94359662 17.73875293 34.24487305 22.31399481 34.24487305 32.37060547 C47.44487305 32.37060547 60.64487305 32.37060547 74.24487305 32.37060547 C74.24487305 27.42060547 74.24487305 22.47060547 74.24487305 17.37060547 C76.49617256 10.61670692 80.38696064 6.40678348 86.24487305 2.37060547 C91.98400713 -0.40885133 97.73934097 -0.00149687 104 0 C106.04146591 -0.00436055 108.08074385 -0.04068319 110.12182617 -0.07861328 C118.90752544 -0.10464498 124.70890427 0.395706 131.48706055 6.33544922 C132.02588867 6.98642578 132.5647168 7.63740234 133.11987305 8.30810547 C133.67416992 8.95650391 134.2284668 9.60490234 134.79956055 10.27294922 C138.05687018 15.00044996 138.54269627 19.34631169 138.53540039 24.97143555 C138.54211761 25.72009384 138.54883484 26.46875214 138.55575562 27.24009705 C138.57470073 29.7068451 138.57865817 32.17332051 138.58081055 34.64013672 C138.58724144 36.3626059 138.59397002 38.08507399 138.60098267 39.80754089 C138.61294709 43.41623465 138.6166644 47.02483274 138.61547852 50.63354492 C138.6152755 55.24355252 138.64256327 59.85294245 138.67702293 64.46280384 C138.69933069 68.02059206 138.70331486 71.57823262 138.70225906 75.1360836 C138.70460974 76.83484714 138.71340308 78.53361508 138.7289238 80.23230934 C138.8767551 98.08491899 138.8767551 98.08491899 132.2800293 105.61279297 C131.62905273 106.15162109 130.97807617 106.69044922 130.30737305 107.24560547 C129.65897461 107.79990234 129.01057617 108.35419922 128.3425293 108.92529297 C122.13605728 113.20163309 115.78049998 112.74295409 108.48974609 112.74121094 C106.44828018 112.74557149 104.40900224 112.78189413 102.36791992 112.81982422 C93.58222065 112.84585592 87.78084182 112.34550494 81.00268555 106.40576172 C80.46385742 105.75478516 79.9250293 105.10380859 79.36987305 104.43310547 C78.81557617 103.78470703 78.2612793 103.13630859 77.69018555 102.46826172 C72.54614947 95.00245801 74.24487305 90.42721613 74.24487305 80.37060547 C61.04487305 80.37060547 47.84487305 80.37060547 34.24487305 80.37060547 C34.24487305 85.32060547 34.24487305 90.27060547 34.24487305 95.37060547 C31.99357353 102.12450402 28.10278546 106.33442746 22.24487305 110.37060547 C16.50573896 113.15006227 10.75040512 112.74270781 4.48974609 112.74121094 C2.44828018 112.74557149 0.40900224 112.78189413 -1.63208008 112.81982422 C-10.41777935 112.84585592 -16.21915818 112.34550494 -22.99731445 106.40576172 C-23.53614258 105.75478516 -24.0749707 105.10380859 -24.63012695 104.43310547 C-25.18442383 103.78470703 -25.7387207 103.13630859 -26.30981445 102.46826172 C-29.56712409 97.74076098 -30.05295018 93.39489925 -30.0456543 87.76977539 C-30.05237152 87.0211171 -30.05908875 86.2724588 -30.06600952 85.50111389 C-30.08495463 83.03436584 -30.08891207 80.56789043 -30.09106445 78.10107422 C-30.09749535 76.37860504 -30.10422393 74.65613695 -30.11123657 72.93367004 C-30.123201 69.32497629 -30.12691831 65.7163782 -30.12573242 62.10766602 C-30.1255294 57.49765842 -30.15281718 52.88826848 -30.18727684 48.2784071 C-30.2095846 44.72061888 -30.21356876 41.16297832 -30.21251297 37.60512733 C-30.21486364 35.9063638 -30.22365698 34.20759586 -30.2391777 32.5089016 C-30.38700901 14.65629195 -30.38700901 14.65629195 -23.7902832 7.12841797 C-23.13930664 6.58958984 -22.48833008 6.05076172 -21.81762695 5.49560547 C-21.16922852 4.94130859 -20.52083008 4.38701172 -19.8527832 3.81591797 C-13.64631119 -0.46042215 -7.29075389 -0.00174316 0 0 Z " fill="#000000" transform="translate(45.755126953125,199.62939453125)"/>
<path d="M0 0 C24.10726251 -0.87310005 40.06403205 4.63242257 58.22265625 21.00390625 C62.70884322 25.28263949 66.18673109 29.89299871 69.5546875 35.09375 C70.03164063 35.7228125 70.50859375 36.351875 71 37 C71.66 37 72.32 37 73 37 C74.22606617 35.41933626 75.37978665 33.78236483 76.5 32.125 C87.86795796 16.20577701 104.30711551 3.35257362 124 0 C127.50615467 -0.21902822 130.98889923 -0.19134347 134.5 -0.125 C135.87671875 -0.11146484 135.87671875 -0.11146484 137.28125 -0.09765625 C139.52111556 -0.07432432 141.76041183 -0.04159235 144 0 C144.82178482 22.69039209 140.40517684 38.66255871 125 56 C124.37351562 56.71027344 123.74703125 57.42054688 123.1015625 58.15234375 C111.33670663 70.68663112 96.9558127 77.77959596 80 80 C80 85.28 80 90.56 80 96 C95.84 96 111.68 96 128 96 C128 101.28 128 106.56 128 112 C125.36 112.33 122.72 112.66 120 113 C119.93371399 113.55852661 119.86742798 114.11705322 119.7991333 114.69250488 C119.10273613 120.53523708 118.3854338 126.37513821 117.65625 132.21386719 C117.38726769 134.38964955 117.12352065 136.56608607 116.86523438 138.74316406 C116.49181593 141.88275144 116.09927539 145.01945975 115.703125 148.15625 C115.5372287 149.60360535 115.5372287 149.60360535 115.36798096 151.0802002 C114.35392321 158.8691319 112.30325804 165.70938245 106.0625 170.875 C105.08990234 171.70644531 105.08990234 171.70644531 104.09765625 172.5546875 C100.20263187 175.23841007 96.67249874 176.24849523 91.96948242 176.29052734 C90.99464401 176.30328705 90.0198056 176.31604675 89.01542664 176.32919312 C87.97264053 176.33141876 86.92985443 176.33364441 85.85546875 176.3359375 C84.22983757 176.3459227 84.22983757 176.3459227 82.57136536 176.35610962 C80.28091119 176.36622282 77.99042764 176.37092705 75.69995117 176.37060547 C72.21027589 176.3749715 68.72187296 176.41128726 65.23242188 176.44921875 C63.00260847 176.45508871 60.77278909 176.4590569 58.54296875 176.4609375 C57.50625534 176.47530853 56.46954193 176.48967957 55.40141296 176.50448608 C47.89086728 176.45753437 42.46465793 175.03610268 36.7578125 170.03515625 C35.94957031 169.05869141 35.94957031 169.05869141 35.125 168.0625 C34.57070313 167.41410156 34.01640625 166.76570312 33.4453125 166.09765625 C29.71661539 160.68600666 29.27750003 154.81631978 28.4921875 148.44921875 C28.36184113 147.43527542 28.23149475 146.42133209 28.09719849 145.37666321 C27.68355576 142.14770217 27.27916049 138.91766021 26.875 135.6875 C26.59566167 133.49406291 26.31572069 131.30070247 26.03515625 129.10742188 C25.34978325 123.73915015 24.6719928 118.36996214 24 113 C21.36 112.67 18.72 112.34 16 112 C16 106.72 16 101.44 16 96 C31.84 96 47.68 96 64 96 C64 90.72 64 85.44 64 80 C62.2675 79.773125 60.535 79.54625 58.75 79.3125 C39.72295124 76.08909409 23.49211516 63.13820792 12 48 C1.70040647 32.60720088 -0.66300962 18.30643221 0 0 Z " fill="#000000" transform="translate(352,168)"/>
<path d="M0 0 C14.68250132 10.20720437 25.60416255 23.76154778 29.75219727 41.49169922 C32.82327568 60.09515389 29.5502972 78.09311442 19.125 93.75 C9.08186797 107.39350011 -6.04542745 117.11068198 -22.875 119.75 C-43.02784804 121.34331318 -61.10708318 118.16091923 -76.84155273 104.81835938 C-87.86547894 94.89138491 -96.85569494 80.11343833 -98.09594727 65.07006836 C-98.56990818 53.14054249 -98.80334888 41.81858684 -93.875 30.75 C-93.51277344 29.87730469 -93.15054688 29.00460938 -92.77734375 28.10546875 C-85.8549626 12.82929883 -73.23462165 1.78063924 -57.87109375 -4.47265625 C-38.93392049 -11.50790437 -17.48941603 -10.43527048 0 0 Z " fill="#FBA4A2" transform="translate(305.875,200.25)"/>
<path d="M0 0 C3.62067021 2.7199763 6.78502799 5.81773846 10 9 C11.04013586 9.98209256 12.08186071 10.9625044 13.125 11.94140625 C14.18878656 12.95959502 15.25130536 13.97911011 16.3125 15 C16.80403564 15.46140381 17.29557129 15.92280762 17.80200195 16.39819336 C22.21150073 20.74023423 26.58373698 26.11068826 27.26065826 32.43543434 C27.21594918 34.09986004 27.14512169 35.7637571 27.05031204 37.42608166 C26.60302812 45.27657317 27.19275301 51.23960747 32.32425308 57.40066814 C35.60183603 60.88041713 39.05591466 64.12625678 42.578125 67.35546875 C44.07159487 68.7987862 45.56026781 70.24708197 47.04437256 71.70002747 C50.93308682 75.48490381 54.87571774 79.20784061 58.83587646 82.91772461 C65.17178266 88.87478677 71.41512644 94.92919929 77.66835785 100.97274208 C79.84519566 103.06186987 82.04197229 105.12790794 84.24395752 107.19047546 C98.71778514 120.87993628 98.71778514 120.87993628 100.6640625 131.6875 C100.57249664 139.45228479 99.81632271 145.70173184 95 152 C89.20011527 157.61279168 83.42088394 160.28314107 75.3125 160.4375 C74.17425781 160.47746094 73.03601563 160.51742187 71.86328125 160.55859375 C59.95201854 158.83633837 53.00101569 150.44725686 45.1764431 142.09378815 C43.06636141 139.84902147 40.93379699 137.62806151 38.7928009 135.41278076 C32.71125003 129.11897039 26.64396194 122.81349175 20.66040039 116.42626953 C16.98413587 112.5054746 13.25915949 108.63694107 9.49923134 104.79637909 C8.08801484 103.33612561 6.69514088 101.85788313 5.3228054 100.36103058 C-1.51398169 92.91834628 -6.88615668 87.47600108 -17.34218121 86.78078842 C-20.04689275 86.74706925 -22.72055357 86.82466772 -25.42201233 86.95114136 C-31.5736745 87.22760173 -35.48060602 85.03494554 -40 81 C-40.78084961 80.32356445 -41.56169922 79.64712891 -42.36621094 78.95019531 C-44.78589681 76.74646518 -47.0845438 74.46227983 -49.375 72.125 C-50.15488281 71.36058594 -50.93476563 70.59617187 -51.73828125 69.80859375 C-58.29249343 63.20956645 -62.60712763 56.79486743 -63.25 47.3125 C-62.89798068 32.66308076 -51.00979834 23.79602103 -41.36108398 14.06591797 C-40.40576276 13.09896447 -39.45495494 12.12753256 -38.50854492 11.15185547 C-27.80327298 0.11817845 -15.22902274 -7.93231235 0 0 Z " fill="#000001" transform="translate(349,321)"/>
<path d="M0 0 C0.9778093 -0.00554901 1.95561859 -0.01109802 2.96305847 -0.01681519 C6.19136748 -0.02861436 9.41827378 -0.00433254 12.64648438 0.02148438 C14.89180436 0.02319546 17.13712635 0.02312982 19.38244629 0.0213623 C24.08670174 0.02301571 28.79048076 0.04171827 33.49462891 0.07324219 C39.52404007 0.11291941 45.55282712 0.11728746 51.58234406 0.10977936 C56.2183402 0.10670954 60.85419609 0.11883071 65.49015808 0.13591003 C67.71330383 0.14294039 69.93646548 0.14606452 72.15962219 0.1452179 C75.26686319 0.14701597 78.37335698 0.16839946 81.48046875 0.1953125 C82.39906174 0.1923819 83.31765472 0.18945129 84.26408386 0.18643188 C89.05386571 0.25042776 92.37603763 0.45115905 96.24023438 3.61523438 C97.88793271 6.91063105 97.36917423 10.5743903 97.35375977 14.19580078 C97.3538803 15.09805075 97.35400084 16.00030071 97.35412502 16.92989159 C97.35337691 19.85888484 97.34575324 22.78781496 97.33789062 25.71679688 C97.33642089 27.5217282 97.33540038 29.32665996 97.33483887 31.1315918 C97.3295896 37.83447914 97.31562847 44.53735737 97.30273438 51.24023438 C97.28210938 66.21398437 97.26148438 81.18773438 97.24023438 96.61523438 C60.28023437 96.61523438 23.32023437 96.61523438 -14.75976562 96.61523438 C-14.86289063 81.70335938 -14.96601563 66.79148437 -15.07226562 51.42773438 C-15.11778564 46.72241455 -15.16330566 42.01709473 -15.21020508 37.16918945 C-15.23278809 31.41540527 -15.23278809 31.41540527 -15.23698425 28.72026062 C-15.24465324 26.84125345 -15.26222059 24.96227063 -15.28764343 23.0834198 C-15.32426607 20.23397196 -15.32929529 17.38602501 -15.32739258 14.53637695 C-15.35437839 13.28458129 -15.35437839 13.28458129 -15.38190937 12.00749683 C-15.34619922 8.01017145 -15.02969572 6.03847759 -12.83427429 2.59611511 C-8.50667869 -0.19211927 -5.05095497 -0.07292898 0 0 Z " fill="#5BA3CB" transform="translate(214.759765625,31.384765625)"/>
<path d="M0 0 C14.68250132 10.20720437 25.60416255 23.76154778 29.75219727 41.49169922 C32.82327568 60.09515389 29.5502972 78.09311442 19.125 93.75 C9.08186797 107.39350011 -6.04542745 117.11068198 -22.875 119.75 C-43.02784804 121.34331318 -61.10708318 118.16091923 -76.84155273 104.81835938 C-87.86547894 94.89138491 -96.85569494 80.11343833 -98.09594727 65.07006836 C-98.56990818 53.14054249 -98.80334888 41.81858684 -93.875 30.75 C-93.51277344 29.87730469 -93.15054688 29.00460938 -92.77734375 28.10546875 C-85.8549626 12.82929883 -73.23462165 1.78063924 -57.87109375 -4.47265625 C-38.93392049 -11.50790437 -17.48941603 -10.43527048 0 0 Z M-70.578125 23.90625 C-79.90876875 35.4584756 -82.95148975 47.17467047 -81.875 61.75 C-79.84871967 75.32096993 -73.54613477 86.13100653 -62.875 94.75 C-50.69018747 102.73519268 -39.22981376 105.44538624 -24.76171875 103.28515625 C-12.22129422 100.53634724 -0.87951527 94.06894255 6.20507812 83.07373047 C13.38700087 70.7574825 15.93377499 58.42553402 13.5625 44.25 C10.54503018 32.90847551 3.41115325 22.008843 -6.56298828 15.67871094 C-28.31355611 3.12229559 -52.90313109 5.21803987 -70.578125 23.90625 Z " fill="#010000" transform="translate(305.875,200.25)"/>
<path d="M0 0 C52.8 0 105.6 0 160 0 C160 17.47638604 160 17.47638604 153.09765625 25.1015625 C145.7441357 31.96108455 138.8647702 32.29841341 129.15478516 32.29052734 C127.96707016 32.29724457 126.77935516 32.30396179 125.5556488 32.31088257 C122.30966257 32.32659168 119.06383018 32.33323559 115.81781054 32.33451414 C113.78648193 32.33593931 111.75517987 32.34021579 109.72385788 32.34550858 C102.62773699 32.36399009 95.53169104 32.37218147 88.43554688 32.37060547 C81.83598767 32.36940428 75.2367556 32.39050669 68.63727915 32.4220928 C62.9580837 32.44829919 57.27899484 32.45897096 51.59973943 32.45769465 C48.21355821 32.45718633 44.82766802 32.46279686 41.44154739 32.48405075 C37.66209095 32.50367442 33.88347424 32.49788589 30.10400391 32.48583984 C28.99205154 32.49707886 27.88009918 32.50831787 26.73445129 32.51989746 C18.88256906 32.45639477 13.60194724 31.14455711 7.5390625 25.8515625 C6.90742188 25.11679687 6.27578125 24.38203125 5.625 23.625 C4.97789062 22.89539063 4.33078125 22.16578125 3.6640625 21.4140625 C-1.20240065 14.35426385 0 8.80349345 0 0 Z " fill="#5BA3CB" transform="translate(176,448)"/>
<path d="M0 0 C2.63647461 1.71240234 2.63647461 1.71240234 4.90234375 4.0859375 C6.14274414 5.35824219 6.14274414 5.35824219 7.40820312 6.65625 C8.24287109 7.5534375 9.07753906 8.450625 9.9375 9.375 C11.23010742 10.70917969 11.23010742 10.70917969 12.54882812 12.0703125 C20.02267081 19.84452239 20.02267081 19.84452239 19.95786285 23.14763069 C19.89527031 24.02930349 19.83267776 24.9109763 19.76818848 25.81936646 C19.37016873 35.6118825 19.2010845 44.20600166 25.63355255 52.08247185 C29.13028072 55.83734225 32.81869508 59.33277533 36.59375 62.8046875 C38.18684364 64.35221863 39.77477796 65.90507683 41.35778809 67.46292114 C45.49749202 71.51004641 49.70096237 75.48365197 53.92327881 79.4442749 C58.23008228 83.50705644 62.47403089 87.63437497 66.72265625 91.7578125 C71.49176876 96.3802204 76.26681828 100.99502569 81.08728027 105.56393433 C81.8144072 106.25354752 82.54153412 106.94316071 83.29069519 107.65367126 C84.65176547 108.94226326 86.01506024 110.22851112 87.38093567 111.51200867 C92.85488406 116.69395654 92.85488406 116.69395654 93.3125 120.8125 C92.92835642 124.7307645 91.70743683 126.21293267 89 129 C85.98221063 130.50889469 84.37677363 130.50026276 81 130 C73.34074939 124.88028833 67.13238213 116.92391489 60.84999084 110.25271988 C56.65472543 105.81976552 52.40501637 101.43884798 48.16159821 97.05204964 C44.45730812 93.21674236 40.77689907 89.36322079 37.14208984 85.46191406 C20.37374674 65.43319737 20.37374674 65.43319737 -2.47961426 55.7975769 C-5.43614568 55.92300147 -8.22975497 56.29220142 -11.14648438 56.77294922 C-14.30042285 57.2378576 -15.5212281 57.28522873 -18.29174805 55.63468933 C-20.33213996 53.84997432 -22.16397657 51.99206092 -24 50 C-25.19884402 48.90746438 -26.4057955 47.82367326 -27.625 46.75390625 C-28.75237367 45.69262001 -29.87740236 44.62883692 -31 43.5625 C-31.58394531 43.04107422 -32.16789062 42.51964844 -32.76953125 41.98242188 C-33.59517578 41.18868164 -33.59517578 41.18868164 -34.4375 40.37890625 C-34.93121094 39.9207251 -35.42492187 39.46254395 -35.93359375 38.99047852 C-37.69755125 35.69800015 -37.7821788 32.56610558 -37 29 C-35.36085564 26.22825114 -33.2362395 24.11263838 -30.9375 21.875 C-30.31278809 21.24263428 -29.68807617 20.61026855 -29.04443359 19.95874023 C-27.72254578 18.63142541 -26.39056812 17.31409224 -25.04931641 16.00634766 C-23.00567502 14.00555603 -21.00824778 11.965653 -19.01171875 9.91796875 C-17.71870298 8.63023975 -16.42320757 7.34499478 -15.125 6.0625 C-14.53195068 5.45325684 -13.93890137 4.84401367 -13.32788086 4.21630859 C-8.88330323 -0.03502653 -6.14345948 -1.00921326 0 0 Z " fill="#328CBE" transform="translate(340,335)"/>
<path d="M0 0 C1.60546875 2.87109375 1.60546875 2.87109375 3.1875 6.4375 C3.71730469 7.61183594 4.24710937 8.78617188 4.79296875 9.99609375 C6 13 6 13 6 15 C5.01902344 15.47308594 4.03804688 15.94617188 3.02734375 16.43359375 C-15.92765282 25.67415458 -33.33899947 36.55535378 -48.83203125 50.984375 C-50.90222547 52.90909611 -53.02953109 54.73747487 -55.1875 56.5625 C-59.1967329 60.0775531 -62.60986792 63.89134282 -66 68 C-66.42265137 68.49967285 -66.84530273 68.9993457 -67.28076172 69.51416016 C-83.47385529 88.69449341 -97.02604248 111.07812745 -105 135 C-110.92863717 133.83348574 -116.38798394 132.24480642 -122 130 C-116.18511297 110.84507803 -106.62944152 92.24966538 -95 76 C-94.31421875 75.03964844 -93.6284375 74.07929687 -92.921875 73.08984375 C-79.32821647 54.53303292 -63.66234261 37.52982284 -45 24 C-44.05471436 23.31212402 -44.05471436 23.31212402 -43.09033203 22.61035156 C-33.45519876 15.65923974 -23.4736626 9.59595303 -13 4 C-11.97003906 3.43796875 -10.94007813 2.8759375 -9.87890625 2.296875 C-3.39142336 -1.13047445 -3.39142336 -1.13047445 0 0 Z " fill="#090909" transform="translate(166,52)"/>
<path d="M0 0 C5.7656066 2.57991677 10.90976581 6.32225155 16.1328125 9.8359375 C17.73962891 10.89748047 17.73962891 10.89748047 19.37890625 11.98046875 C20.93158203 13.01880859 20.93158203 13.01880859 22.515625 14.078125 C23.45035645 14.70315918 24.38508789 15.32819336 25.34814453 15.97216797 C29.23124944 18.87576377 32.31777555 21.92588207 35.0078125 25.9609375 C35.37890625 28.6328125 35.37890625 28.6328125 35.4453125 31.7109375 C35.50525391 33.21914062 35.50525391 33.21914062 35.56640625 34.7578125 C34.61449932 40.2162998 31.27592736 44.27542383 26.80981445 47.48388672 C25.63063741 48.25793153 24.44229148 49.01815269 23.24609375 49.765625 C22.61422653 50.17507355 21.98235931 50.58452209 21.3313446 51.00637817 C19.33541994 52.2954601 17.32827859 53.56571481 15.3203125 54.8359375 C13.96212153 55.70974322 12.60469187 56.58473348 11.24804688 57.4609375 C-1.95654902 65.96180822 -1.95654902 65.96180822 -10.9921875 64.9609375 C-15.40289689 62.75558281 -18.23974496 60.03863015 -20.9921875 55.9609375 C-21.86382076 53.18527054 -22.1294872 50.64693831 -22.16918945 47.74658203 C-22.18202469 46.92537872 -22.19485992 46.10417542 -22.20808411 45.25808716 C-22.21547104 44.3788559 -22.22285797 43.49962463 -22.23046875 42.59375 C-22.2385405 41.68140594 -22.24661224 40.76906189 -22.25492859 39.82907104 C-22.26874127 37.90087774 -22.27947598 35.97266028 -22.28735352 34.04443359 C-22.29888895 32.07561058 -22.31936535 30.10681921 -22.34887695 28.13818359 C-22.39157135 25.28982339 -22.40772365 22.44239053 -22.41796875 19.59375 C-22.43547684 18.7185672 -22.45298492 17.8433844 -22.47102356 16.94168091 C-22.44852028 10.57654566 -20.89297732 6.93079375 -16.3515625 2.28125 C-10.82896725 -1.82048337 -6.46861557 -2.24628165 0 0 Z " fill="#010202" transform="translate(245.9921875,49.0390625)"/>
<path d="M0 0 C20.46 0 40.92 0 62 0 C60.33211896 16.67881045 60.33211896 16.67881045 59.43530273 24.63378906 C59.26899086 26.1379694 59.10924328 27.64288892 58.95581055 29.1484375 C58.73052154 31.34851434 58.48281542 33.5450705 58.23046875 35.7421875 C58.02006958 37.68907471 58.02006958 37.68907471 57.80541992 39.67529297 C56.91122558 43.36645349 55.94835468 44.68391258 53 47 C47.77697624 49.61151188 39.42364336 48.31370173 33.60668945 48.35009766 C31.66581225 48.36665444 29.72499594 48.39394088 27.78442383 48.43212891 C24.98486735 48.4869334 22.18673962 48.50877664 19.38671875 48.5234375 C18.52197433 48.54610687 17.65722992 48.56877625 16.76628113 48.59213257 C12.61119964 48.57758481 10.54074586 48.36082127 7.01220703 46.00634766 C4.41221387 42.12181528 3.9029556 38.95839609 3.41796875 34.375 C3.26211052 33.1382251 3.26211052 33.1382251 3.10310364 31.87646484 C2.77775841 29.25297032 2.48263311 26.62704605 2.1875 24 C1.97130214 22.23414121 1.75322214 20.46851176 1.53320312 18.703125 C0 6.14207884 0 6.14207884 0 0 Z " fill="#BCBCBC" transform="translate(393,280)"/>
<path d="M0 0 C0.90878906 0.00257813 1.81757813 0.00515625 2.75390625 0.0078125 C4.15962891 0.05035156 4.15962891 0.05035156 5.59375 0.09375 C6.53089844 0.09117187 7.46804687 0.08859375 8.43359375 0.0859375 C13.39812377 0.15635637 17.12324427 0.27414685 21.09375 3.59375 C22.52041016 6.44707032 22.23682693 8.88563273 22.25488281 12.07543945 C22.26233017 13.07332489 22.26233017 13.07332489 22.26992798 14.09136963 C22.28455622 16.29660063 22.29135326 18.50175966 22.296875 20.70703125 C22.30262667 22.23919171 22.3083844 23.77135215 22.31414795 25.30351257 C22.32466034 28.51899552 22.33050119 31.73445345 22.33398438 34.94995117 C22.33946442 39.0658689 22.36348067 43.18145503 22.39195633 47.29726887 C22.41060251 50.46374977 22.41578939 53.63015119 22.41732025 56.79668236 C22.42034372 58.3137105 22.42836198 59.83073735 22.44150543 61.34771156 C22.45860519 63.4733545 22.45667645 65.5981927 22.45019531 67.72387695 C22.45566376 69.53684013 22.45566376 69.53684013 22.46124268 71.38642883 C22.05626872 74.92087084 21.27316535 76.80194075 19.09375 79.59375 C14.65414131 81.07361956 10.30697847 80.81872927 5.65625 80.84375 C4.70169922 80.864375 3.74714844 80.885 2.76367188 80.90625 C1.84263672 80.91140625 0.92160156 80.9165625 -0.02734375 80.921875 C-0.8670874 80.9312207 -1.70683105 80.94056641 -2.57202148 80.95019531 C-5.45882208 80.5093702 -6.8005102 79.59097064 -8.90625 77.59375 C-10.0359918 74.2045246 -10.06094643 71.57257441 -10.09912109 67.99853516 C-10.10729858 67.33313217 -10.11547607 66.66772919 -10.12390137 65.98216248 C-10.14869353 63.78238821 -10.16525377 61.58267812 -10.1796875 59.3828125 C-10.18501118 58.63055767 -10.19033485 57.87830284 -10.19581985 57.10325241 C-10.22252229 53.12288177 -10.24190797 49.14254221 -10.25634766 45.16210938 C-10.2696968 41.86983517 -10.2975701 38.57817934 -10.33837891 35.28613281 C-10.38768965 31.30795858 -10.41246609 27.33034592 -10.41957474 23.35187912 C-10.4262866 21.83759808 -10.44150729 20.32332955 -10.46546555 18.80922318 C-10.49711941 16.68806974 -10.49715568 14.56908191 -10.48974609 12.44775391 C-10.49783295 11.24212799 -10.5059198 10.03650208 -10.51425171 8.79434204 C-9.42946351 3.08389018 -5.77373744 -0.04981264 0 0 Z " fill="#00B277" transform="translate(145.90625,215.40625)"/>
<path d="M0 0 C0.90878906 0.00257813 1.81757812 0.00515625 2.75390625 0.0078125 C4.15962891 0.05035156 4.15962891 0.05035156 5.59375 0.09375 C6.53089844 0.09117187 7.46804687 0.08859375 8.43359375 0.0859375 C13.39812377 0.15635637 17.12324427 0.27414685 21.09375 3.59375 C22.52041016 6.44707032 22.23682693 8.88563273 22.25488281 12.07543945 C22.26233017 13.07332489 22.26233017 13.07332489 22.26992798 14.09136963 C22.28455622 16.29660063 22.29135326 18.50175966 22.296875 20.70703125 C22.30262667 22.23919171 22.3083844 23.77135215 22.31414795 25.30351257 C22.32466034 28.51899552 22.33050119 31.73445345 22.33398438 34.94995117 C22.33946442 39.0658689 22.36348067 43.18145503 22.39195633 47.29726887 C22.41060251 50.46374977 22.41578939 53.63015119 22.41732025 56.79668236 C22.42034372 58.3137105 22.42836198 59.83073735 22.44150543 61.34771156 C22.45860519 63.4733545 22.45667645 65.5981927 22.45019531 67.72387695 C22.45566376 69.53684013 22.45566376 69.53684013 22.46124268 71.38642883 C22.05626872 74.92087084 21.27316535 76.80194075 19.09375 79.59375 C14.65414131 81.07361956 10.30697847 80.81872927 5.65625 80.84375 C4.70169922 80.864375 3.74714844 80.885 2.76367188 80.90625 C1.84263672 80.91140625 0.92160156 80.9165625 -0.02734375 80.921875 C-0.8670874 80.9312207 -1.70683105 80.94056641 -2.57202148 80.95019531 C-5.45882208 80.5093702 -6.8005102 79.59097064 -8.90625 77.59375 C-10.0359918 74.2045246 -10.06094643 71.57257441 -10.09912109 67.99853516 C-10.10729858 67.33313217 -10.11547607 66.66772919 -10.12390137 65.98216248 C-10.14869353 63.78238821 -10.16525377 61.58267812 -10.1796875 59.3828125 C-10.18501118 58.63055767 -10.19033485 57.87830284 -10.19581985 57.10325241 C-10.22252229 53.12288177 -10.24190797 49.14254221 -10.25634766 45.16210938 C-10.2696968 41.86983517 -10.2975701 38.57817934 -10.33837891 35.28613281 C-10.38768965 31.30795858 -10.41246609 27.33034592 -10.41957474 23.35187912 C-10.4262866 21.83759808 -10.44150729 20.32332955 -10.46546555 18.80922318 C-10.49711941 16.68806974 -10.49715568 14.56908191 -10.48974609 12.44775391 C-10.49783295 11.24212799 -10.5059198 10.03650208 -10.51425171 8.79434204 C-9.42946351 3.08389018 -5.77373744 -0.04981264 0 0 Z " fill="#00B277" transform="translate(41.90625,215.40625)"/>
<path d="M0 0 C47.52 0 95.04 0 144 0 C144 11.55555556 144 11.55555556 141 15 C137.93022173 16.02325942 135.83244355 16.13060974 132.61695862 16.14044189 C131.49953278 16.14615204 130.38210693 16.15186218 129.2308197 16.15774536 C128.00424149 16.15886322 126.77766327 16.15998108 125.51391602 16.16113281 C123.57705933 16.16858017 123.57705933 16.16858017 121.60107422 16.17617798 C118.05770838 16.18929322 114.51436148 16.19574493 110.97097516 16.20018864 C108.75761933 16.20312008 106.54426868 16.20722497 104.33091545 16.21169281 C97.40683598 16.2253639 90.48276834 16.23503311 83.5586763 16.2388947 C75.56355038 16.24337811 67.56859519 16.26094063 59.5735212 16.2898953 C53.39425256 16.31149807 47.21503202 16.32159819 41.03572601 16.32293582 C37.3445113 16.32398464 33.65345717 16.32990879 29.96228218 16.34775543 C25.84657514 16.36726819 21.73122663 16.3629528 17.61547852 16.35644531 C16.39092453 16.3656601 15.16637054 16.37487488 13.90470886 16.3843689 C12.22434036 16.37601517 12.22434036 16.37601517 10.51002502 16.36749268 C9.05021886 16.36969252 9.05021886 16.36969252 7.56092167 16.3719368 C4.53417679 15.93234592 3.18357476 15.11546467 1 13 C0 10 0 10 0 0 Z " fill="#328CBE" transform="translate(184,144)"/>
<path d="M0 0 C0.51046875 1.34578125 0.51046875 1.34578125 1.03125 2.71875 C12.06706172 31.32193043 28.32082126 55.46311726 49 78 C47.46356148 81.68069887 45.21849055 83.98775204 42.375 86.75 C41.55773437 87.54921875 40.74046875 88.3484375 39.8984375 89.171875 C39.27195313 89.77515625 38.64546875 90.3784375 38 91 C17.02860367 74.13170295 2.49335345 49.79013782 -9.0625 25.875 C-9.74227905 24.47205688 -9.74227905 24.47205688 -10.43579102 23.04077148 C-13.20423797 17.15460472 -15.31991657 11.28352903 -17 5 C-14.73117913 4.16080602 -12.46022973 3.32848276 -10.1875 2.5 C-9.54490234 2.26152344 -8.90230469 2.02304687 -8.24023438 1.77734375 C-5.35066261 0.72931254 -3.09923939 0 0 0 Z " fill="#0B0B0B" transform="translate(61,325)"/>
<path d="M0 0 C24.1876438 7.12084233 53.82742753 27.76990337 69 48 C65.37 51.63 61.74 55.26 58 59 C54.20486439 57.1024322 52.09764999 55.38453352 49.0625 52.5 C33.39658051 37.94777147 13.45192536 22.81730845 -7 16 C-5.26017005 10.18738629 -3.1889511 5.16830006 0 0 Z " fill="#0B0B0B" transform="translate(347,51)"/>
<path d="M0 0 C0.65421936 -0.00073013 1.30843872 -0.00146027 1.98248291 -0.00221252 C4.13135542 0.00125358 6.27802299 0.04006031 8.42651367 0.0793457 C9.921512 0.08867751 11.41652568 0.09579189 12.9115448 0.1007843 C16.83611671 0.11982577 20.7597554 0.16890014 24.68395996 0.2243042 C28.69241716 0.27555935 32.70102597 0.2983116 36.7097168 0.32348633 C44.56761354 0.37702359 52.42457418 0.46493432 60.28198242 0.56762695 C60.77698242 8.48762695 60.77698242 8.48762695 61.28198242 16.56762695 C52.50226331 16.68066458 43.72302876 16.77236321 34.94274616 16.82668781 C30.86552675 16.85276324 26.78883169 16.88812232 22.71191406 16.94482422 C18.7761388 16.99921948 14.8408673 17.02906295 10.9047451 17.04201317 C9.40440122 17.05123977 7.9040844 17.06925786 6.40395546 17.09627724 C4.29930046 17.13267148 2.19671677 17.13756857 0.09179688 17.13525391 C-1.70356758 17.15190849 -1.70356758 17.15190849 -3.53520203 17.16889954 C-7.65944664 16.38977955 -9.13652788 14.80696254 -11.71801758 11.56762695 C-12.34301758 8.56762695 -12.34301758 8.56762695 -11.71801758 5.56762695 C-8.06183228 0.99214995 -5.80838705 -0.05469291 0 0 Z " fill="#328CBD" transform="translate(99.718017578125,447.432373046875)"/>
<path d="M0 0 C1.24819519 0.00990463 2.49639038 0.01980927 3.78240967 0.03001404 C7.72598302 0.06885381 11.66665874 0.15662906 15.609375 0.24609375 C18.30071044 0.28524664 20.99212348 0.31366005 23.68359375 0.34179688 C30.24315769 0.41851647 36.80105928 0.53530099 43.359375 0.68359375 C43.3949321 2.28629717 43.42032412 3.88922833 43.44140625 5.4921875 C43.46424683 6.83108032 43.46424683 6.83108032 43.48754883 8.19702148 C43.32150158 11.41833804 42.4712845 13.25880877 40.359375 15.68359375 C36.71380491 16.89878378 33.37746279 16.8153897 29.58325195 16.79711914 C28.39753601 16.79733818 28.39753601 16.79733818 27.18786621 16.79756165 C24.574435 16.79686484 21.96107501 16.7890833 19.34765625 16.78125 C17.53590433 16.77938499 15.7241519 16.77796148 13.91239929 16.77696228 C9.14320484 16.7731436 4.37404082 16.76331883 -0.3951416 16.7522583 C-5.26147042 16.74203024 -10.12780416 16.73746167 -14.99414062 16.73242188 C-24.54298213 16.72169601 -34.09180103 16.70462735 -43.640625 16.68359375 C-40.51935563 13.56232438 -36.32637733 12.3354337 -32.28515625 10.68945312 C-29.02284531 9.31404287 -26.00957763 7.92768039 -23.04580688 5.96694946 C-15.19672616 0.78626438 -9.29055117 -0.28328703 0 0 Z " fill="#2B77A2" transform="translate(284.640625,143.31640625)"/>
<path d="M0 0 C5.28 0 10.56 0 16 0 C19.99655497 31.81257755 19.99655497 31.81257755 12.04759216 42.09803772 C5.84508629 49.24204616 -1.45132159 55.33046068 -9 61 C-12.41059403 59.39464713 -14.61792484 57.59481099 -17.25 54.875 C-17.95640625 54.15054688 -18.6628125 53.42609375 -19.390625 52.6796875 C-19.92171875 52.12539063 -20.4528125 51.57109375 -21 51 C-19.56665202 47.54481756 -17.88201721 45.90849691 -14.90234375 43.69140625 C-6.98255304 37.26105177 -0.84051889 31.92816059 0.41015625 21.36328125 C0.78429204 14.20744202 0.51786 7.14255966 0 0 Z " fill="#020202" transform="translate(264,224)"/>
<path d="M0 0 C0.33 0 0.66 0 1 0 C3.56547536 13.86184268 2.05472932 27.09356443 -5.16015625 39.3359375 C-12.61113435 50.12482723 -22.89180317 57.06020029 -35.5625 60.4375 C-42.35763698 61.59982606 -50.9219361 62.70864916 -57 59 C-55.40285156 58.21689453 -55.40285156 58.21689453 -53.7734375 57.41796875 C-30.02877643 45.48788539 -12.2584804 28.19250487 -1 4 C-0.28608199 1.72770434 -0.28608199 1.72770434 0 0 Z " fill="#D48B89" transform="translate(318,243)"/>
<path d="M0 0 C-1.63930528 15.57340012 -12.65270099 27.16002327 -24 37 C-30.43795896 41.72425765 -37.8706781 46 -46 46 C-45.46147665 34.15248626 -37.98547803 25.09505577 -30 17 C-29.36191406 16.28972656 -28.72382813 15.57945312 -28.06640625 14.84765625 C-20.98270178 7.17487032 -10.75292262 0 0 0 Z " fill="#00AF75" transform="translate(479,185)"/>
<path d="M0 0 C15.43230692 1.62445336 27.36557478 12.57820843 37 24 C41.66761106 30.70158741 46 37.64549436 46 46 C34.15865226 45.46175692 25.08577981 37.99017093 17 30 C16.278125 29.33871094 15.55625 28.67742187 14.8125 27.99609375 C7.64544734 21.27698188 2.90730553 13.36798448 0 4 C0 2.68 0 1.36 0 0 Z " fill="#00AF75" transform="translate(369,185)"/>
<path d="M0 0 C5.65436022 1.83920544 10.72306236 4.29022121 16 7 C12.55221115 16.21844017 8.80682887 25.25411964 4.8125 34.25 C4.27396752 35.48302007 3.7355556 36.71609279 3.19726562 37.94921875 C2.42866211 39.68365234 2.42866211 39.68365234 1.64453125 41.453125 C1.18409424 42.49629883 0.72365723 43.53947266 0.24926758 44.61425781 C-1 47 -1 47 -3 48 C-5.42188287 47.13986463 -7.71765578 46.22315901 -10.0625 45.1875 C-10.71283203 44.91357422 -11.36316406 44.63964844 -12.03320312 44.35742188 C-16.87087832 42.25824336 -16.87087832 42.25824336 -18 40 C-17.43690491 38.24093628 -17.43690491 38.24093628 -16.46118164 36.10107422 C-16.10073257 35.3003952 -15.74028351 34.49971619 -15.36891174 33.67477417 C-14.97002243 32.81014557 -14.57113312 31.94551697 -14.16015625 31.0546875 C-13.75921249 30.1696756 -13.35826874 29.2846637 -12.94517517 28.37283325 C-11.65829992 25.5368132 -10.36054527 22.70592244 -9.0625 19.875 C-8.19003608 17.95735827 -7.31828183 16.03939349 -6.44726562 14.12109375 C-4.30640875 9.41027807 -2.15659035 4.70363203 0 0 Z " fill="#05090C" transform="translate(480,84)"/>
<path d="M0 0 C5.65436022 1.83920544 10.72306236 4.29022121 16 7 C12.55221115 16.21844017 8.80682887 25.25411964 4.8125 34.25 C4.27396752 35.48302007 3.7355556 36.71609279 3.19726562 37.94921875 C2.42866211 39.68365234 2.42866211 39.68365234 1.64453125 41.453125 C1.18409424 42.49629883 0.72365723 43.53947266 0.24926758 44.61425781 C-1 47 -1 47 -3 48 C-5.42188287 47.13986463 -7.71765578 46.22315901 -10.0625 45.1875 C-10.71283203 44.91357422 -11.36316406 44.63964844 -12.03320312 44.35742188 C-16.87087832 42.25824336 -16.87087832 42.25824336 -18 40 C-17.43690491 38.24093628 -17.43690491 38.24093628 -16.46118164 36.10107422 C-16.10073257 35.3003952 -15.74028351 34.49971619 -15.36891174 33.67477417 C-14.97002243 32.81014557 -14.57113312 31.94551697 -14.16015625 31.0546875 C-13.75921249 30.1696756 -13.35826874 29.2846637 -12.94517517 28.37283325 C-11.65829992 25.5368132 -10.36054527 22.70592244 -9.0625 19.875 C-8.19003608 17.95735827 -7.31828183 16.03939349 -6.44726562 14.12109375 C-4.30640875 9.41027807 -2.15659035 4.70363203 0 0 Z " fill="#05090C" transform="translate(440,84)"/>
<path d="M0 0 C4.14298667 0.59834725 7.18194377 2.00664285 10.8125 4.0625 C11.78832031 4.61035156 12.76414062 5.15820312 13.76953125 5.72265625 C14.87361328 6.35494141 14.87361328 6.35494141 16 7 C12.40955434 16.87372555 5.97664224 26.02090701 -0.3125 34.375 C-0.72048828 34.92800781 -1.12847656 35.48101562 -1.54882812 36.05078125 C-3.16202564 38.13283912 -4.64773422 39.79433372 -6.93359375 41.12890625 C-10.38293772 40.91372978 -12.20345861 38.77556573 -14.75 36.5625 C-15.73484375 35.71816406 -16.7196875 34.87382812 -17.734375 34.00390625 C-18.48203125 33.34261719 -19.2296875 32.68132812 -20 32 C-18.67762951 28.21230562 -17.05936135 25.64411307 -14.4375 22.625 C-8.77044083 15.75395023 -3.98494394 7.96988788 0 0 Z " fill="#0D0D0D" transform="translate(437,356)"/>
<path d="M0 0 C5.39631002 4.50400678 10.4198127 9.26743598 15.375 14.25 C16.09816406 14.96929687 16.82132812 15.68859375 17.56640625 16.4296875 C18.25347656 17.11804688 18.94054687 17.80640625 19.6484375 18.515625 C20.26895996 19.13727539 20.88948242 19.75892578 21.52880859 20.39941406 C23.56296322 22.61247708 23.97665745 23.78991701 24.3125 26.8125 C23.92835642 30.7307645 22.70743683 32.21293267 20 35 C16.98221063 36.50889469 15.37677363 36.50026276 12 36 C5.93614549 31.62960198 0.73948289 25.86505074 -4.5 20.5625 C-5.22703125 19.83095703 -5.9540625 19.09941406 -6.703125 18.34570312 C-8.47109499 16.56610176 -10.23666378 14.78419082 -12 13 C-8.16171005 8.46548035 -4.25222428 4.15098084 0 0 Z " fill="#2B76A1" transform="translate(409,429)"/>
<path d="M0 0 C13.2 0 26.4 0 40 0 C40 5.28 40 10.56 40 16 C26.8 16 13.6 16 0 16 C0 10.72 0 5.44 0 0 Z " fill="#00A06B" transform="translate(80,248)"/>
<path d="M0 0 C2.31 0 4.62 0 7 0 C7.6223003 8.82283537 7.32253703 15.68952745 2 23 C-2.76068044 28.2592322 -7.3251981 31.72804302 -14.63549805 32.15332031 C-17.71799536 32.19673221 -20.79262493 32.17434837 -23.875 32.125 C-24.94492187 32.11597656 -26.01484375 32.10695313 -27.1171875 32.09765625 C-29.74502439 32.07419342 -32.37239406 32.04136459 -35 32 C-31.87840368 29.62991448 -28.67504518 27.4908601 -25.375 25.375 C-15.67330315 18.9072021 -5.33227446 10.66454892 0 0 Z " fill="#4D8BAC" transform="translate(329,448)"/>
<path d="M0 0 C3.63 2.31 7.26 4.62 11 7 C12.36511719 7.85207031 13.73023438 8.70414063 15.13671875 9.58203125 C16.32034167 10.3254744 17.50393646 11.06896232 18.6875 11.8125 C19.30560547 12.19341797 19.92371094 12.57433594 20.56054688 12.96679688 C22.0753461 13.92465995 23.54332187 14.95587013 25 16 C25 16.66 25 17.32 25 18 C22.81274414 19.69580078 22.81274414 19.69580078 19.78515625 21.6953125 C18.70685547 22.41074219 17.62855469 23.12617187 16.51757812 23.86328125 C15.66788452 24.41943115 15.66788452 24.41943115 14.80102539 24.98681641 C13.06891131 26.12080262 11.34354661 27.26449095 9.61914062 28.41015625 C1.15350927 34 1.15350927 34 0 34 C0 22.78 0 11.56 0 0 Z " fill="#C8DEEB" transform="translate(240,64)"/>
<path d="M0 0 C5.81261371 1.73982995 10.83169994 3.8110489 16 7 C14.24009216 12.91969002 11.60305395 18.41634992 9 24 C3.31497465 22.35433477 -1.76681636 19.70967216 -7 17 C-6.21086057 14.91570807 -5.41859037 12.83260131 -4.625 10.75 C-4.18414062 9.58984375 -3.74328125 8.4296875 -3.2890625 7.234375 C-2.29409145 4.73790219 -1.25589954 2.37095053 0 0 Z " fill="#070C10" transform="translate(455,140)"/>
<path d="M0 0 C5.81261371 1.73982995 10.83169994 3.8110489 16 7 C14.24009216 12.91969002 11.60305395 18.41634992 9 24 C3.31497465 22.35433477 -1.76681636 19.70967216 -7 17 C-6.21086057 14.91570807 -5.41859037 12.83260131 -4.625 10.75 C-4.18414062 9.58984375 -3.74328125 8.4296875 -3.2890625 7.234375 C-2.29409145 4.73790219 -1.25589954 2.37095053 0 0 Z " fill="#070C10" transform="translate(415,140)"/>
<path d="M0 0 C5.28 0 10.56 0 16 0 C16 5.28 16 10.56 16 16 C10.72 16 5.44 16 0 16 C0 10.72 0 5.44 0 0 Z " fill="#000000" transform="translate(264,400)"/>
<path d="M0 0 C5.28 0 10.56 0 16 0 C16 5.28 16 10.56 16 16 C10.72 16 5.44 16 0 16 C0 10.72 0 5.44 0 0 Z " fill="#000000" transform="translate(168,400)"/>
<path d="M0 0 C5.28 0 10.56 0 16 0 C16 5.28 16 10.56 16 16 C10.72 16 5.44 16 0 16 C0 10.72 0 5.44 0 0 Z " fill="#000000" transform="translate(216,392)"/>
<path d="M0 0 C5.28 0 10.56 0 16 0 C16 5.28 16 10.56 16 16 C10.72 16 5.44 16 0 16 C0 10.72 0 5.44 0 0 Z " fill="#000000" transform="translate(192,368)"/>
<path d="M0 0 C5.28 0 10.56 0 16 0 C16 5.28 16 10.56 16 16 C10.72 16 5.44 16 0 16 C0 10.72 0 5.44 0 0 Z " fill="#000000" transform="translate(248,360)"/>
<path d="M0 0 C5.28 0 10.56 0 16 0 C16 5.28 16 10.56 16 16 C10.72 16 5.44 16 0 16 C0 10.72 0 5.44 0 0 Z " fill="#000000" transform="translate(160,352)"/>
<path d="M0 0 C5.28 0 10.56 0 16 0 C16 5.28 16 10.56 16 16 C10.72 16 5.44 16 0 16 C0 10.72 0 5.44 0 0 Z " fill="#000000" transform="translate(216,344)"/>
<path d="M0 0 C0.33 0 0.66 0 1 0 C1 7.92 1 15.84 1 24 C-5.6 24 -12.2 24 -19 24 C-17.02 21.69 -15.04 19.38 -13 17 C-11.26528604 14.96304452 -9.53581734 12.92160633 -7.8125 10.875 C-6.97332031 9.88242188 -6.13414062 8.88984375 -5.26953125 7.8671875 C-3.26134127 5.33016263 -1.64291014 2.77717936 0 0 Z " fill="#4E8CAE" transform="translate(311,104)"/>
<path d="M0 0 C1.38900827 3.91720319 0.81290055 7.43274433 0.3125 11.5 C0.16425781 12.8096875 0.01601563 14.119375 -0.13671875 15.46875 C-1.06914635 19.28284297 -1.95027933 20.620868 -5 23 C-7.296537 24.1482685 -8.58313167 24.11561175 -11.1328125 24.09765625 C-11.93847656 24.09443359 -12.74414062 24.09121094 -13.57421875 24.08789062 C-14.41597656 24.07951172 -15.25773437 24.07113281 -16.125 24.0625 C-16.97449219 24.05798828 -17.82398438 24.05347656 -18.69921875 24.04882812 C-20.79950909 24.03702874 -22.8997633 24.01909306 -25 24 C-21.91034879 21.51201771 -18.78864008 19.08021695 -15.625 16.6875 C-9.3737783 11.81966014 -4.13568557 6.78252434 0 0 Z " fill="#A0A0A0" transform="translate(451,304)"/>
<path d="M0 0 C0.66 0.33 1.32 0.66 2 1 C-7.24 10.24 -16.48 19.48 -26 29 C-26.66 28.67 -27.32 28.34 -28 28 C-9.34536082 7.32474227 -9.34536082 7.32474227 0 0 Z " fill="#303030" transform="translate(113,82)"/>
<path d="M0 0 C0.33 0 0.66 0 1 0 C1.29201904 4.96432365 1.14707573 8.03701574 -2 12 C-5.47325181 13.1577506 -8.36067448 13.06866652 -12 13 C-11.319375 12.34 -10.63875 11.68 -9.9375 11 C-6.93093537 8.01066497 -4.19821266 4.80268054 -1.453125 1.57421875 C-0.97359375 1.05472656 -0.4940625 0.53523438 0 0 Z " fill="#009664" transform="translate(167,283)"/>
<path d="M0 0 C0.33 0 0.66 0 1 0 C1.29201904 4.96432365 1.14707573 8.03701574 -2 12 C-5.47325181 13.1577506 -8.36067448 13.06866652 -12 13 C-11.319375 12.34 -10.63875 11.68 -9.9375 11 C-6.93093537 8.01066497 -4.19821266 4.80268054 -1.453125 1.57421875 C-0.97359375 1.05472656 -0.4940625 0.53523438 0 0 Z " fill="#009664" transform="translate(63,283)"/>
</svg>
