<?xml version="1.0" encoding="UTF-8"?>
<svg version="1.1" xmlns="http://www.w3.org/2000/svg" width="512" height="512">
<path d="M0 0 C14.74595531 10.25131728 25.59123671 23.80099548 29.74780273 41.59423828 C35.46565357 74.27295857 13.83543238 104.31089472 -3.875 129.75 C-7.74787158 135.21758341 -11.68103927 140.64091201 -15.64501953 146.04272461 C-16.75736843 147.5867214 -17.81942926 149.16664389 -18.875 150.75 C-17.8708606 150.94577637 -17.8708606 150.94577637 -16.84643555 151.14550781 C-13.74993265 151.75462095 -10.65628534 152.37723685 -7.5625 153 C-5.9837207 153.30744141 -5.9837207 153.30744141 -4.37304688 153.62109375 C7.80678197 156.09453591 19.18054553 159.79761046 28.75 168 C30.81448609 172.12897218 31.21362805 176.25349285 30.125 180.75 C26.75057397 185.70717744 23.22616385 188.29883069 17.875 190.875 C17.1840625 191.214104 16.493125 191.55320801 15.78125 191.90258789 C3.44757433 197.66874764 -10.35925602 199.86675395 -23.8984375 199.953125 C-25.00771606 199.96364647 -25.00771606 199.96364647 -26.1394043 199.97438049 C-28.50966555 199.99177323 -30.8796773 199.99823124 -33.25 200 C-34.46203094 200.00101212 -34.46203094 200.00101212 -35.69854736 200.00204468 C-57.162558 199.97350991 -79.42582529 198.13500689 -96.5 183.5 C-98.56448609 179.37102782 -98.96362805 175.24650715 -97.875 170.75 C-94.50067082 165.79296482 -90.97617288 163.20088128 -85.625 160.625 C-84.93188721 160.2851709 -84.23877441 159.9453418 -83.5246582 159.59521484 C-75.92839742 156.04626089 -68.08038896 154.27243567 -59.875 152.75 C-58.13476562 152.41355469 -58.13476562 152.41355469 -56.359375 152.0703125 C-53.86777685 151.60393644 -51.37492801 151.1682595 -48.875 150.75 C-49.2059668 150.29898926 -49.53693359 149.84797852 -49.87792969 149.38330078 C-61.63455465 133.32616229 -72.98586355 117.03630316 -82.875 99.75 C-83.22546387 99.14091797 -83.57592773 98.53183594 -83.93701172 97.90429688 C-94.38944537 79.57278114 -101.07134088 61.19090352 -97.15625 39.828125 C-96.22803464 36.69914097 -95.15966105 33.74894646 -93.875 30.75 C-93.33166016 29.43515625 -93.33166016 29.43515625 -92.77734375 28.09375 C-85.82693543 12.82641241 -73.24409473 1.78449499 -57.87109375 -4.47265625 C-38.93392049 -11.50790437 -17.48941603 -10.43527048 0 0 Z " fill="#005ECE" transform="translate(121.875,288.25)"/>
<path d="M0 0 C14.74595531 10.25131728 25.59123671 23.80099548 29.74780273 41.59423828 C35.46565357 74.27295857 13.83543238 104.31089472 -3.875 129.75 C-7.74787158 135.21758341 -11.68103927 140.64091201 -15.64501953 146.04272461 C-16.75736843 147.5867214 -17.81942926 149.16664389 -18.875 150.75 C-17.8708606 150.94577637 -17.8708606 150.94577637 -16.84643555 151.14550781 C-13.74993265 151.75462095 -10.65628534 152.37723685 -7.5625 153 C-5.9837207 153.30744141 -5.9837207 153.30744141 -4.37304688 153.62109375 C7.80678197 156.09453591 19.18054553 159.79761046 28.75 168 C30.81448609 172.12897218 31.21362805 176.25349285 30.125 180.75 C26.75057397 185.70717744 23.22616385 188.29883069 17.875 190.875 C17.1840625 191.214104 16.493125 191.55320801 15.78125 191.90258789 C3.44757433 197.66874764 -10.35925602 199.86675395 -23.8984375 199.953125 C-25.00771606 199.96364647 -25.00771606 199.96364647 -26.1394043 199.97438049 C-28.50966555 199.99177323 -30.8796773 199.99823124 -33.25 200 C-34.46203094 200.00101212 -34.46203094 200.00101212 -35.69854736 200.00204468 C-57.162558 199.97350991 -79.42582529 198.13500689 -96.5 183.5 C-98.56448609 179.37102782 -98.96362805 175.24650715 -97.875 170.75 C-94.50067082 165.79296482 -90.97617288 163.20088128 -85.625 160.625 C-84.93188721 160.2851709 -84.23877441 159.9453418 -83.5246582 159.59521484 C-75.92839742 156.04626089 -68.08038896 154.27243567 -59.875 152.75 C-58.13476562 152.41355469 -58.13476562 152.41355469 -56.359375 152.0703125 C-53.86777685 151.60393644 -51.37492801 151.1682595 -48.875 150.75 C-49.2059668 150.29898926 -49.53693359 149.84797852 -49.87792969 149.38330078 C-61.63455465 133.32616229 -72.98586355 117.03630316 -82.875 99.75 C-83.22546387 99.14091797 -83.57592773 98.53183594 -83.93701172 97.90429688 C-94.38944537 79.57278114 -101.07134088 61.19090352 -97.15625 39.828125 C-96.22803464 36.69914097 -95.15966105 33.74894646 -93.875 30.75 C-93.33166016 29.43515625 -93.33166016 29.43515625 -92.77734375 28.09375 C-85.82693543 12.82641241 -73.24409473 1.78449499 -57.87109375 -4.47265625 C-38.93392049 -11.50790437 -17.48941603 -10.43527048 0 0 Z " fill="#CF1820" transform="translate(457.875,32.25)"/>
<path d="M0 0 C1.29687241 -0.0071553 2.59374481 -0.01431061 3.92991638 -0.02168274 C5.35996985 -0.02452257 6.79002358 -0.02723435 8.22007751 -0.02983093 C9.73154861 -0.03609974 11.24301818 -0.04274691 12.75448608 -0.04974365 C17.70776813 -0.07072367 22.6610503 -0.08113522 27.61436462 -0.09111023 C29.32086643 -0.095159 31.02736807 -0.09927596 32.73386955 -0.10346031 C40.74610091 -0.12249273 48.75832312 -0.13673207 56.77057272 -0.14507228 C66.02050309 -0.15486042 75.27019517 -0.18122899 84.52004153 -0.22157317 C91.6717401 -0.25169739 98.82337017 -0.26653733 105.97513098 -0.26985329 C110.24650916 -0.27220652 114.51763217 -0.28120335 118.78894234 -0.30631447 C122.80356052 -0.32953806 126.8177544 -0.33385177 130.83242226 -0.32355309 C132.3062506 -0.32305634 133.78009946 -0.32941766 135.25386429 -0.34310913 C137.26429916 -0.36074328 139.27491712 -0.35136432 141.28540039 -0.34057617 C142.41086808 -0.34296453 143.53633577 -0.34535288 144.69590855 -0.34781361 C148.22795751 0.25854371 149.39830984 1.36157847 151.57920837 4.14717102 C152.11045837 6.14717102 152.11045837 6.14717102 152.07920837 8.14717102 C152.09467712 9.13717102 152.09467712 9.13717102 152.11045837 10.14717102 C151.33321629 13.07325886 149.90233137 14.2418593 147.57920837 16.14717102 C144.9296608 16.64939308 144.9296608 16.64939308 141.85295105 16.6526947 C140.09979332 16.66922844 140.09979332 16.66922844 138.31121826 16.68609619 C137.03228195 16.67792374 135.75334564 16.66975128 134.43565369 16.66133118 C133.07187102 16.66679314 131.70809449 16.67403523 130.34432983 16.68292236 C127.40701626 16.69826589 124.47005203 16.70105844 121.53270721 16.69415665 C116.87357007 16.68335102 112.21479562 16.70078041 107.55570984 16.7219696 C100.16940842 16.75225365 92.78321441 16.76392472 85.39685607 16.76754606 C72.21637779 16.77417321 59.03597698 16.80356036 45.85558963 16.85264242 C41.24033309 16.86898907 36.62523276 16.87458632 32.00995016 16.87105203 C29.1127292 16.87060922 26.21556512 16.87826479 23.31836128 16.88772774 C21.37008979 16.89161137 19.4218061 16.88570688 17.47354126 16.87930298 C-6.0429082 16.98456186 -25.68488502 21.83219674 -43.17079163 38.33467102 C-58.42398471 54.29118136 -63.04372497 72.51634771 -62.76844788 93.95576477 C-62.47571554 101.98936898 -60.53635848 108.79168674 -57.42079163 116.14717102 C-57.02504944 117.09721008 -56.62930725 118.04724915 -56.22157288 119.02607727 C-49.00322649 134.73377456 -35.58269406 147.00576591 -19.78016663 153.68623352 C-3.97325641 159.34100684 11.90299057 159.43786911 28.49888611 159.40254211 C30.67215607 159.4052976 32.84542503 159.40898086 35.01869202 159.41351318 C39.67074383 159.42157723 44.32274773 159.42380581 48.97480583 159.42156601 C56.34412375 159.41871404 63.71334728 159.43315429 71.0826416 159.45054626 C92.02850442 159.49739595 112.97435987 159.52151028 133.92027283 159.5280304 C145.5100661 159.53179018 157.09975146 159.54988864 168.68949848 159.58312476 C176.00183796 159.60324279 183.31389735 159.60575674 190.62625301 159.59484458 C195.18969089 159.59222262 199.75296828 159.60631295 204.31636429 159.62492561 C206.41726277 159.63021108 208.5181915 159.62881398 210.61907768 159.61989021 C225.86051206 159.56041733 240.33551096 160.53388676 254.01670837 168.02217102 C254.68154236 168.37239319 255.34637634 168.72261536 256.03135681 169.08345032 C257.89572553 170.08013545 259.74052065 171.10402325 261.57920837 172.14717102 C262.43127869 172.63056946 263.283349 173.1139679 264.16123962 173.61201477 C284.18680131 186.0603369 296.94278061 206.56961572 302.57920837 229.14717102 C307.80197341 251.83385835 302.80136475 274.36661667 291.57920837 294.14717102 C291.09580994 294.99924133 290.6124115 295.85131165 290.11436462 296.72920227 C277.73635433 316.64165361 257.13043879 329.70906777 234.57920837 335.14717102 C229.17576317 336.28098217 223.9257862 336.2954098 218.43159485 336.29434204 C217.41248603 336.29801873 216.3933772 336.30169542 215.34338629 336.30548352 C211.9302893 336.31649237 208.51722278 336.32035935 205.10411072 336.32417297 C202.65654402 336.33043939 200.20897828 336.33708635 197.76141357 336.34408569 C190.42234676 336.3632823 183.08328803 336.37390546 175.74420351 336.38281348 C172.28692787 336.38720154 168.82965374 336.39256667 165.3723793 336.39780235 C153.88057714 336.41480252 142.38877591 336.4292997 130.89696312 336.43655109 C127.91864903 336.4384609 124.94033494 336.44038126 121.96202087 336.44233704 C121.22180005 336.44282078 120.48157922 336.44330452 119.71892746 336.44380292 C107.71039074 336.45211497 95.70195324 336.47747702 83.69345991 336.50991771 C71.36255333 336.54295809 59.03169728 336.56099675 46.70074618 336.56419533 C39.77794199 336.56636228 32.85528289 336.57513869 25.93252182 336.60065651 C19.42690612 336.62458215 12.92150527 336.62820843 6.41583824 336.61789513 C4.02446944 336.61739747 1.63308815 336.62378491 -0.75824165 336.63745117 C-4.01486148 336.65502626 -7.27052657 336.6481348 -10.52714539 336.63491821 C-11.95679845 336.65137208 -11.95679845 336.65137208 -13.41533339 336.66815835 C-19.79923807 336.60531101 -19.79923807 336.60531101 -23.00594139 334.24168682 C-24.53360415 331.98016563 -24.96304257 330.85123141 -24.92079163 328.14717102 C-24.93110413 327.48717102 -24.94141663 326.82717102 -24.95204163 326.14717102 C-24.13637334 323.07641984 -22.97850334 322.05736599 -20.42079163 320.14717102 C-17.3004944 319.54220739 -14.21326551 319.60951805 -11.04327393 319.64164734 C-10.0826378 319.63555722 -9.12200168 319.6294671 -8.13225538 319.62319243 C-4.90421538 319.60754191 -1.67691203 319.62040175 1.5511322 319.63301086 C3.86233488 319.62755212 6.17353394 319.62031191 8.48472595 319.61141968 C13.46824092 319.59605567 18.45154992 319.59329205 23.43508339 319.60018539 C31.32416467 319.61095959 39.21303049 319.59360132 47.1020813 319.57237244 C58.17283097 319.54489742 69.24353338 319.53118473 80.3143158 319.5280304 C81.36818435 319.52772441 81.36818435 319.52772441 82.44334318 319.52741225 C83.14673438 319.52720888 83.85012558 319.52700551 84.57483166 319.52679598 C94.5199004 319.52388341 104.46495626 319.51709502 114.41001892 319.50556946 C115.10840493 319.50476416 115.80679094 319.50395887 116.52634016 319.50312917 C128.20749186 319.48933178 139.88862099 319.46750697 151.56975192 319.44169962 C159.401636 319.42525488 167.23342762 319.41977495 175.06532729 319.42329001 C179.95644126 319.42372932 184.84752084 319.4161283 189.73862457 319.4066143 C191.99474383 319.40394769 194.25087021 319.40465547 196.50698662 319.40912437 C223.11697249 319.45815509 246.34838644 316.89523417 266.45420837 297.89717102 C275.85261855 287.94591318 280.90518938 277.12449991 284.57920837 264.14717102 C284.7573407 263.5256012 284.93547302 262.90403137 285.1190033 262.2636261 C288.1397355 248.37146298 286.05790286 233.08171971 280.57920837 220.14717102 C279.98559509 218.72211243 279.98559509 218.72211243 279.37998962 217.26826477 C271.60333759 200.34564988 256.9242218 187.95539379 239.76670837 181.27217102 C225.07868742 176.57559786 209.90734983 176.85909193 194.65367126 176.89179993 C192.4917284 176.88904383 190.32978655 176.88536021 188.16784668 176.88082886 C183.54309784 176.87277016 178.91839719 176.87053485 174.29364204 176.87277603 C166.96597537 176.87563031 159.63840346 176.86117928 152.3107605 176.84379578 C131.48432317 176.79696778 110.65789336 176.77283268 89.83140564 176.76631165 C78.30531994 176.76255058 66.77934269 176.74444236 55.25330347 176.71121728 C47.98389168 176.69111264 40.71476162 176.68857858 33.4453336 176.69949746 C28.90697645 176.7021214 24.3687804 176.68801969 19.83046532 176.66941643 C17.74288651 176.6641358 15.65527725 176.66551954 13.56771088 176.67445183 C-1.78750511 176.73480308 -17.1741142 175.90396015 -30.92079163 168.27217102 C-31.91127502 167.74683777 -31.91127502 167.74683777 -32.92176819 167.21089172 C-34.77090127 166.21553734 -36.59863811 165.19091334 -38.42079163 164.14717102 C-39.27157288 163.66377258 -40.12235413 163.18037415 -40.99891663 162.68232727 C-61.03070523 150.25253039 -73.78672926 129.71525135 -79.42079163 107.14717102 C-84.64355667 84.46048369 -79.642948 61.92772537 -68.42079163 42.14717102 C-67.93739319 41.29510071 -67.45399475 40.4430304 -66.95594788 39.56513977 C-54.01055229 18.73993817 -32.62345191 6.13112697 -9.1489954 0.61315632 C-6.05495563 0.08468515 -3.13951443 0.01191697 0 0 Z " fill="#808285" transform="translate(192.42079162597656,111.85282897949219)"/>
<path d="M0 0 C5.0550068 3.47723195 9.6200714 7.46445059 14.0625 11.6875 C13.27875 12.574375 12.495 13.46125 11.6875 14.375 C7.74215294 18.96851122 4.09943208 23.78801084 0.4296875 28.6015625 C-1.9375 31.6875 -1.9375 31.6875 -4.31640625 34.296875 C-6.20547372 36.53432503 -6.20547372 36.53432503 -5.70703125 39.0390625 C-5.39121094 39.78929687 -5.07539062 40.53953125 -4.75 41.3125 C-4.29560547 42.44558594 -4.29560547 42.44558594 -3.83203125 43.6015625 C-3.53683594 44.28992188 -3.24164063 44.97828125 -2.9375 45.6875 C-0.69095285 52.42714146 -0.79160569 60.98593757 -3.5625 67.5625 C-4.30820025 68.96296144 -5.10058116 70.3395653 -5.9375 71.6875 C-6.36160156 72.38488281 -6.78570312 73.08226562 -7.22265625 73.80078125 C-12.03549741 80.91949617 -18.66261967 85.4335214 -26.9375 87.6875 C-30.234375 87.98828125 -30.234375 87.98828125 -33.6875 88 C-34.81671875 88.01675781 -35.9459375 88.03351563 -37.109375 88.05078125 C-40.61027405 87.71855307 -42.68725461 87.01451501 -45.88671875 85.73828125 C-49.55596135 84.5584428 -49.55596135 84.5584428 -53.08935547 85.73461914 C-55.24275719 87.55215721 -57.1115059 89.47134632 -59 91.5625 C-60.37627592 92.97262408 -61.75516069 94.38020691 -63.13671875 95.78515625 C-63.78817871 96.46465332 -64.43963867 97.14415039 -65.11083984 97.84423828 C-67.95432225 100.71356362 -71.08970944 103.10061158 -74.3359375 105.48828125 C-76.07904998 106.73425371 -76.07904998 106.73425371 -77.9375 108.6875 C-102.01682568 65.94642925 -102.01682568 65.94642925 -97.21875 39.765625 C-96.29053464 36.63664097 -95.22216105 33.68644646 -93.9375 30.6875 C-93.39416016 29.37265625 -93.39416016 29.37265625 -92.83984375 28.03125 C-85.88943543 12.76391241 -73.30659473 1.72199499 -57.93359375 -4.53515625 C-38.96689154 -11.58137452 -17.48860818 -10.5028005 0 0 Z " fill="#006DF0" transform="translate(121.9375,288.3125)"/>
<path d="M0 0 C5.0550068 3.47723195 9.6200714 7.46445059 14.0625 11.6875 C13.27875 12.574375 12.495 13.46125 11.6875 14.375 C8.21182863 18.42031823 4.97730199 22.64447251 1.75439453 26.89135742 C-1.04881003 30.57523448 -3.95242569 34.14904293 -6.9375 37.6875 C-7.55625 36.98625 -8.175 36.285 -8.8125 35.5625 C-15.63079734 28.74420266 -24.60862791 24.43022127 -34.25 24.3125 C-43.64220974 24.48326745 -51.15112552 28.22710857 -57.9375 34.6875 C-64.36989437 42.85043702 -66.07206879 51.44164921 -64.9375 61.6875 C-62.21670131 71.18780947 -57.86524599 77.79831726 -49.9375 83.6875 C-58.3693042 92.3564487 -67.63650005 99.98317171 -76.9375 107.6875 C-81.12176104 104.10099053 -83.31720999 99.75316532 -85.8125 94.9375 C-86.24941162 94.1014624 -86.68632324 93.2654248 -87.13647461 92.40405273 C-96.09685397 74.89909271 -102.07397372 56.13242755 -96.25 36.5 C-95.5266805 34.54426505 -94.75857856 32.60424732 -93.9375 30.6875 C-93.39416016 29.37265625 -93.39416016 29.37265625 -92.83984375 28.03125 C-85.88943543 12.76391241 -73.30659473 1.72199499 -57.93359375 -4.53515625 C-38.96689154 -11.58137452 -17.48860818 -10.5028005 0 0 Z " fill="#EC1C24" transform="translate(457.9375,32.3125)"/>
<path d="M0 0 C3.25976749 0.46890936 4.25888076 2.00423739 6.31640625 4.51171875 C6.99832031 5.3315625 7.68023437 6.15140625 8.3828125 6.99609375 C9.30900391 8.14851563 9.30900391 8.14851563 10.25390625 9.32421875 C11.07890625 10.29359375 11.90390625 11.26296875 12.75390625 12.26171875 C14.25390625 14.32421875 14.25390625 14.32421875 14.25390625 16.32421875 C14.91390625 16.32421875 15.57390625 16.32421875 16.25390625 16.32421875 C16.60775391 15.51017578 16.60775391 15.51017578 16.96875 14.6796875 C18.60000216 11.68988492 20.63943818 9.2539725 22.81640625 6.63671875 C23.62207031 5.66347656 24.42773438 4.69023437 25.2578125 3.6875 C27.25390625 1.32421875 27.25390625 1.32421875 28.25390625 0.32421875 C41.63511606 0.21270867 55.01808589 3.34742454 67.00390625 9.19921875 C67.65915283 9.5144751 68.31439941 9.82973145 68.98950195 10.15454102 C73.5377415 12.51962558 76.35110155 15.07329502 79.25390625 19.32421875 C79.91796875 21.88671875 79.91796875 21.88671875 79.87890625 24.32421875 C79.89179688 25.12859375 79.9046875 25.93296875 79.91796875 26.76171875 C78.6177167 31.77916197 75.19590635 34.96553738 70.86328125 37.51953125 C69.58701684 38.18275667 68.29985069 38.82532227 67.00390625 39.44921875 C66.31296875 39.78832275 65.62203125 40.12742676 64.91015625 40.47680664 C52.57648058 46.24296639 38.76965023 48.4409727 25.23046875 48.52734375 C24.49094971 48.53435806 23.75143066 48.54137238 22.98950195 48.54859924 C20.6192407 48.56599198 18.24922895 48.57244999 15.87890625 48.57421875 C14.66687531 48.57523087 14.66687531 48.57523087 13.43035889 48.57626343 C-8.03365175 48.54772866 -30.29691904 46.70922564 -47.37109375 32.07421875 C-49.43557984 27.94524657 -49.8347218 23.8207259 -48.74609375 19.32421875 C-45.37166772 14.36704131 -41.8472576 11.77538806 -36.49609375 9.19921875 C-35.80515625 8.86011475 -35.11421875 8.52101074 -34.40234375 8.17163086 C-23.4798639 3.06522419 -11.87177794 1.40164661 0 0 Z " fill="#FECC00" transform="translate(72.74609375,439.67578125)"/>
<path d="M0 0 C3.25976749 0.46890936 4.25888076 2.00423739 6.31640625 4.51171875 C6.99832031 5.3315625 7.68023437 6.15140625 8.3828125 6.99609375 C9.30900391 8.14851562 9.30900391 8.14851562 10.25390625 9.32421875 C11.07890625 10.29359375 11.90390625 11.26296875 12.75390625 12.26171875 C14.25390625 14.32421875 14.25390625 14.32421875 14.25390625 16.32421875 C14.91390625 16.32421875 15.57390625 16.32421875 16.25390625 16.32421875 C16.60775391 15.51017578 16.60775391 15.51017578 16.96875 14.6796875 C18.60000216 11.68988492 20.63943818 9.2539725 22.81640625 6.63671875 C23.62207031 5.66347656 24.42773438 4.69023437 25.2578125 3.6875 C27.25390625 1.32421875 27.25390625 1.32421875 28.25390625 0.32421875 C41.63511606 0.21270867 55.01808589 3.34742454 67.00390625 9.19921875 C67.65915283 9.5144751 68.31439941 9.82973145 68.98950195 10.15454102 C73.5377415 12.51962558 76.35110155 15.07329502 79.25390625 19.32421875 C79.91796875 21.88671875 79.91796875 21.88671875 79.87890625 24.32421875 C79.89179688 25.12859375 79.9046875 25.93296875 79.91796875 26.76171875 C78.6177167 31.77916197 75.19590635 34.96553738 70.86328125 37.51953125 C69.58701684 38.18275667 68.29985069 38.82532227 67.00390625 39.44921875 C66.31296875 39.78832275 65.62203125 40.12742676 64.91015625 40.47680664 C52.57648058 46.24296639 38.76965023 48.4409727 25.23046875 48.52734375 C24.49094971 48.53435806 23.75143066 48.54137238 22.98950195 48.54859924 C20.6192407 48.56599198 18.24922895 48.57244999 15.87890625 48.57421875 C14.66687531 48.57523087 14.66687531 48.57523087 13.43035889 48.57626343 C-8.03365175 48.54772866 -30.29691904 46.70922564 -47.37109375 32.07421875 C-49.43557984 27.94524657 -49.8347218 23.8207259 -48.74609375 19.32421875 C-45.37166772 14.36704131 -41.8472576 11.77538806 -36.49609375 9.19921875 C-35.80515625 8.86011475 -35.11421875 8.52101074 -34.40234375 8.17163086 C-23.4798639 3.06522419 -11.87177794 1.40164661 0 0 Z " fill="#FECC00" transform="translate(408.74609375,183.67578125)"/>
<path d="M0 0 C6.55018461 4.68696955 11.66901993 11.30307205 13.25 19.3125 C14.06478678 27.81243615 13.81044286 34.96748767 9.25 42.3125 C8.82589844 43.00988281 8.40179688 43.70726562 7.96484375 44.42578125 C3.14939333 51.54835554 -3.47438656 56.05084167 -11.75 58.3125 C-20.20612385 59.16505176 -27.44720105 58.83260767 -34.75 54.3125 C-35.79607422 53.69375 -35.79607422 53.69375 -36.86328125 53.0625 C-44.24931956 48.16629381 -48.39925752 40.74311734 -50.75 32.3125 C-51.63055277 24.15202844 -51.05216839 17.3621591 -46.75 10.3125 C-46.32589844 9.61382812 -45.90179688 8.91515625 -45.46484375 8.1953125 C-34.78587464 -7.5702965 -15.66547662 -9.61409686 0 0 Z " fill="#CFE5F7" transform="translate(106.75,317.6875)"/>
<path d="M0 0 C7.32033884 4.76829411 11.65902735 11.66157972 14 20 C14.98045266 30.14832166 13.8453542 38.36224971 7.875 46.6875 C2.63859034 53.00654288 -3.81659172 57.58906754 -12 59 C-22.33209172 59.86625769 -30.43806703 57.78123197 -38.92578125 51.796875 C-42.48857265 48.71046437 -44.7870456 45.1280111 -47 41 C-47.3403125 40.37351563 -47.680625 39.74703125 -48.03125 39.1015625 C-51.05741282 32.46081631 -51.19855047 24.42854242 -49.30859375 17.4453125 C-48.36237336 15.1569636 -47.28951264 13.11303317 -46 11 C-45.57589844 10.30132812 -45.15179688 9.60265625 -44.71484375 8.8828125 C-34.17648681 -6.6752075 -15.80622083 -8.79670733 0 0 Z " fill="#D1E5F6" transform="translate(442,61)"/>
<path d="M0 0 C4.37181113 4.05341592 5.75406393 8.5113612 6.328125 14.3203125 C6.55466924 21.81245412 5.97848157 27.5922898 2 34 C1.57589844 34.69738281 1.15179688 35.39476562 0.71484375 36.11328125 C-4.10060667 43.23585554 -10.72438656 47.73834167 -19 50 C-27.6017621 50.8672351 -34.45185948 50.23798144 -42 46 C-36.06545729 38.80152806 -29.42469625 32.3703374 -22.78710938 25.82617188 C-15.93840941 19.03647004 -9.54915762 12.06209384 -3.5625 4.5 C-2.88316406 3.6440625 -2.20382813 2.788125 -1.50390625 1.90625 C-1.00761719 1.2771875 -0.51132813 0.648125 0 0 Z " fill="#B5C9D9" transform="translate(114,326)"/>
<path d="M0 0 C5.73724715 6.50221344 6.414316 12.32917237 6.2421875 20.75390625 C5.59363565 29.44659312 2.05594496 35.78038085 -4 42 C-12.1990226 48.77940385 -20.44790891 50.98879735 -31 50 C-35.23949045 49.02648738 -38.88657345 48.11342655 -42 45 C-40.82812134 43.83597656 -40.82812134 43.83597656 -39.63256836 42.6484375 C-36.70205392 39.73618447 -33.7749825 36.82049089 -30.84887695 33.90380859 C-29.58807785 32.6480018 -28.32637824 31.39309836 -27.0637207 30.13916016 C-18.78590702 21.91703418 -10.81383364 13.65957933 -3.5625 4.5 C-2.88316406 3.6440625 -2.20382812 2.788125 -1.50390625 1.90625 C-1.00761719 1.2771875 -0.51132812 0.648125 0 0 Z " fill="#B7C8D7" transform="translate(450,70)"/>
</svg>
