<?xml version="1.0" encoding="UTF-8"?>
<svg version="1.1" xmlns="http://www.w3.org/2000/svg" width="200" height="200">
<path d="M0 0 C66 0 132 0 200 0 C200 66 200 132 200 200 C134 200 68 200 0 200 C0 134 0 68 0 0 Z " fill="#FEFEFE" transform="translate(0,0)"/>
<path d="M0 0 C4.49625 -0.061875 8.9925 -0.12375 13.625 -0.1875 C15.03217285 -0.21481201 16.4393457 -0.24212402 17.88916016 -0.27026367 C19.01112793 -0.27775635 20.1330957 -0.28524902 21.2890625 -0.29296875 C23.00150146 -0.31653442 23.00150146 -0.31653442 24.74853516 -0.34057617 C28.47046733 0.04927932 30.82583569 1.04171076 34 3 C36.50304378 6.75456567 36.45280074 8.54745934 36 13 C34 16.4375 34 16.4375 32 19 C32.61875 19.268125 33.2375 19.53625 33.875 19.8125 C36 21 36 21 38 24 C38.42740092 29.29977145 38.52351458 32.74748241 35 37 C30.24064415 40.3315491 26.54459196 41.1246225 20.80078125 41.09765625 C19.71192627 41.09515869 18.62307129 41.09266113 17.5012207 41.09008789 C16.11894287 41.08098389 14.73666504 41.07187988 13.3125 41.0625 C8.919375 41.041875 4.52625 41.02125 0 41 C0 27.47 0 13.94 0 0 Z " fill="#060606" transform="translate(53,80)"/>
<path d="M0 0 C3.63 0 7.26 0 11 0 C11 13.53 11 27.06 11 41 C-2.53 41 -16.06 41 -30 41 C-30 37.37 -30 33.74 -30 30 C-27.69 30 -25.38 30 -23 30 C-22.814375 29.195625 -22.62875 28.39125 -22.4375 27.5625 C-19.22950243 19.61224516 -13.33414011 13.37085118 -6 9 C-2.5 7.625 -2.5 7.625 0 7 C0 4.69 0 2.38 0 0 Z " fill="#040404" transform="translate(173,80)"/>
<path d="M0 0 C11.22 0 22.44 0 34 0 C34 11.12031427 34 11.12031427 29.57421875 15.61132812 C28.97222656 16.17271484 28.37023437 16.73410156 27.75 17.3125 C26.5768867 18.47401108 25.4049852 19.63674751 24.234375 20.80078125 C23.44885254 21.54581909 23.44885254 21.54581909 22.64746094 22.3059082 C20.61215735 24.39882041 18.82371823 26.72035221 17 29 C23.27 29.33 29.54 29.66 36 30 C36 33.63 36 37.26 36 41 C23.46 41 10.92 41 -2 41 C-2 31 -2 31 -0.57885742 28.36767578 C0.39796997 27.41610596 0.39796997 27.41610596 1.39453125 26.4453125 C2.10287109 25.72859375 2.81121094 25.011875 3.54101562 24.2734375 C4.29060547 23.56445312 5.04019531 22.85546875 5.8125 22.125 C7.27854395 20.67047954 8.74343012 19.214791 10.20703125 17.7578125 C11.18893433 16.81639404 11.18893433 16.81639404 12.19067383 15.85595703 C14.32251625 13.74889013 14.32251625 13.74889013 17 10 C11.39 10 5.78 10 0 10 C0 6.7 0 3.4 0 0 Z " fill="#070707" transform="translate(94,80)"/>
<path d="M0 0 C11.88 0 23.76 0 36 0 C36 3.63 36 7.26 36 11 C32.37 11 28.74 11 25 11 C25 20.9 25 30.8 25 41 C20.71 41 16.42 41 12 41 C12 30.77 12 20.54 12 10 C8.04 10 4.08 10 0 10 C0 6.7 0 3.4 0 0 Z " fill="#090909" transform="translate(14,80)"/>
<path d="M0 0 C1.4370809 -0.05422947 2.87475462 -0.09289723 4.3125 -0.125 C5.11300781 -0.14820312 5.91351563 -0.17140625 6.73828125 -0.1953125 C9 0 9 0 12 2 C12.25 4.5625 12.25 4.5625 12 7 C11 8 11 8 8.49609375 8.09765625 C6.98208984 8.08025391 6.98208984 8.08025391 5.4375 8.0625 C4.42558594 8.05347656 3.41367188 8.04445313 2.37109375 8.03515625 C1.58863281 8.02355469 0.80617188 8.01195313 0 8 C0 5.36 0 2.72 0 0 Z " fill="#EDEDED" transform="translate(66,103)"/>
<path d="M0 0 C0 3.3 0 6.6 0 10 C-3.3 10 -6.6 10 -10 10 C-8.71596412 5.50587442 -5.23012555 0 0 0 Z " fill="#EFEFEF" transform="translate(173,100)"/>
<path d="M0 0 C3.3 0 6.6 0 10 0 C10.33 1.32 10.66 2.64 11 4 C9 6 9 6 6.8359375 6.1953125 C5.61777344 6.16050781 5.61777344 6.16050781 4.375 6.125 C3.55773437 6.10695313 2.74046875 6.08890625 1.8984375 6.0703125 C1.27195312 6.04710938 0.64546875 6.02390625 0 6 C0 4.02 0 2.04 0 0 Z " fill="#F2F2F2" transform="translate(66,90)"/>
</svg>
