<?xml version="1.0" encoding="UTF-8"?>
<svg version="1.1" xmlns="http://www.w3.org/2000/svg" width="200" height="200">
<path d="M0 0 C1.27230469 0.00902344 2.54460938 0.01804687 3.85546875 0.02734375 C5.31919922 0.04474609 5.31919922 0.04474609 6.8125 0.0625 C6.8125 3.3625 6.8125 6.6625 6.8125 10.0625 C4.30598958 10.48567708 1.79947917 10.90885417 -0.70703125 11.33203125 C-3.42396816 12.13213708 -4.47970958 12.83752384 -6.1875 15.0625 C-7.49710684 18.99132053 -7.36271934 22.76228059 -7.3984375 26.859375 C-7.42651473 28.64063405 -7.45517925 30.42188393 -7.484375 32.203125 C-7.52555322 35.00520485 -7.56244923 37.80711495 -7.58886719 40.609375 C-7.6166045 43.31806674 -7.66248278 46.02598492 -7.7109375 48.734375 C-7.71419037 49.56378601 -7.71744324 50.39319702 -7.72079468 51.2477417 C-7.88220622 58.95094822 -10.01660416 64.17837715 -15.1875 70.0625 C-14.40375 70.949375 -13.62 71.83625 -12.8125 72.75 C-8.11576124 78.0647307 -7.89639279 83.30518938 -7.87890625 90.08984375 C-7.85375044 91.86914396 -7.82835236 93.64844076 -7.80273438 95.42773438 C-7.77399727 98.21670681 -7.7499622 101.00562016 -7.73120117 103.79467773 C-7.7094905 106.49753768 -7.67005452 109.1997199 -7.62890625 111.90234375 C-7.62879044 112.73064194 -7.62867462 113.55894012 -7.6285553 114.41233826 C-7.54491107 119.3301072 -6.97441888 122.83154088 -4.1875 127.0625 C-1.49719997 128.2075139 -1.49719997 128.2075139 1.5 128.4375 C2.49386719 128.56898438 3.48773438 128.70046875 4.51171875 128.8359375 C5.27097656 128.91070312 6.03023437 128.98546875 6.8125 129.0625 C6.8125 132.3625 6.8125 135.6625 6.8125 139.0625 C-8.76941325 139.69514911 -8.76941325 139.69514911 -16 133.75 C-20.42448932 128.31419884 -20.47858867 122.70612087 -20.49609375 116.0078125 C-20.52125348 114.24088211 -20.5466515 112.47395511 -20.57226562 110.70703125 C-20.60096197 107.94678627 -20.62500613 105.18659988 -20.64379883 102.42626953 C-20.66558176 99.74481487 -20.70502513 97.06403136 -20.74609375 94.3828125 C-20.74620956 93.56797394 -20.74632538 92.75313538 -20.7464447 91.91360474 C-20.84145631 86.35156994 -21.81821585 82.12266187 -24.1875 77.0625 C-25.074375 76.60875 -25.96125 76.155 -26.875 75.6875 C-29.1875 74.0625 -29.1875 74.0625 -29.68359375 71.7734375 C-29.8126647 69.05903625 -29.76243181 66.719862 -29.1875 64.0625 C-26.875 62.375 -26.875 62.375 -24.1875 61.0625 C-21.20431689 55.59916123 -20.76971459 51.09112596 -20.81640625 44.9453125 C-20.79902335 43.18619598 -20.78143897 41.42708143 -20.76367188 39.66796875 C-20.75362018 36.92753397 -20.75000017 34.18722977 -20.75170898 31.44677734 C-20.74811263 28.77923826 -20.72067788 26.11267575 -20.69140625 23.4453125 C-20.69958878 22.63877228 -20.7077713 21.83223206 -20.71620178 21.00125122 C-20.63976686 15.07905984 -19.30827338 10.14440702 -16.1875 5.0625 C-10.80359578 0.66747615 -6.81977399 -0.06256673 0 0 Z " fill="#EA3924" transform="translate(51.1875,8.9375)"/>
<path d="M0 0 C16.42527583 -0.83049147 16.42527583 -0.83049147 22 4 C26.54632362 9.86622402 27.14812774 15.58403548 27.2109375 22.76171875 C27.23901971 24.53842046 27.26768426 26.31511304 27.296875 28.09179688 C27.33801282 30.88500581 27.37491047 33.67804687 27.40136719 36.47143555 C27.42915374 39.17271949 27.47503665 41.8732356 27.5234375 44.57421875 C27.52669037 45.39846848 27.52994324 46.2227182 27.53329468 47.07194519 C27.65030064 52.65540565 28.62033679 56.92042978 31 62 C31.886875 62.45375 32.77375 62.9075 33.6875 63.375 C36 65 36 65 36.49609375 67.2890625 C36.62514971 70.00314848 36.57581397 72.34309458 36 75 C33.6875 76.625 33.6875 76.625 31 78 C28.23310672 83.90095333 27.57975102 88.79607539 27.62890625 95.25 C27.61152989 97.01041867 27.59394545 98.7708353 27.57617188 100.53125 C27.56610453 103.26956911 27.56250483 106.00775688 27.56420898 108.74609375 C27.56061991 111.414449 27.53321949 114.08182129 27.50390625 116.75 C27.51208878 117.55856445 27.5202713 118.36712891 27.52870178 119.20019531 C27.45543501 124.85390534 26.25987281 129.31230092 23 134 C17.55012928 138.3376522 13.66469258 139.12536415 6.8125 139.0625 C5.54019531 139.05347656 4.26789063 139.04445312 2.95703125 139.03515625 C1.49330078 139.01775391 1.49330078 139.01775391 0 139 C0 135.7 0 132.4 0 129 C0.75925781 128.90203125 1.51851562 128.8040625 2.30078125 128.703125 C3.79158203 128.47882813 3.79158203 128.47882813 5.3125 128.25 C6.79169922 128.04117188 6.79169922 128.04117188 8.30078125 127.828125 C11.05284843 127.20319446 11.05284843 127.20319446 12.79296875 125.296875 C15.52910128 120.09025388 15.15724864 114.0584668 15.2109375 108.3125 C15.23899307 106.62759423 15.26765744 104.94269852 15.296875 103.2578125 C15.33815598 100.62467598 15.37508255 97.99172989 15.40136719 95.35839844 C15.42905033 92.80104887 15.47489865 90.24452762 15.5234375 87.6875 C15.52669037 86.90608643 15.52994324 86.12467285 15.53329468 85.31958008 C15.667498 79.3170612 17.02009831 75.14960754 21.1875 70.625 C21.785625 70.08875 22.38375 69.5525 23 69 C22.36771484 68.29423828 22.36771484 68.29423828 21.72265625 67.57421875 C21.17480469 66.95160156 20.62695312 66.32898438 20.0625 65.6875 C19.51722656 65.07261719 18.97195312 64.45773438 18.41015625 63.82421875 C15.3932669 59.92148378 15.81770396 55.59300342 15.75390625 50.89453125 C15.72094835 49.25455235 15.68773705 47.61457852 15.65429688 45.97460938 C15.60706203 43.39871948 15.56265852 40.82284722 15.52319336 38.24682617 C15.48314783 35.754172 15.4316669 33.26194439 15.37890625 30.76953125 C15.3704921 30.01090286 15.36207794 29.25227448 15.35340881 28.47065735 C15.23715975 23.3680445 14.51687588 18.88652401 13 14 C9.19190418 10.52791264 4.95031384 10.41951812 0 10 C0 6.7 0 3.4 0 0 Z " fill="#EA3A25" transform="translate(141,9)"/>
<path d="M0 0 C0.82290527 0.00202423 1.64581055 0.00404846 2.49365234 0.00613403 C3.33331543 0.00517731 4.17297852 0.00422058 5.03808594 0.00323486 C6.81689529 0.00255306 8.59570712 0.00440737 10.37451172 0.00857544 C13.10699011 0.01392371 15.83930411 0.00863048 18.57177734 0.00222778 C20.29573604 0.00288856 22.01969464 0.00416973 23.74365234 0.00613403 C24.56655762 0.0041098 25.38946289 0.00208557 26.23730469 0 C32.0037018 0.02399599 32.0037018 0.02399599 33.11865234 1.13894653 C33.21670085 2.54569873 33.24663421 3.95729789 33.24804688 5.36746216 C33.25119904 6.26509277 33.2543512 7.16272339 33.25759888 8.08755493 C33.25557465 9.06357666 33.25355042 10.03959839 33.25146484 11.04519653 C33.25242157 12.04023193 33.2533783 13.03526733 33.25436401 14.06045532 C33.25504594 16.16881371 33.25319078 18.27717418 33.24902344 20.38552856 C33.24367537 23.62499681 33.24896802 26.86432639 33.25537109 30.10379028 C33.25471031 32.14675934 33.25342916 34.18972831 33.25146484 36.23269653 C33.25348907 37.20871826 33.25551331 38.18473999 33.25759888 39.19033813 C33.25287064 40.53678406 33.25287064 40.53678406 33.24804688 41.91043091 C33.24725128 42.70461426 33.24645569 43.49879761 33.24563599 44.31704712 C33.11865234 46.13894653 33.11865234 46.13894653 32.11865234 47.13894653 C29.31871637 47.23997908 26.54396591 47.27864741 23.74365234 47.27175903 C22.90398926 47.27271576 22.06432617 47.27367249 21.19921875 47.2746582 C19.4204094 47.27534001 17.64159757 47.2734857 15.86279297 47.26931763 C13.13031458 47.26396936 10.39800058 47.26926259 7.66552734 47.27566528 C5.94156865 47.2750045 4.21761005 47.27372334 2.49365234 47.27175903 C1.67074707 47.27378326 0.8478418 47.2758075 0 47.27789307 C-5.76639711 47.25389708 -5.76639711 47.25389708 -6.88134766 46.13894653 C-6.97939616 44.73219433 -7.00932952 43.32059518 -7.01074219 41.91043091 C-7.01389435 41.01280029 -7.01704651 40.11516968 -7.02029419 39.19033813 C-7.01826996 38.21431641 -7.01624573 37.23829468 -7.01416016 36.23269653 C-7.01511688 35.23766113 -7.01607361 34.24262573 -7.01705933 33.21743774 C-7.01774125 31.10907936 -7.01588609 29.00071888 -7.01171875 26.8923645 C-7.00637069 23.65289626 -7.01166333 20.41356668 -7.01806641 17.17410278 C-7.01740563 15.13113373 -7.01612447 13.08816475 -7.01416016 11.04519653 C-7.01618439 10.0691748 -7.01820862 9.09315308 -7.02029419 8.08755493 C-7.01714203 7.18992432 -7.01398987 6.2922937 -7.01074219 5.36746216 C-7.00994659 4.57327881 -7.009151 3.77909546 -7.0083313 2.96084595 C-6.71995064 -1.17669923 -3.38712263 0.014095 0 0 Z M-4.88134766 4.13894653 C-5.0813309 7.05643788 -5.16109653 9.87696583 -5.14697266 12.79519653 C-5.14888611 13.65326904 -5.15079956 14.51134155 -5.152771 15.39541626 C-5.15413309 17.21113376 -5.15043493 19.02686098 -5.14208984 20.84255981 C-5.13139057 23.62777503 -5.14198419 26.41234522 -5.15478516 29.19754028 C-5.15346357 30.95926046 -5.15090118 32.72098024 -5.14697266 34.48269653 C-5.15102112 35.31917725 -5.15506958 36.15565796 -5.15924072 37.01748657 C-5.32163331 41.55367584 -5.32163331 41.55367584 -2.88134766 45.13894653 C0.39065873 45.45161509 0.39065873 45.45161509 4.24365234 45.40457153 C5.29770264 45.40744171 5.29770264 45.40744171 6.37304688 45.41036987 C7.85921588 45.41173129 9.34539679 45.40803786 10.83154297 45.39968872 C13.1098088 45.38898807 15.38728611 45.39958493 17.66552734 45.41238403 C19.10823742 45.41106243 20.55094701 45.40850002 21.99365234 45.40457153 C23.31107422 45.40231567 24.62849609 45.40005981 25.98583984 45.3977356 C29.21799364 45.47060092 29.21799364 45.47060092 31.11865234 43.13894653 C31.31863558 40.22145518 31.39840121 37.40092724 31.38427734 34.48269653 C31.3861908 33.62462402 31.38810425 32.76655151 31.39007568 31.88247681 C31.39143778 30.06675931 31.38773962 28.25103208 31.37939453 26.43533325 C31.36869526 23.65011804 31.37928888 20.86554785 31.39208984 18.08035278 C31.39076825 16.3186326 31.38820587 14.55691283 31.38427734 12.79519653 C31.38832581 11.95871582 31.39237427 11.12223511 31.39654541 10.26040649 C31.558938 5.72421722 31.558938 5.72421722 29.11865234 2.13894653 C25.84664596 1.82627798 25.84664596 1.82627798 21.99365234 1.87332153 C20.93960205 1.87045135 20.93960205 1.87045135 19.86425781 1.86752319 C18.37808881 1.86616178 16.8919079 1.86985521 15.40576172 1.87820435 C13.12749589 1.888905 10.85001857 1.87830814 8.57177734 1.86550903 C7.12906727 1.86683064 5.68635768 1.86939305 4.24365234 1.87332153 C2.92623047 1.87557739 1.60880859 1.87783325 0.25146484 1.88015747 C-2.98068895 1.80729215 -2.98068895 1.80729215 -4.88134766 4.13894653 Z " fill="#8F8F8F" transform="translate(76.88134765625,81.86105346679688)"/>
<path d="M0 0 C0.82290527 0.00202423 1.64581055 0.00404846 2.49365234 0.00613403 C3.33331543 0.00517731 4.17297852 0.00422058 5.03808594 0.00323486 C6.81689529 0.00255306 8.59570712 0.00440737 10.37451172 0.00857544 C13.10699011 0.01392371 15.83930411 0.00863048 18.57177734 0.00222778 C20.29573604 0.00288856 22.01969464 0.00416973 23.74365234 0.00613403 C24.56655762 0.0041098 25.38946289 0.00208557 26.23730469 0 C32.0037018 0.02399599 32.0037018 0.02399599 33.11865234 1.13894653 C33.21670085 2.54569873 33.24663421 3.95729789 33.24804688 5.36746216 C33.25119904 6.26509277 33.2543512 7.16272339 33.25759888 8.08755493 C33.25557465 9.06357666 33.25355042 10.03959839 33.25146484 11.04519653 C33.25242157 12.04023193 33.2533783 13.03526733 33.25436401 14.06045532 C33.25504594 16.16881371 33.25319078 18.27717418 33.24902344 20.38552856 C33.24367537 23.62499681 33.24896802 26.86432639 33.25537109 30.10379028 C33.25471031 32.14675934 33.25342916 34.18972831 33.25146484 36.23269653 C33.25348907 37.20871826 33.25551331 38.18473999 33.25759888 39.19033813 C33.25287064 40.53678406 33.25287064 40.53678406 33.24804688 41.91043091 C33.24725128 42.70461426 33.24645569 43.49879761 33.24563599 44.31704712 C33.11865234 46.13894653 33.11865234 46.13894653 32.11865234 47.13894653 C29.31871637 47.23997908 26.54396591 47.27864741 23.74365234 47.27175903 C22.90398926 47.27271576 22.06432617 47.27367249 21.19921875 47.2746582 C19.4204094 47.27534001 17.64159757 47.2734857 15.86279297 47.26931763 C13.13031458 47.26396936 10.39800058 47.26926259 7.66552734 47.27566528 C5.94156865 47.2750045 4.21761005 47.27372334 2.49365234 47.27175903 C1.67074707 47.27378326 0.8478418 47.2758075 0 47.27789307 C-5.76639711 47.25389708 -5.76639711 47.25389708 -6.88134766 46.13894653 C-6.97939616 44.73219433 -7.00932952 43.32059518 -7.01074219 41.91043091 C-7.01389435 41.01280029 -7.01704651 40.11516968 -7.02029419 39.19033813 C-7.01826996 38.21431641 -7.01624573 37.23829468 -7.01416016 36.23269653 C-7.01511688 35.23766113 -7.01607361 34.24262573 -7.01705933 33.21743774 C-7.01774125 31.10907936 -7.01588609 29.00071888 -7.01171875 26.8923645 C-7.00637069 23.65289626 -7.01166333 20.41356668 -7.01806641 17.17410278 C-7.01740563 15.13113373 -7.01612447 13.08816475 -7.01416016 11.04519653 C-7.01618439 10.0691748 -7.01820862 9.09315308 -7.02029419 8.08755493 C-7.01714203 7.18992432 -7.01398987 6.2922937 -7.01074219 5.36746216 C-7.00994659 4.57327881 -7.009151 3.77909546 -7.0083313 2.96084595 C-6.71995064 -1.17669923 -3.38712263 0.014095 0 0 Z M-4.88134766 4.13894653 C-5.0813309 7.05643788 -5.16109653 9.87696583 -5.14697266 12.79519653 C-5.14888611 13.65326904 -5.15079956 14.51134155 -5.152771 15.39541626 C-5.15413309 17.21113376 -5.15043493 19.02686098 -5.14208984 20.84255981 C-5.13139057 23.62777503 -5.14198419 26.41234522 -5.15478516 29.19754028 C-5.15346357 30.95926046 -5.15090118 32.72098024 -5.14697266 34.48269653 C-5.15102112 35.31917725 -5.15506958 36.15565796 -5.15924072 37.01748657 C-5.32163331 41.55367584 -5.32163331 41.55367584 -2.88134766 45.13894653 C0.39065873 45.45161509 0.39065873 45.45161509 4.24365234 45.40457153 C5.29770264 45.40744171 5.29770264 45.40744171 6.37304688 45.41036987 C7.85921588 45.41173129 9.34539679 45.40803786 10.83154297 45.39968872 C13.1098088 45.38898807 15.38728611 45.39958493 17.66552734 45.41238403 C19.10823742 45.41106243 20.55094701 45.40850002 21.99365234 45.40457153 C23.31107422 45.40231567 24.62849609 45.40005981 25.98583984 45.3977356 C29.21799364 45.47060092 29.21799364 45.47060092 31.11865234 43.13894653 C31.31863558 40.22145518 31.39840121 37.40092724 31.38427734 34.48269653 C31.3861908 33.62462402 31.38810425 32.76655151 31.39007568 31.88247681 C31.39143778 30.06675931 31.38773962 28.25103208 31.37939453 26.43533325 C31.36869526 23.65011804 31.37928888 20.86554785 31.39208984 18.08035278 C31.39076825 16.3186326 31.38820587 14.55691283 31.38427734 12.79519653 C31.38832581 11.95871582 31.39237427 11.12223511 31.39654541 10.26040649 C31.558938 5.72421722 31.558938 5.72421722 29.11865234 2.13894653 C25.84664596 1.82627798 25.84664596 1.82627798 21.99365234 1.87332153 C20.93960205 1.87045135 20.93960205 1.87045135 19.86425781 1.86752319 C18.37808881 1.86616178 16.8919079 1.86985521 15.40576172 1.87820435 C13.12749589 1.888905 10.85001857 1.87830814 8.57177734 1.86550903 C7.12906727 1.86683064 5.68635768 1.86939305 4.24365234 1.87332153 C2.92623047 1.87557739 1.60880859 1.87783325 0.25146484 1.88015747 C-2.98068895 1.80729215 -2.98068895 1.80729215 -4.88134766 4.13894653 Z " fill="#8F8F8F" transform="translate(76.88134765625,27.861053466796875)"/>
<path d="M0 0 C3.90216422 3.90216422 3.1659896 8.65691549 3.2109375 13.83203125 C3.23900977 15.61784765 3.26767426 17.40365482 3.296875 19.18945312 C3.33809345 22.0004039 3.37498764 24.81118304 3.40136719 27.62231445 C3.4290557 30.33841398 3.47492909 33.05373423 3.5234375 35.76953125 C3.52669037 36.60410355 3.52994324 37.43867584 3.53329468 38.29853821 C3.63657752 43.22808062 4.20598032 46.76006577 7 51 C9.69030003 52.1450139 9.69030003 52.1450139 12.6875 52.375 C13.68136719 52.50648438 14.67523438 52.63796875 15.69921875 52.7734375 C16.45847656 52.84820312 17.21773437 52.92296875 18 53 C18 56.3 18 59.6 18 63 C4.39433857 63.55241031 4.39433857 63.55241031 -2 60 C-2.66 59.67 -3.32 59.34 -4 59 C-4.13687714 57.46089264 -4.23284005 55.91812705 -4.3125 54.375 C-4.37050781 53.51648438 -4.42851563 52.65796875 -4.48828125 51.7734375 C-4 49 -4 49 -1.50219727 46.30834961 C1.4549325 42.8702538 1.66969072 39.70912078 1.5234375 35.29296875 C1.51873444 34.56813797 1.51403137 33.84330719 1.50918579 33.09651184 C1.48797133 30.79251295 1.43152746 28.4908731 1.375 26.1875 C1.35847056 24.65301697 1.34412828 23.11850875 1.33203125 21.58398438 C1.25163388 14.34088559 0.99933992 7.18377962 0 0 Z " fill="#F2AA3C" transform="translate(40,85)"/>
<path d="M0 0 C1.27230469 0.00902344 2.54460938 0.01804687 3.85546875 0.02734375 C5.31919922 0.04474609 5.31919922 0.04474609 6.8125 0.0625 C6.8125 3.3625 6.8125 6.6625 6.8125 10.0625 C4.30598958 10.48567708 1.79947917 10.90885417 -0.70703125 11.33203125 C-3.42396816 12.13213708 -4.47970958 12.83752384 -6.1875 15.0625 C-7.49710684 18.99132053 -7.36271934 22.76228059 -7.3984375 26.859375 C-7.42651473 28.64063405 -7.45517925 30.42188393 -7.484375 32.203125 C-7.52555322 35.00520485 -7.56244923 37.80711495 -7.58886719 40.609375 C-7.6166045 43.31806674 -7.66248278 46.02598492 -7.7109375 48.734375 C-7.71419037 49.56378601 -7.71744324 50.39319702 -7.72079468 51.2477417 C-7.83205902 56.55772247 -8.66797552 60.35661131 -11.1875 65.0625 C-12.1775 65.5575 -12.1775 65.5575 -13.1875 66.0625 C-12.45853516 64.41507813 -12.45853516 64.41507813 -11.71484375 62.734375 C-9.35649466 55.63570254 -9.70336272 48.24863957 -9.74145508 40.85009766 C-9.75002793 38.30420658 -9.72103535 35.76051761 -9.68945312 33.21484375 C-9.68784227 31.58593817 -9.68841643 29.95702864 -9.69140625 28.328125 C-9.68017227 27.57283508 -9.66893829 26.81754517 -9.65736389 26.03936768 C-9.72331708 21.03825368 -10.77107665 18.66160653 -14.1875 15.0625 C-15.23027626 12.03274211 -15.5398768 9.25122125 -15.1875 6.0625 C-10.80356644 0.21725526 -6.96900958 -0.06393587 0 0 Z " fill="#F2AD3C" transform="translate(51.1875,8.9375)"/>
<path d="M0 0 C13.31154822 -0.4930203 13.31154822 -0.4930203 16.421875 1.734375 C18.97643612 5.40181423 18.75723986 8.70108621 18 13 C16.5 15.5625 16.5 15.5625 14 17 C11.24162839 17.31058001 8.79342627 17.18622842 6 17 C6 18.98 6 20.96 6 23 C4.02 23 2.04 23 0 23 C0 15.41 0 7.82 0 0 Z M6 5 C6 6.98 6 8.96 6 11 C7.98 11 9.96 11 12 11 C12.33 10.01 12.66 9.02 13 8 C11.7511573 6.4166747 11.7511573 6.4166747 10 5 C8.68 5 7.36 5 6 5 Z " fill="#3E3E3E" transform="translate(66,167)"/>
<path d="M0 0 C5.70362903 3.76196809 5.70362903 3.76196809 6.55078125 7.30078125 C6.68089869 8.90046042 6.76499462 10.50472936 6.796875 12.109375 C6.89742187 13.04523438 6.89742187 13.04523438 7 14 C7.66 14.33 8.32 14.66 9 15 C3.24730211 19.93088391 -0.72116537 21.26689411 -8.3125 21.125 C-9.56675781 21.10695312 -10.82101563 21.08890625 -12.11328125 21.0703125 C-13.06589844 21.04710937 -14.01851562 21.02390625 -15 21 C-15 17.7 -15 14.4 -15 11 C-13.86111328 10.85304687 -13.86111328 10.85304687 -12.69921875 10.703125 C-11.70535156 10.55359375 -10.71148437 10.4040625 -9.6875 10.25 C-8.70136719 10.11078125 -7.71523437 9.9715625 -6.69921875 9.828125 C-3.48621658 8.84237036 -2.63541376 7.88349268 -1 5 C-0.28566879 2.35065178 -0.28566879 2.35065178 0 0 Z " fill="#F2AB3C" transform="translate(156,127)"/>
<path d="M0 0 C8.44333791 -0.42691034 14.75903687 -0.63421641 22 4 C22.62608696 12.95652174 22.62608696 12.95652174 20.125 17.125 C18 19 18 19 16 19 C15.67 19.99 15.34 20.98 15 22 C14.773125 20.741875 14.54625 19.48375 14.3125 18.1875 C13.54439328 15.18923516 13.22280007 14.20314124 10.875 12.0625 C7.20044815 10.70451345 3.90327665 10.33078616 0 10 C0 6.7 0 3.4 0 0 Z " fill="#F2AC3C" transform="translate(141,9)"/>
<path d="M0 0 C4.95 0 9.9 0 15 0 C15 1.65 15 3.3 15 5 C12.03 5 9.06 5 6 5 C6 6.32 6 7.64 6 9 C8.64 9 11.28 9 14 9 C14 10.65 14 12.3 14 14 C11.36 14 8.72 14 6 14 C6 15.32 6 16.64 6 18 C8.97 18 11.94 18 15 18 C15 19.65 15 21.3 15 23 C10.05 23 5.1 23 0 23 C0 15.41 0 7.82 0 0 Z " fill="#3E3E3E" transform="translate(87,167)"/>
<path d="M0 0 C2.97 0 5.94 0 9 0 C9.66 1.98 10.32 3.96 11 6 C11.66 6 12.32 6 13 6 C13.309375 5.195625 13.61875 4.39125 13.9375 3.5625 C15 1 15 1 16 0 C18.67058851 -0.14115161 21.32432238 -0.04247107 24 0 C23.43410156 0.99 22.86820313 1.98 22.28515625 3 C21.54358451 4.33295174 20.80273762 5.66630692 20.0625 7 C19.68931641 7.64839844 19.31613281 8.29679688 18.93164062 8.96484375 C16.32315074 13.71182535 15.38015419 17.59336261 15 23 C13.02 23 11.04 23 9 23 C8.93683594 22.42894531 8.87367187 21.85789063 8.80859375 21.26953125 C7.59379075 13.22625665 4.06202521 6.92933712 0 0 Z " fill="#3E3E3E" transform="translate(41,167)"/>
<path d="M0 0 C5.94 0 11.88 0 18 0 C18 1.98 18 3.96 18 6 C16.02 6 14.04 6 12 6 C12 11.61 12 17.22 12 23 C10.02 23 8.04 23 6 23 C6 17.39 6 11.78 6 6 C4.02 6 2.04 6 0 6 C0 4.02 0 2.04 0 0 Z " fill="#3E3E3E" transform="translate(22,167)"/>
<path d="M0 0 C4.62 0 9.24 0 14 0 C14 18.48 14 36.96 14 56 C9.38 56 4.76 56 0 56 C0 55.34 0 54.68 0 54 C3.96 54 7.92 54 12 54 C12 36.84 12 19.68 12 2 C8.04 2 4.08 2 0 2 C0 1.34 0 0.68 0 0 Z " fill="#8F8F8F" transform="translate(115,51)"/>
<path d="M0 0 C3.62834995 0.0362835 5.04084903 0.19049527 8.25 2.0625 C11.22870059 5.41353817 12.12462312 7.18410806 12.625 11.6875 C12.18060645 15.98330432 10.95408706 17.99033589 8.25 21.3125 C4.00259201 24.14410532 0.23653957 23.95772317 -4.75 23.3125 C-7.90337491 21.53872661 -9.2590514 20.11587044 -11.125 17.0625 C-11.98724542 13.26862016 -11.94527425 10.03363681 -10.75 6.3125 C-8.25 3.375 -8.25 3.375 -5.75 1.3125 C-4.10962605 -0.32787395 -2.25523159 0.06338669 0 0 Z M-8.5625 6.0625 C-10.32098729 9.39437066 -10.26262487 11.59596973 -9.75 15.3125 C-7.27981455 19.35462164 -5.81034291 20.99061019 -1.25 22.375 C3.55816501 22.28913991 5.68070865 20.82767785 9.0625 17.5625 C10.82098729 14.23062934 10.76262487 12.02903027 10.25 8.3125 C7.77981455 4.27037836 6.31034291 2.63438981 1.75 1.25 C-3.05816501 1.33586009 -5.18070865 2.79732215 -8.5625 6.0625 Z " fill="#3E3E3E" transform="translate(115.75,166.6875)"/>
<path d="M0 0 C1.918125 -0.0825 3.83625 -0.165 5.8125 -0.25 C7.43091797 -0.31960937 7.43091797 -0.31960937 9.08203125 -0.390625 C12 0 12 0 13.85546875 1.83203125 C15.44694866 4.84660923 15.54941234 6.63484942 15 10 C12.5 12.875 12.5 12.875 10 15 C11.32 17.64 12.64 20.28 14 23 C10.17192991 21.72397664 9.9182013 20.00339316 8.1171875 16.58984375 C7.02812158 14.70830194 7.02812158 14.70830194 4.25 14.0625 C3.13625 14.0315625 3.13625 14.0315625 2 14 C2 16.97 2 19.94 2 23 C1.34 23 0.68 23 0 23 C0 15.41 0 7.82 0 0 Z M2 1 C2 4.63 2 8.26 2 12 C6.50901363 12.17957899 6.50901363 12.17957899 11 12 C13.28930236 10.11861241 13.28930236 10.11861241 13.375 7.0625 C13.27976037 3.99127353 13.27976037 3.99127353 11.4375 2.125 C8.19726212 0.6295056 5.52393641 0.79669598 2 1 Z " fill="#3E3E3E" transform="translate(132,167)"/>
<path d="M0 0 C3.49353838 1.74676919 5.13945763 2.91405215 7.75 5.625 C8.67039063 6.57246094 8.67039063 6.57246094 9.609375 7.5390625 C10.29773438 8.26222656 10.29773438 8.26222656 11 9 C14.21478567 7.59795691 16.23914137 5.92902488 18.625 3.375 C20.4140625 1.4609375 20.4140625 1.4609375 22 0 C22.66 0 23.32 0 24 0 C24 7.59 24 15.18 24 23 C23.67 23 23.34 23 23 23 C22.505 13.1 22.505 13.1 22 3 C18.7 6.3 15.4 9.6 12 13 C8.66666667 9.66666667 5.33333333 6.33333333 2 3 C1.67 9.6 1.34 16.2 1 23 C0.67 23 0.34 23 0 23 C0 15.41 0 7.82 0 0 Z " fill="#3E3E3E" transform="translate(151,167)"/>
<path d="M0 0 C0.33 0 0.66 0 1 0 C1.07436251 5.58672194 1.12870254 11.17315339 1.16479492 16.76025391 C1.17984691 18.65939353 1.20029316 20.55849859 1.22631836 22.45751953 C1.26285992 25.19312081 1.27976238 27.928261 1.29296875 30.6640625 C1.30845261 31.50804596 1.32393646 32.35202942 1.33988953 33.22158813 C1.34131488 38.2562386 0.70536001 41.5877981 -2 46 C-2.66 46 -3.32 46 -4 46 C-4.33 43.69 -4.66 41.38 -5 39 C-3.68 39.99 -2.36 40.98 -1 42 C-0.67 28.14 -0.34 14.28 0 0 Z " fill="#EB4727" transform="translate(167,95)"/>
<path d="M0 0 C9.24 0 18.48 0 28 0 C28 0.66 28 1.32 28 2 C18.76 2 9.52 2 0 2 C0 1.34 0 0.68 0 0 Z " fill="#8F8F8F" transform="translate(76,90)"/>
<path d="M0 0 C9.24 0 18.48 0 28 0 C28 0.66 28 1.32 28 2 C18.76 2 9.52 2 0 2 C0 1.34 0 0.68 0 0 Z " fill="#8F8F8F" transform="translate(76,36)"/>
<path d="M0 0 C8.25 0 16.5 0 25 0 C25 0.66 25 1.32 25 2 C16.75 2 8.5 2 0 2 C0 1.34 0 0.68 0 0 Z " fill="#8F8F8F" transform="translate(79,119)"/>
<path d="M0 0 C8.25 0 16.5 0 25 0 C25 0.66 25 1.32 25 2 C16.75 2 8.5 2 0 2 C0 1.34 0 0.68 0 0 Z " fill="#8F8F8F" transform="translate(79,109)"/>
<path d="M0 0 C8.25 0 16.5 0 25 0 C25 0.66 25 1.32 25 2 C16.75 2 8.5 2 0 2 C0 1.34 0 0.68 0 0 Z " fill="#8F8F8F" transform="translate(79,99)"/>
<path d="M0 0 C8.25 0 16.5 0 25 0 C25 0.66 25 1.32 25 2 C16.75 2 8.5 2 0 2 C0 1.34 0 0.68 0 0 Z " fill="#8F8F8F" transform="translate(79,65)"/>
<path d="M0 0 C8.25 0 16.5 0 25 0 C25 0.66 25 1.32 25 2 C16.75 2 8.5 2 0 2 C0 1.34 0 0.68 0 0 Z " fill="#8F8F8F" transform="translate(79,55)"/>
<path d="M0 0 C8.25 0 16.5 0 25 0 C25 0.66 25 1.32 25 2 C16.75 2 8.5 2 0 2 C0 1.34 0 0.68 0 0 Z " fill="#8F8F8F" transform="translate(79,45)"/>
<path d="M0 0 C0.33 0 0.66 0 1 0 C1.31563182 5.26053037 0.66590937 8.44573816 -2 13 C-2.66 13 -3.32 13 -4 13 C-4.33 10.69 -4.66 8.38 -5 6 C-3.68 6.99 -2.36 7.98 -1 9 C-0.67 6.03 -0.34 3.06 0 0 Z " fill="#ED6B2F" transform="translate(167,128)"/>
<path d="M0 0 C0.66 0 1.32 0 2 0 C2 0.66 2 1.32 2 2 C1.34 2 0.68 2 0 2 C0 1.34 0 0.68 0 0 Z " fill="#8F8F8F" transform="translate(76,119)"/>
<path d="M0 0 C0.66 0 1.32 0 2 0 C2 0.66 2 1.32 2 2 C1.34 2 0.68 2 0 2 C0 1.34 0 0.68 0 0 Z " fill="#8F8F8F" transform="translate(76,109)"/>
<path d="M0 0 C0.66 0 1.32 0 2 0 C2 0.66 2 1.32 2 2 C1.34 2 0.68 2 0 2 C0 1.34 0 0.68 0 0 Z " fill="#8F8F8F" transform="translate(76,99)"/>
<path d="M0 0 C0.66 0 1.32 0 2 0 C2 0.66 2 1.32 2 2 C1.34 2 0.68 2 0 2 C0 1.34 0 0.68 0 0 Z " fill="#8F8F8F" transform="translate(76,65)"/>
<path d="M0 0 C0.66 0 1.32 0 2 0 C2 0.66 2 1.32 2 2 C1.34 2 0.68 2 0 2 C0 1.34 0 0.68 0 0 Z " fill="#8F8F8F" transform="translate(76,55)"/>
<path d="M0 0 C0.66 0 1.32 0 2 0 C2 0.66 2 1.32 2 2 C1.34 2 0.68 2 0 2 C0 1.34 0 0.68 0 0 Z " fill="#8F8F8F" transform="translate(76,45)"/>
</svg>
