<?xml version="1.0" standalone="no"?>
<!DOCTYPE svg PUBLIC "-//W3C//DTD SVG 20010904//EN"
 "http://www.w3.org/TR/2001/REC-SVG-20010904/DTD/svg10.dtd">
<svg version="1.0" xmlns="http://www.w3.org/2000/svg"
 width="512.000000pt" height="512.000000pt" viewBox="0 0 512.000000 512.000000"
 preserveAspectRatio="xMidYMid meet">

<g transform="translate(0.000000,512.000000) scale(0.100000,-0.100000)"
fill="#000000" stroke="none">
<path d="M2475 4461 c-22 -10 -52 -31 -67 -47 -24 -26 -1912 -3165 -1960
-3258 -16 -31 -19 -53 -16 -102 5 -78 41 -136 108 -174 l45 -25 1975 0 1975 0
45 25 c67 38 103 96 108 174 3 49 0 71 -16 102 -48 93 -1936 3232 -1960 3258
-37 39 -98 66 -152 66 -25 0 -63 -9 -85 -19z m860 -1901 l765 -1275 -770 -3
c-424 -1 -1116 -1 -1540 0 l-770 3 767 1278 c421 703 770 1276 775 1275 4 -2
352 -577 773 -1278z"/>
</g>
</svg>
