<svg version="1.1" id="Layer_1" xmlns="http://www.w3.org/2000/svg" xmlns:xlink="http://www.w3.org/1999/xlink" x="0px" y="0px"
	 width="100%" viewBox="0 0 137 137" enable-background="new 0 0 137 137" xml:space="preserve">
<path fill="#FDFDFD" opacity="1.000000" stroke="none" 
	d="
M66.000000,138.000000 
	C44.019634,138.000000 22.539265,138.000000 1.029449,138.000000 
	C1.029449,92.394684 1.029449,46.789341 1.029449,1.091999 
	C46.563469,1.091999 92.127190,1.091999 137.845459,1.091999 
	C137.845459,46.666260 137.845459,92.333069 137.845459,138.000000 
	C114.123108,138.000000 90.311554,138.000000 66.000000,138.000000 
M50.599380,75.162384 
	C52.526577,67.128418 54.453773,59.094452 56.386372,51.037960 
	C49.007000,49.759212 49.006271,49.759045 47.574505,55.959805 
	C46.115974,62.276478 44.659084,68.593521 43.201473,74.910408 
	C40.997444,69.264259 39.551846,63.809937 38.176807,58.337887 
	C36.121716,50.159512 36.142838,50.154205 27.055004,50.644920 
	C24.923075,58.393898 22.752337,66.283928 20.581600,74.173965 
	C18.287048,68.178802 16.955927,62.113010 15.575710,56.058411 
	C14.102347,49.595203 13.669585,49.369125 6.591003,51.331966 
	C8.043202,57.421928 9.495218,63.533077 10.958516,69.641525 
	C12.454069,75.884621 13.960690,82.125061 15.460985,88.360519 
	C18.515604,88.360519 21.119692,88.360519 23.878721,88.360519 
	C26.308207,79.481056 28.694201,70.760551 31.481438,60.573551 
	C34.292747,70.870583 36.689056,79.647591 39.054279,88.310738 
	C47.215614,88.921974 47.217232,88.922363 49.051876,81.270294 
	C49.477749,79.494026 49.888378,77.714111 50.599380,75.162384 
M97.674622,53.862671 
	C93.793419,49.866573 88.826302,49.541565 83.752945,49.942421 
	C77.036888,50.473068 72.709610,54.154545 72.092224,59.565453 
	C71.502289,64.735657 74.786812,68.996452 81.154129,71.056664 
	C84.319023,72.080688 87.641464,72.642494 90.760826,73.776100 
	C94.437874,75.112373 95.046959,78.220093 92.369644,80.684669 
	C89.196701,83.605492 81.564659,83.142677 79.999054,79.239532 
	C77.934998,74.093712 74.697495,75.721756 70.995094,76.177330 
	C71.101295,77.413788 71.024841,78.417038 71.290634,79.319489 
	C73.479324,86.751083 80.009750,90.149651 89.792236,89.013138 
	C96.895973,88.187851 101.197464,84.427551 101.865433,78.458954 
	C102.523102,72.582405 99.052910,68.219994 91.911407,66.058205 
	C88.726524,65.094116 85.426277,64.459785 82.324181,63.289364 
	C79.719879,62.306759 78.539909,60.323860 80.909149,57.925575 
	C83.123871,55.683704 90.089867,55.886116 91.383026,58.660423 
	C93.618942,63.457333 96.974396,61.984402 101.243767,61.434799 
	C100.093445,58.829365 99.122154,56.629410 97.674622,53.862671 
M130.435928,61.995865 
	C133.255661,62.174526 134.483826,61.327045 133.412567,58.213982 
	C131.687302,53.200397 127.787148,50.277649 121.569595,49.966835 
	C115.397652,49.658302 109.356857,49.956360 106.188255,56.558498 
	C103.684708,61.774918 106.075554,67.709381 111.846924,70.051765 
	C115.829895,71.668312 120.145027,72.452843 124.173691,73.974594 
	C127.578674,75.260780 128.091568,78.302696 125.622375,80.583389 
	C122.540581,83.429893 114.829826,82.997353 113.200005,79.206123 
	C110.882713,73.815735 107.764366,75.458084 104.173576,76.686440 
	C106.061012,86.334763 111.069275,89.718918 122.076233,89.067085 
	C129.454987,88.630112 134.173965,84.912239 134.963318,78.913925 
	C135.792084,72.616226 132.551498,68.336769 125.100212,66.021317 
	C121.929436,65.036003 118.636330,64.389450 115.563553,63.172867 
	C114.460251,62.736050 113.124977,61.024830 113.200668,59.990765 
	C113.277222,58.945053 114.834038,57.405373 115.979279,57.151791 
	C119.588921,56.352528 123.203728,55.996296 125.681946,59.992111 
	C126.345551,61.062099 128.265793,61.352726 130.435928,61.995865 
M67.895149,53.873775 
	C67.496307,47.272438 62.926632,51.721779 60.280533,50.518208 
	C60.280533,63.418465 60.280533,75.825600 60.280533,88.180847 
	C62.974583,88.180847 65.349525,88.180847 67.899315,88.180847 
	C67.899315,76.781960 67.899315,65.789627 67.895149,53.873775 
z"/>
<path fill="#0E0E0E" opacity="1.000000" stroke="none" 
	d="
M50.452698,75.549133 
	C49.888378,77.714111 49.477749,79.494026 49.051876,81.270294 
	C47.217232,88.922363 47.215614,88.921974 39.054279,88.310738 
	C36.689056,79.647591 34.292747,70.870583 31.481438,60.573551 
	C28.694201,70.760551 26.308207,79.481056 23.878721,88.360519 
	C21.119692,88.360519 18.515604,88.360519 15.460985,88.360519 
	C13.960690,82.125061 12.454069,75.884621 10.958516,69.641525 
	C9.495218,63.533077 8.043202,57.421928 6.591003,51.331966 
	C13.669585,49.369125 14.102347,49.595203 15.575710,56.058411 
	C16.955927,62.113010 18.287048,68.178802 20.581600,74.173965 
	C22.752337,66.283928 24.923075,58.393898 27.055004,50.644920 
	C36.142838,50.154205 36.121716,50.159512 38.176807,58.337887 
	C39.551846,63.809937 40.997444,69.264259 43.201473,74.910408 
	C44.659084,68.593521 46.115974,62.276478 47.574505,55.959805 
	C49.006271,49.759045 49.007000,49.759212 56.386372,51.037960 
	C54.453773,59.094452 52.526577,67.128418 50.452698,75.549133 
z"/>
<path fill="#111111" opacity="1.000000" stroke="none" 
	d="
M97.912735,54.146065 
	C99.122154,56.629410 100.093445,58.829365 101.243767,61.434799 
	C96.974396,61.984402 93.618942,63.457333 91.383026,58.660423 
	C90.089867,55.886116 83.123871,55.683704 80.909149,57.925575 
	C78.539909,60.323860 79.719879,62.306759 82.324181,63.289364 
	C85.426277,64.459785 88.726524,65.094116 91.911407,66.058205 
	C99.052910,68.219994 102.523102,72.582405 101.865433,78.458954 
	C101.197464,84.427551 96.895973,88.187851 89.792236,89.013138 
	C80.009750,90.149651 73.479324,86.751083 71.290634,79.319489 
	C71.024841,78.417038 71.101295,77.413788 70.995094,76.177330 
	C74.697495,75.721756 77.934998,74.093712 79.999054,79.239532 
	C81.564659,83.142677 89.196701,83.605492 92.369644,80.684669 
	C95.046959,78.220093 94.437874,75.112373 90.760826,73.776100 
	C87.641464,72.642494 84.319023,72.080688 81.154129,71.056664 
	C74.786812,68.996452 71.502289,64.735657 72.092224,59.565453 
	C72.709610,54.154545 77.036888,50.473068 83.752945,49.942421 
	C88.826302,49.541565 93.793419,49.866573 97.912735,54.146065 
z"/>
<path fill="#8A8A8A" opacity="1.000000" stroke="none" 
	d="
M130.022522,61.998505 
	C128.265793,61.352726 126.345551,61.062099 125.681946,59.992111 
	C123.203728,55.996296 119.588921,56.352528 115.979279,57.151791 
	C114.834038,57.405373 113.277222,58.945053 113.200668,59.990765 
	C113.124977,61.024830 114.460251,62.736050 115.563553,63.172867 
	C118.636330,64.389450 121.929436,65.036003 125.100212,66.021317 
	C132.551498,68.336769 135.792084,72.616226 134.963318,78.913925 
	C134.173965,84.912239 129.454987,88.630112 122.076233,89.067085 
	C111.069275,89.718918 106.061012,86.334763 104.173576,76.686440 
	C107.764366,75.458084 110.882713,73.815735 113.200005,79.206123 
	C114.829826,82.997353 122.540581,83.429893 125.622375,80.583389 
	C128.091568,78.302696 127.578674,75.260780 124.173691,73.974594 
	C120.145027,72.452843 115.829895,71.668312 111.846924,70.051765 
	C106.075554,67.709381 103.684708,61.774918 106.188255,56.558498 
	C109.356857,49.956360 115.397652,49.658302 121.569595,49.966835 
	C127.787148,50.277649 131.687302,53.200397 133.412567,58.213982 
	C134.483826,61.327045 133.255661,62.174526 130.022522,61.998505 
z"/>
<path fill="#0F0F0F" opacity="1.000000" stroke="none" 
	d="
M67.897232,54.335541 
	C67.899315,65.789627 67.899315,76.781960 67.899315,88.180847 
	C65.349525,88.180847 62.974583,88.180847 60.280533,88.180847 
	C60.280533,75.825600 60.280533,63.418465 60.280533,50.518208 
	C62.926632,51.721779 67.496307,47.272438 67.897232,54.335541 
z"/>
</svg>